ManameInformal-Regular.ufo
<glyph name="exclam" format="1">
  <advance width="254"/>
  <unicode hex="0021"/>
  <outline>
    <contour>
      <point x="149" y="160" type="line"/>
      <point x="155" y="335"/>
      <point x="166" y="468"/>
      <point x="182" y="617" type="curve"/>
      <point x="156" y="620"/>
      <point x="89" y="613"/>
      <point x="69" y="594" type="curve"/>
      <point x="75" y="470"/>
      <point x="81" y="307"/>
      <point x="86" y="159" type="curve"/>
    </contour>
    <component base="period" yOffset="-8"/>
  </outline>
</glyph>
<glyph name="numbersign" format="1">
  <advance width="494"/>
  <unicode hex="0023"/>
  <outline>
    <contour>
      <point x="301" y="539" type="line"/>
      <point x="309" y="341"/>
      <point x="309" y="204"/>
      <point x="301" y="72" type="curve"/>
      <point x="322" y="73"/>
      <point x="352" y="78"/>
      <point x="378" y="79" type="curve"/>
      <point x="378" y="550" type="line"/>
    </contour>
    <contour>
      <point x="112" y="536" type="line"/>
      <point x="119" y="338"/>
      <point x="119" y="201"/>
      <point x="112" y="69" type="curve"/>
      <point x="132" y="70"/>
      <point x="156" y="75"/>
      <point x="182" y="76" type="curve"/>
      <point x="182" y="547" type="line"/>
    </contour>
    <contour>
      <point x="22" y="365" type="line"/>
      <point x="219" y="373"/>
      <point x="357" y="373"/>
      <point x="490" y="365" type="curve"/>
      <point x="488" y="386"/>
      <point x="484" y="416"/>
      <point x="482" y="442" type="curve"/>
      <point x="12" y="442" type="line"/>
    </contour>
    <contour>
      <point x="25" y="176" type="line"/>
      <point x="223" y="183"/>
      <point x="360" y="183"/>
      <point x="493" y="176" type="curve"/>
      <point x="491" y="196"/>
      <point x="487" y="219"/>
      <point x="485" y="246" type="curve"/>
      <point x="15" y="246" type="line"/>
    </contour>
  </outline>
</glyph>
<glyph name="dollar" format="1">
	<unicode hex="0024"/>
	<advance width="608"/>
	<outline>
		<contour>
			<point x="336" y="-114" type="line"/>
			<point x="325" y="9"/>
			<point x="345" y="765"/>
			<point x="347" y="911" type="curve"/>
			<point x="323" y="907"/>
			<point x="289" y="903"/>
			<point x="263" y="900" type="curve"/>
			<point x="268" y="754"/>
			<point x="255" y="95"/>
			<point x="250" y="-121" type="curve"/>
		</contour>
		<contour>
			<point x="475" y="-18"/>
			<point x="546" y="114"/>
			<point x="546" y="221" type="curve" smooth="yes"/>
			<point x="546" y="453"/>
			<point x="183" y="509"/>
			<point x="183" y="650" type="curve" smooth="yes"/>
			<point x="183" y="706"/>
			<point x="237" y="753"/>
			<point x="302" y="747" type="curve" smooth="yes"/>
			<point x="404" y="737"/>
			<point x="436" y="653"/>
			<point x="456" y="630" type="curve"/>
			<point x="386" y="791" type="line"/>
			<point x="413" y="719"/>
			<point x="431" y="646"/>
			<point x="433" y="598" type="curve"/>
			<point x="525" y="587" type="line"/>
			<point x="529" y="615"/>
			<point x="532" y="658"/>
			<point x="532" y="700" type="curve" smooth="yes"/>
			<point x="532" y="725"/>
			<point x="531" y="749"/>
			<point x="529" y="767" type="curve"/>
			<point x="529" y="767"/>
			<point x="447" y="799"/>
			<point x="337" y="809" type="curve" smooth="yes"/>
			<point x="163" y="825"/>
			<point x="72" y="709"/>
			<point x="72" y="605" type="curve" smooth="yes"/>
			<point x="72" y="413"/>
			<point x="423" y="378"/>
			<point x="423" y="188" type="curve" smooth="yes"/>
			<point x="423" y="127"/>
			<point x="380" y="56"/>
			<point x="291" y="59" type="curve" smooth="yes"/>
			<point x="178" y="63"/>
			<point x="155" y="106"/>
			<point x="115" y="153" type="curve"/>
			<point x="126" y="98"/>
			<point x="118" y="66"/>
			<point x="177" y="52" type="curve"/>
			<point x="139" y="96"/>
			<point x="136" y="143"/>
			<point x="132" y="203" type="curve"/>
			<point x="44" y="213" type="line"/>
			<point x="36" y="162"/>
			<point x="32" y="120"/>
			<point x="32" y="77" type="curve" smooth="yes"/>
			<point x="32" y="56"/>
			<point x="33" y="37"/>
			<point x="35" y="22" type="curve"/>
			<point x="35" y="22"/>
			<point x="112" y="-9"/>
			<point x="273" y="-13" type="curve" smooth="yes"/>
		</contour>
		<contour>
			<point name="top" x="304" y="880" type="move"/>
		</contour>
		<contour>
			<point name="bottom" x="324" y="0" type="move"/>
		</contour>
	</outline>
</glyph>
<glyph name="percent" format="1">
	<unicode hex="0025"/>
	<advance width="1082"/>
	<outline>
		<contour>
			<point x="366" y="-80" type="line"/>
			<point x="489" y="217"/>
			<point x="705" y="677"/>
			<point x="788" y="846" type="curve"/>
			<point x="687" y="842" type="line"/>
			<point x="560" y="535"/>
			<point x="425" y="227"/>
			<point x="270" y="-80" type="curve"/>
		</contour>
		<contour>
			<point x="345" y="341"/>
			<point x="434" y="421"/>
			<point x="434" y="579" type="curve" smooth="yes"/>
			<point x="434" y="748"/>
			<point x="346" y="813"/>
			<point x="245" y="812" type="curve" smooth="yes"/>
			<point x="127" y="811"/>
			<point x="47" y="727"/>
			<point x="46" y="569" type="curve" smooth="yes"/>
			<point x="45" y="431"/>
			<point x="126" y="337"/>
			<point x="236" y="339" type="curve" smooth="yes"/>
		</contour>
		<contour>
			<point x="174" y="402"/>
			<point x="130" y="471"/>
			<point x="129" y="581" type="curve" smooth="yes"/>
			<point x="128" y="694"/>
			<point x="169" y="758"/>
			<point x="239" y="758" type="curve" smooth="yes"/>
			<point x="298" y="758"/>
			<point x="345" y="710"/>
			<point x="346" y="576" type="curve" smooth="yes"/>
			<point x="347" y="485"/>
			<point x="311" y="402"/>
			<point x="244" y="402" type="curve" smooth="yes"/>
		</contour>
		<contour>
			<point x="945" y="-59"/>
			<point x="1034" y="21"/>
			<point x="1034" y="179" type="curve" smooth="yes"/>
			<point x="1034" y="348"/>
			<point x="946" y="413"/>
			<point x="845" y="412" type="curve" smooth="yes"/>
			<point x="727" y="411"/>
			<point x="647" y="327"/>
			<point x="646" y="169" type="curve" smooth="yes"/>
			<point x="645" y="31"/>
			<point x="726" y="-63"/>
			<point x="836" y="-61" type="curve" smooth="yes"/>
		</contour>
		<contour>
			<point x="774" y="2"/>
			<point x="730" y="71"/>
			<point x="729" y="181" type="curve" smooth="yes"/>
			<point x="728" y="294"/>
			<point x="769" y="358"/>
			<point x="839" y="358" type="curve" smooth="yes"/>
			<point x="898" y="358"/>
			<point x="945" y="310"/>
			<point x="946" y="176" type="curve" smooth="yes"/>
			<point x="947" y="85"/>
			<point x="911" y="2"/>
			<point x="844" y="2" type="curve" smooth="yes"/>
		</contour>
	</outline>
</glyph>
<glyph name="ampersand" format="2">
	<unicode hex="0026"/>
	<advance width="660"/>
	<outline>
		<contour>
			<point x="407" y="40"/>
			<point x="131" y="312"/>
			<point x="127" y="479" type="curve" smooth="yes"/>
			<point x="125" y="577"/>
			<point x="208" y="638"/>
			<point x="300" y="638" type="curve" smooth="yes"/>
			<point x="467" y="638"/>
			<point x="459" y="460"/>
			<point x="460" y="437" type="curve"/>
			<point x="368" y="442" type="line"/>
			<point x="372" y="485"/>
			<point x="371" y="587"/>
			<point x="296" y="587" type="curve" smooth="yes"/>
			<point x="251" y="587"/>
			<point x="210" y="550"/>
			<point x="210" y="484" type="curve" smooth="yes"/>
			<point x="210" y="370"/>
			<point x="375" y="192"/>
			<point x="606" y="1" type="curve"/>
			<point x="480" y="-1" type="line"/>
		</contour>
		<contour>
			<point x="269" y="335" type="line"/>
			<point x="245" y="336"/>
			<point x="103" y="303"/>
			<point x="103" y="181" type="curve" smooth="yes"/>
			<point x="103" y="119"/>
			<point x="152" y="81"/>
			<point x="217" y="81" type="curve" smooth="yes"/>
			<point x="357" y="81"/>
			<point x="470" y="238"/>
			<point x="509" y="315" type="curve"/>
			<point x="524" y="303"/>
			<point x="535" y="286"/>
			<point x="539" y="259" type="curve"/>
			<point x="534" y="223"/>
			<point x="421" y="-11"/>
			<point x="202" y="-11" type="curve" smooth="yes"/>
			<point x="98" y="-11"/>
			<point x="23" y="48"/>
			<point x="23" y="169" type="curve" smooth="yes"/>
			<point x="23" y="306"/>
			<point x="185" y="382"/>
			<point x="233" y="382" type="curve"/>
		</contour>
		<contour>
			<point x="550" y="57"/>
			<point x="557" y="49"/>
			<point x="602" y="49" type="curve"/>
			<point x="618" y="0" type="line"/>
			<point x="489" y="0" type="line"/>
			<point x="504" y="72" type="line"/>
		</contour>
	</outline>
</glyph>
<glyph name="quotesingle" format="2">
	<unicode hex="0027"/>
	<advance width="158"/>
	<outline>
		<contour>
			<point x="81" y="457"/>
			<point x="122" y="546"/>
			<point x="132" y="601" type="curve"/>
			<point x="102" y="624"/>
			<point x="54" y="610"/>
			<point x="41" y="599" type="curve"/>
			<point x="38" y="550"/>
			<point x="28" y="480"/>
			<point x="20" y="424" type="curve"/>
			<point x="52" y="410" type="line"/>
		</contour>
	</outline>
</glyph>
<glyph name="parenleft" format="1">
	<unicode hex="0028"/>
	<advance width="286"/>
	<outline>
		<contour>
			<point x="246" y="-85" type="line"/>
			<point x="166" y="14"/>
			<point x="156" y="147"/>
			<point x="155" y="248" type="curve" smooth="yes"/>
			<point x="153" y="372"/>
			<point x="196" y="552"/>
			<point x="259" y="654" type="curve"/>
			<point x="204" y="680" type="line"/>
			<point x="112" y="536"/>
			<point x="49" y="356"/>
			<point x="62" y="181" type="curve" smooth="yes"/>
			<point x="74" y="32"/>
			<point x="153" y="-91"/>
			<point x="198" y="-126" type="curve"/>
		</contour>
	</outline>
</glyph>
<glyph name="parenright" format="1">
	<unicode hex="0029"/>
	<advance width="286"/>
	<outline>
		<contour>
			<point x="182" y="42"/>
			<point x="250" y="202"/>
			<point x="236" y="377" type="curve" smooth="yes"/>
			<point x="225" y="526"/>
			<point x="142" y="629"/>
			<point x="101" y="666" type="curve"/>
			<point x="53" y="627" type="line"/>
			<point x="126" y="536"/>
			<point x="149" y="418"/>
			<point x="148" y="310" type="curve" smooth="yes"/>
			<point x="146" y="186"/>
			<point x="102" y="28"/>
			<point x="40" y="-73" type="curve"/>
			<point x="90" y="-102" type="line"/>
		</contour>
	</outline>
</glyph>
<glyph name="asterisk" format="1">
	<unicode hex="002A"/>
	<advance width="375"/>
	<outline>
		<contour>
			<point x="268" y="584" type="line"/>
			<point x="252" y="630"/>
			<point x="234" y="685"/>
			<point x="233" y="728" type="curve"/>
			<point x="224" y="711" type="line"/>
			<point x="253" y="699"/>
			<point x="336" y="694"/>
			<point x="372" y="702" type="curve"/>
			<point x="370" y="715"/>
			<point x="369" y="720"/>
			<point x="367" y="736" type="curve"/>
			<point x="330" y="741"/>
			<point x="267" y="756"/>
			<point x="237" y="775" type="curve"/>
			<point x="236" y="758" type="line"/>
			<point x="270" y="813"/>
			<point x="279" y="865"/>
			<point x="286" y="901" type="curve"/>
			<point x="258" y="918" type="line"/>
			<point x="249" y="890"/>
			<point x="200" y="812"/>
			<point x="171" y="789" type="curve"/>
			<point x="200" y="791" type="line"/>
			<point x="155" y="838"/>
			<point x="96" y="859"/>
			<point x="59" y="871" type="curve"/>
			<point x="35" y="848" type="line"/>
			<point x="67" y="829"/>
			<point x="134" y="773"/>
			<point x="154" y="732" type="curve"/>
			<point x="155" y="724"/>
			<point x="141" y="769"/>
			<point x="142" y="761" type="curve"/>
			<point x="103" y="737"/>
			<point x="56" y="690"/>
			<point x="29" y="652" type="curve"/>
			<point x="50" y="626" type="line"/>
			<point x="90" y="662"/>
			<point x="140" y="692"/>
			<point x="186" y="706" type="curve"/>
			<point x="165" y="715" type="line"/>
			<point x="169" y="683"/>
			<point x="204" y="597"/>
			<point x="231" y="576" type="curve"/>
		</contour>
	</outline>
</glyph>
<glyph name="plus" format="2">
	<unicode hex="002B"/>
	<advance width="492"/>
	<outline>
		<contour>
			<point x="214" y="434" type="line"/>
			<point x="219" y="313"/>
			<point x="217" y="139"/>
			<point x="214" y="19" type="curve"/>
			<point x="290" y="22" type="line"/>
			<point x="286" y="129"/>
			<point x="286" y="300"/>
			<point x="290" y="437" type="curve"/>
		</contour>
		<contour>
			<point x="59" y="190" type="line"/>
			<point x="161" y="194"/>
			<point x="312" y="194"/>
			<point x="450" y="190" type="curve"/>
			<point x="457" y="265" type="line"/>
			<point x="336" y="261"/>
			<point x="179" y="261"/>
			<point x="60" y="265" type="curve"/>
		</contour>
	</outline>
</glyph>
<glyph name="comma" format="1">
  <advance width="215"/>
  <unicode hex="002C"/>
  <outline>
    <contour>
      <point x="88" y="-72"/>
      <point x="128" y="1"/>
      <point x="144" y="86" type="curve"/>
      <point x="119" y="93"/>
      <point x="85" y="95"/>
      <point x="55" y="91" type="curve"/>
      <point x="51" y="37"/>
      <point x="36" y="-30"/>
      <point x="18" y="-81" type="curve"/>
      <point x="37" y="-94"/>
      <point x="43" y="-101"/>
      <point x="62" y="-104" type="curve"/>
    </contour>
  </outline>
</glyph>
<glyph name="hyphen" format="2">
	<advance width="437"/>
	<unicode hex="002D"/>
	<outline>
		<contour>
			<point x="396" y="213" type="line"/>
			<point x="397" y="239"/>
			<point x="402" y="261"/>
			<point x="404" y="282" type="curve"/>
			<point x="271" y="274"/>
			<point x="193" y="274"/>
			<point x="44" y="282" type="curve"/>
			<point x="33" y="213" type="line"/>
		</contour>
	</outline>
</glyph>
<glyph name="period" format="1">
  <advance width="180"/>
  <unicode hex="002E"/>
  <outline>
    <contour>
      <point x="126" y="-22"/>
      <point x="150" y="0"/>
      <point x="150" y="38" type="curve" smooth="yes"/>
      <point x="150" y="76"/>
      <point x="120" y="96"/>
      <point x="91" y="96" type="curve" smooth="yes"/>
      <point x="54" y="96"/>
      <point x="30" y="72"/>
      <point x="30" y="36" type="curve" smooth="yes"/>
      <point x="30" y="-2"/>
      <point x="59" y="-22"/>
      <point x="91" y="-22" type="curve" smooth="yes"/>
    </contour>
  </outline>
</glyph>
<glyph name="zero" format="1">
  <advance width="696"/>
  <unicode hex="0030"/>
  <outline>
    <contour>
      <point x="503" y="-2"/>
      <point x="628" y="134"/>
      <point x="627" y="399" type="curve" smooth="yes"/>
      <point x="626" y="696"/>
      <point x="501" y="809"/>
      <point x="345" y="808" type="curve" smooth="yes"/>
      <point x="176" y="807"/>
      <point x="49" y="670"/>
      <point x="48" y="399" type="curve" smooth="yes"/>
      <point x="47" y="146"/>
      <point x="163" y="-9"/>
      <point x="349" y="-5" type="curve" smooth="yes"/>
    </contour>
    <contour>
      <point x="231" y="73"/>
      <point x="163" y="197"/>
      <point x="162" y="387" type="curve" smooth="yes"/>
      <point x="160" y="637"/>
      <point x="231" y="737"/>
      <point x="340" y="738" type="curve" smooth="yes"/>
      <point x="431" y="739"/>
      <point x="512" y="640"/>
      <point x="513" y="410" type="curve" smooth="yes"/>
      <point x="514" y="199"/>
      <point x="445" y="75"/>
      <point x="349" y="74" type="curve" smooth="yes"/>
    </contour>
  </outline>
</glyph>
<glyph name="one" format="1">
	<unicode hex="0031"/>
	<advance width="325"/>
	<outline>
		<contour>
			<point x="273" y="48"/>
			<point x="221" y="43"/>
			<point x="223" y="116" type="curve" smooth="yes"/>
			<point x="226" y="286"/>
			<point x="227" y="574"/>
			<point x="233" y="635" type="curve"/>
			<point x="233" y="635"/>
			<point x="73" y="594"/>
			<point x="26" y="596" type="curve"/>
			<point x="31" y="549" type="line"/>
			<point x="86" y="549"/>
			<point x="137" y="534"/>
			<point x="141" y="499" type="curve" smooth="yes"/>
			<point x="146" y="449"/>
			<point x="153" y="260"/>
			<point x="140" y="110" type="curve" smooth="yes"/>
			<point x="136" y="57"/>
			<point x="95" y="44"/>
			<point x="50" y="47" type="curve"/>
			<point x="55" y="0" type="line"/>
			<point x="302" y="0" type="line"/>
			<point x="294" y="49" type="line"/>
		</contour>
	</outline>
</glyph>
<glyph name="two" format="1">
  <advance width="650"/>
  <unicode hex="0032"/>
  <outline>
    <contour>
      <point x="607" y="0" type="line"/>
      <point x="616" y="188" type="line"/>
      <point x="544" y="179" type="line"/>
      <point x="537" y="150"/>
      <point x="528" y="89"/>
      <point x="450" y="88" type="curve" smooth="yes"/>
      <point x="154" y="85" type="line"/>
      <point x="122" y="60" type="line"/>
      <point x="315" y="169"/>
      <point x="591" y="334"/>
      <point x="589" y="591" type="curve" smooth="yes"/>
      <point x="588" y="749"/>
      <point x="493" y="816"/>
      <point x="327" y="816" type="curve" smooth="yes"/>
      <point x="264" y="816"/>
      <point x="136" y="785"/>
      <point x="83" y="756" type="curve"/>
      <point x="83" y="756"/>
      <point x="80" y="696"/>
      <point x="86" y="629" type="curve"/>
      <point x="153" y="638" type="line"/>
      <point x="176" y="739"/>
      <point x="277" y="753"/>
      <point x="312" y="754" type="curve" smooth="yes"/>
      <point x="432" y="757"/>
      <point x="464" y="662"/>
      <point x="464" y="570" type="curve" smooth="yes"/>
      <point x="464" y="324"/>
      <point x="235" y="224"/>
      <point x="33" y="72" type="curve"/>
      <point x="48" y="0" type="line"/>
    </contour>
  </outline>
</glyph>
<glyph name="three" format="1">
	<unicode hex="0033"/>
	<advance width="619"/>
	<outline>
		<contour>
			<point x="571" y="80"/>
			<point x="571" y="242" type="curve" smooth="yes"/>
			<point x="571" y="354"/>
			<point x="483" y="436"/>
			<point x="345" y="436" type="curve" smooth="yes"/>
			<point x="331" y="436"/>
			<point x="317" y="435"/>
			<point x="302" y="434" type="curve"/>
			<point x="313" y="420" type="line"/>
			<point x="453" y="444"/>
			<point x="540" y="541"/>
			<point x="540" y="655" type="curve" smooth="yes"/>
			<point x="540" y="758"/>
			<point x="479" y="823"/>
			<point x="328" y="823" type="curve" smooth="yes"/>
			<point x="238" y="823"/>
			<point x="149" y="798"/>
			<point x="97" y="774" type="curve"/>
			<point x="97" y="774"/>
			<point x="96" y="753"/>
			<point x="96" y="723" type="curve" smooth="yes"/>
			<point x="96" y="697"/>
			<point x="97" y="674"/>
			<point x="100" y="642" type="curve"/>
			<point x="177" y="654" type="line"/>
			<point x="190" y="731"/>
			<point x="241" y="761"/>
			<point x="302" y="761" type="curve" smooth="yes"/>
			<point x="367" y="761"/>
			<point x="417" y="721"/>
			<point x="417" y="640" type="curve" smooth="yes"/>
			<point x="417" y="535"/>
			<point x="354" y="477"/>
			<point x="208" y="455" type="curve"/>
			<point x="216" y="384" type="line"/>
			<point x="357" y="387"/>
			<point x="457" y="324"/>
			<point x="457" y="212" type="curve" smooth="yes"/>
			<point x="457" y="124"/>
			<point x="406" y="68"/>
			<point x="309" y="68" type="curve" smooth="yes"/>
			<point x="219" y="68"/>
			<point x="141" y="119"/>
			<point x="117" y="172" type="curve"/>
			<point x="100" y="135"/>
			<point x="88" y="68"/>
			<point x="88" y="28" type="curve" smooth="yes"/>
			<point x="88" y="22"/>
			<point x="89" y="17"/>
			<point x="89" y="12" type="curve"/>
			<point x="126" y="2"/>
			<point x="208" y="-9"/>
			<point x="279" y="-9" type="curve" smooth="yes"/>
			<point x="447" y="-9"/>
		</contour>
	</outline>
</glyph>
<glyph name="four" format="1">
	<unicode hex="0034"/>
	<advance width="736"/>
	<outline>
		<contour>
			<point x="692" y="223" type="line"/>
			<point x="679" y="318" type="line"/>
			<point x="577" y="311"/>
			<point x="224" y="306"/>
			<point x="86" y="308" type="curve"/>
			<point x="80" y="249" type="line"/>
			<point x="196" y="395"/>
			<point x="430" y="711"/>
			<point x="468" y="814" type="curve"/>
			<point x="398" y="817"/>
			<point x="361" y="812"/>
			<point x="325" y="803" type="curve"/>
			<point x="285" y="683"/>
			<point x="157" y="521"/>
			<point x="20" y="259" type="curve"/>
			<point x="50" y="220" type="line"/>
		</contour>
		<contour>
			<point x="513" y="-12" type="line"/>
			<point x="512" y="243"/>
			<point x="517" y="333"/>
			<point x="531" y="560" type="curve"/>
			<point x="468" y="541"/>
			<point x="427" y="504"/>
			<point x="427" y="504" type="curve"/>
			<point x="431" y="380"/>
			<point x="421" y="248"/>
			<point x="409" y="-12" type="curve"/>
		</contour>
	</outline>
</glyph>
<glyph name="five" format="1">
	<unicode hex="0035"/>
	<advance width="594"/>
	<outline>
		<contour>
			<point x="533" y="103"/>
			<point x="533" y="281" type="curve" smooth="yes"/>
			<point x="533" y="421"/>
			<point x="429" y="526"/>
			<point x="158" y="526" type="curve"/>
			<point x="164" y="699" type="line"/>
			<point x="313" y="699"/>
			<point x="336" y="699"/>
			<point x="473" y="691" type="curve"/>
			<point x="477" y="814" type="line"/>
			<point x="409" y="810"/>
			<point x="310" y="806"/>
			<point x="219" y="806" type="curve" smooth="yes"/>
			<point x="161" y="806"/>
			<point x="125" y="806"/>
			<point x="92" y="808" type="curve"/>
			<point x="85" y="693"/>
			<point x="78" y="604"/>
			<point x="66" y="460" type="curve"/>
			<point x="279" y="467"/>
			<point x="404" y="375"/>
			<point x="404" y="251" type="curve" smooth="yes"/>
			<point x="404" y="160"/>
			<point x="363" y="80"/>
			<point x="250" y="80" type="curve" smooth="yes"/>
			<point x="182" y="80"/>
			<point x="88" y="104"/>
			<point x="45" y="149" type="curve"/>
			<point x="30" y="123"/>
			<point x="24" y="88"/>
			<point x="24" y="53" type="curve" smooth="yes"/>
			<point x="24" y="40"/>
			<point x="26" y="18"/>
			<point x="29" y="8" type="curve"/>
			<point x="47" y="-2"/>
			<point x="103" y="-9"/>
			<point x="164" y="-9" type="curve" smooth="yes"/>
			<point x="387" y="-9"/>
		</contour>
	</outline>
</glyph>
<glyph name="six" format="1">
	<unicode hex="0036"/>
	<advance width="658"/>
	<outline>
		<contour>
			<point x="500" y="-14"/>
			<point x="597" y="113"/>
			<point x="597" y="244" type="curve" smooth="yes"/>
			<point x="597" y="431"/>
			<point x="469" y="498"/>
			<point x="369" y="498" type="curve" smooth="yes"/>
			<point x="305" y="498"/>
			<point x="203" y="465"/>
			<point x="142" y="362" type="curve"/>
			<point x="140" y="361"/>
			<point x="165" y="325"/>
			<point x="163" y="325" type="curve"/>
			<point x="175" y="336"/>
			<point x="244" y="414"/>
			<point x="338" y="414" type="curve" smooth="yes"/>
			<point x="407" y="414"/>
			<point x="469" y="371"/>
			<point x="469" y="232" type="curve" smooth="yes"/>
			<point x="469" y="126"/>
			<point x="428" y="47"/>
			<point x="350" y="46" type="curve" smooth="yes"/>
			<point x="237" y="46"/>
			<point x="191" y="174"/>
			<point x="191" y="317" type="curve" smooth="yes"/>
			<point x="191" y="511"/>
			<point x="274" y="734"/>
			<point x="510" y="731" type="curve"/>
			<point x="502" y="796" type="line"/>
			<point x="494" y="797"/>
			<point x="485" y="797"/>
			<point x="477" y="797" type="curve" smooth="yes"/>
			<point x="226" y="797"/>
			<point x="67" y="557"/>
			<point x="74" y="289" type="curve" smooth="yes"/>
			<point x="77" y="162"/>
			<point x="136" y="-14"/>
			<point x="330" y="-14" type="curve" smooth="yes"/>
		</contour>
	</outline>
</glyph>
<glyph name="seven" format="1">
	<unicode hex="0037"/>
	<advance width="662"/>
	<outline>
		<contour>
			<point x="371" y="310"/>
			<point x="508" y="618"/>
			<point x="619" y="758" type="curve"/>
			<point x="573" y="812" type="line"/>
			<point x="478" y="804"/>
			<point x="266" y="797"/>
			<point x="80" y="805" type="curve"/>
			<point x="72" y="625" type="line"/>
			<point x="149" y="630" type="line"/>
			<point x="157" y="658"/>
			<point x="158" y="720"/>
			<point x="212" y="724" type="curve"/>
			<point x="138" y="713" type="line"/>
			<point x="542" y="713" type="line"/>
			<point x="540" y="741" type="line"/>
			<point x="389" y="614"/>
			<point x="239" y="244"/>
			<point x="194" y="44" type="curve"/>
			<point x="208" y="18"/>
			<point x="264" y="2"/>
			<point x="311" y="2" type="curve"/>
		</contour>
	</outline>
</glyph>
<glyph name="eight" format="1">
	<unicode hex="0038"/>
	<advance width="600"/>
	<outline>
		<contour>
			<point x="449" y="-9"/>
			<point x="543" y="76"/>
			<point x="543" y="210" type="curve" smooth="yes"/>
			<point x="543" y="433"/>
			<point x="194" y="444"/>
			<point x="194" y="634" type="curve" smooth="yes"/>
			<point x="194" y="701"/>
			<point x="234" y="755"/>
			<point x="309" y="755" type="curve" smooth="yes"/>
			<point x="378" y="755"/>
			<point x="427" y="696"/>
			<point x="427" y="616" type="curve" smooth="yes"/>
			<point x="427" y="528"/>
			<point x="378" y="458"/>
			<point x="320" y="436" type="curve"/>
			<point x="348" y="406" type="line"/>
			<point x="413" y="412"/>
			<point x="520" y="487"/>
			<point x="520" y="620" type="curve" smooth="yes"/>
			<point x="520" y="742"/>
			<point x="431" y="815"/>
			<point x="313" y="815" type="curve" smooth="yes"/>
			<point x="193" y="815"/>
			<point x="95" y="736"/>
			<point x="95" y="603" type="curve" smooth="yes"/>
			<point x="95" y="359"/>
			<point x="428" y="377"/>
			<point x="428" y="197" type="curve" smooth="yes"/>
			<point x="428" y="121"/>
			<point x="385" y="54"/>
			<point x="302" y="54" type="curve" smooth="yes"/>
			<point x="224" y="54"/>
			<point x="167" y="103"/>
			<point x="167" y="195" type="curve" smooth="yes"/>
			<point x="167" y="294"/>
			<point x="245" y="351"/>
			<point x="298" y="379" type="curve"/>
			<point x="282" y="408" type="line"/>
			<point x="139" y="399"/>
			<point x="58" y="301"/>
			<point x="58" y="199" type="curve" smooth="yes"/>
			<point x="58" y="92"/>
			<point x="132" y="-9"/>
			<point x="304" y="-9" type="curve" smooth="yes"/>
		</contour>
	</outline>
</glyph>
<glyph name="nine" format="1">
	<unicode hex="0039"/>
	<advance width="633"/>
	<outline>
		<contour>
			<point x="138" y="-5"/>
			<point x="147" y="-5"/>
			<point x="155" y="-5" type="curve" smooth="yes"/>
			<point x="183" y="-5"/>
			<point x="211" y="-1"/>
			<point x="236" y="5" type="curve" smooth="yes"/>
			<point x="421" y="50"/>
			<point x="596" y="206"/>
			<point x="588" y="509" type="curve" smooth="yes"/>
			<point x="585" y="624"/>
			<point x="523" y="806"/>
			<point x="320" y="806" type="curve" smooth="yes"/>
			<point x="147" y="806"/>
			<point x="75" y="669"/>
			<point x="75" y="529" type="curve" smooth="yes"/>
			<point x="75" y="353"/>
			<point x="199" y="284"/>
			<point x="294" y="284" type="curve" smooth="yes"/>
			<point x="358" y="284"/>
			<point x="440" y="307"/>
			<point x="520" y="420" type="curve"/>
			<point x="522" y="421"/>
			<point x="497" y="457"/>
			<point x="499" y="457" type="curve"/>
			<point x="487" y="446"/>
			<point x="439" y="368"/>
			<point x="329" y="368" type="curve" smooth="yes"/>
			<point x="263" y="368"/>
			<point x="193" y="412"/>
			<point x="193" y="542" type="curve" smooth="yes"/>
			<point x="193" y="660"/>
			<point x="229" y="746"/>
			<point x="313" y="746" type="curve" smooth="yes"/>
			<point x="424" y="746"/>
			<point x="466" y="609"/>
			<point x="466" y="470" type="curve" smooth="yes"/>
			<point x="466" y="270"/>
			<point x="362" y="65"/>
			<point x="122" y="68" type="curve"/>
			<point x="130" y="-4" type="line"/>
		</contour>
	</outline>
</glyph>
<glyph name="less" format="1">
	<unicode hex="003C"/>
	<advance width="600"/>
	<outline>
		<contour>
			<point x="279" y="182"/>
			<point x="399" y="97"/>
			<point x="486" y="13" type="curve"/>
			<point x="510" y="40"/>
			<point x="534" y="65"/>
			<point x="560" y="88" type="curve"/>
			<point x="434" y="177"/>
			<point x="309" y="262"/>
			<point x="200" y="351" type="curve"/>
			<point x="200" y="322" type="line"/>
			<point x="312" y="419"/>
			<point x="458" y="526"/>
			<point x="557" y="593" type="curve"/>
			<point x="529" y="619"/>
			<point x="500" y="646"/>
			<point x="476" y="672" type="curve"/>
			<point x="365" y="561"/>
			<point x="206" y="439"/>
			<point x="74" y="334" type="curve"/>
		</contour>
	</outline>
</glyph>
<glyph name="equal" format="2">
	<unicode hex="003D"/>
	<advance width="462"/>
	<outline>
		<contour>
			<point x="49" y="332" type="line"/>
			<point x="151" y="336"/>
			<point x="272" y="336"/>
			<point x="410" y="332" type="curve"/>
			<point x="417" y="407" type="line"/>
			<point x="296" y="403"/>
			<point x="169" y="403"/>
			<point x="50" y="407" type="curve"/>
		</contour>
		<contour>
			<point x="49" y="193" type="line"/>
			<point x="151" y="196"/>
			<point x="273" y="196"/>
			<point x="411" y="193" type="curve"/>
			<point x="415" y="267" type="line"/>
			<point x="294" y="263"/>
			<point x="171" y="263"/>
			<point x="52" y="267" type="curve"/>
		</contour>
	</outline>
</glyph>
<glyph name="greater" format="1">
	<unicode hex="003E"/>
	<advance width="600"/>
	<outline>
		<contour>
			<point x="428" y="439"/>
			<point x="269" y="561"/>
			<point x="158" y="672" type="curve"/>
			<point x="134" y="646"/>
			<point x="105" y="619"/>
			<point x="77" y="593" type="curve"/>
			<point x="176" y="526"/>
			<point x="322" y="419"/>
			<point x="434" y="322" type="curve"/>
			<point x="434" y="351" type="line"/>
			<point x="325" y="262"/>
			<point x="200" y="177"/>
			<point x="74" y="88" type="curve"/>
			<point x="100" y="65"/>
			<point x="124" y="40"/>
			<point x="148" y="13" type="curve"/>
			<point x="235" y="97"/>
			<point x="355" y="182"/>
			<point x="560" y="334" type="curve"/>
		</contour>
	</outline>
</glyph>
<glyph name="question" format="2">
	<unicode hex="003F"/>
	<advance width="417"/>
	<outline>
		<contour>
			<point x="211" y="153" type="line"/>
			<point x="208" y="169"/>
			<point x="201" y="230"/>
			<point x="201" y="280" type="curve" smooth="yes"/>
			<point x="201" y="291"/>
			<point x="160" y="239"/>
			<point x="164" y="245" type="curve"/>
			<point x="229" y="266"/>
			<point x="355" y="303"/>
			<point x="382" y="447" type="curve" smooth="yes"/>
			<point x="403" y="565"/>
			<point x="328" y="617"/>
			<point x="236" y="617" type="curve" smooth="yes"/>
			<point x="169" y="617"/>
			<point x="102" y="589"/>
			<point x="62" y="564" type="curve"/>
			<point x="81" y="534" type="line"/>
			<point x="104" y="547"/>
			<point x="137" y="567"/>
			<point x="179" y="564" type="curve" smooth="yes"/>
			<point x="274" y="556"/>
			<point x="311" y="490"/>
			<point x="298" y="410" type="curve" smooth="yes"/>
			<point x="282" y="308"/>
			<point x="169" y="284"/>
			<point x="129" y="280" type="curve"/>
			<point x="129" y="262"/>
			<point x="125" y="180"/>
			<point x="124" y="152" type="curve"/>
		</contour>
		<contour>
			<point x="132" y="456" type="line"/>
			<point x="135" y="483"/>
			<point x="140" y="537"/>
			<point x="148" y="564" type="curve"/>
			<point x="62" y="564" type="line"/>
			<point x="58" y="537"/>
			<point x="61" y="471"/>
			<point x="67" y="447" type="curve"/>
		</contour>
		<component base="period" xOffset="51" yOffset="-8"/>
	</outline>
</glyph>
<glyph name="at" format="1">
	<unicode hex="0040"/>
	<advance width="737"/>
	<outline>
		<contour>
			<point x="721" y="420"/>
			<point x="638" y="589"/>
			<point x="387" y="589" type="curve" smooth="yes"/>
			<point x="183" y="589"/>
			<point x="27" y="410"/>
			<point x="27" y="196" type="curve" smooth="yes"/>
			<point x="27" y="-76"/>
			<point x="255" y="-172"/>
			<point x="456" y="-172" type="curve"/>
			<point x="460" y="-157"/>
			<point x="476" y="-112"/>
			<point x="471" y="-95" type="curve"/>
			<point x="217" y="-95"/>
			<point x="83" y="28"/>
			<point x="83" y="216" type="curve" smooth="yes"/>
			<point x="83" y="397"/>
			<point x="216" y="519"/>
			<point x="375" y="517" type="curve" smooth="yes"/>
			<point x="571" y="516"/>
			<point x="660" y="417"/>
			<point x="663" y="256" type="curve" smooth="yes"/>
			<point x="665" y="169"/>
			<point x="628" y="52"/>
			<point x="517" y="68" type="curve"/>
			<point x="488" y="75"/>
			<point x="505" y="306"/>
			<point x="514" y="402" type="curve"/>
			<point x="497" y="410"/>
			<point x="437" y="411"/>
			<point x="385" y="397" type="curve" smooth="yes"/>
			<point x="309" y="375"/>
			<point x="195" y="286"/>
			<point x="195" y="156" type="curve" smooth="yes"/>
			<point x="195" y="65"/>
			<point x="253" y="15"/>
			<point x="315" y="15" type="curve" smooth="yes"/>
			<point x="377" y="15"/>
			<point x="434" y="65"/>
			<point x="438" y="82" type="curve"/>
			<point x="430" y="91" type="line"/>
			<point x="424" y="39"/>
			<point x="430" y="5"/>
			<point x="473" y="-2" type="curve" smooth="yes"/>
			<point x="571" y="-19"/>
			<point x="721" y="50"/>
			<point x="721" y="253" type="curve" smooth="yes"/>
		</contour>
		<contour>
			<point x="419" y="99"/>
			<point x="379" y="69"/>
			<point x="337" y="69" type="curve" smooth="yes"/>
			<point x="291" y="69"/>
			<point x="272" y="106"/>
			<point x="272" y="171" type="curve" smooth="yes"/>
			<point x="272" y="285"/>
			<point x="336" y="370"/>
			<point x="430" y="354" type="curve"/>
			<point x="433" y="298"/>
			<point x="431" y="186"/>
			<point x="427" y="112" type="curve"/>
		</contour>
	</outline>
</glyph>
<glyph name="A" format="1">
  <advance width="650"/>
  <unicode hex="0041"/>
  <outline>
    <contour>
      <point x="263" y="0" type="line"/>
      <point x="255" y="39" type="line"/>
      <point x="218" y="39"/>
      <point x="167" y="38"/>
      <point x="183" y="112" type="curve" smooth="yes"/>
      <point x="195" y="162"/>
      <point x="263" y="377"/>
      <point x="310" y="537" type="curve"/>
      <point x="316" y="505"/>
      <point x="327" y="455"/>
      <point x="333" y="425" type="curve"/>
      <point x="367" y="313"/>
      <point x="424" y="207"/>
      <point x="450" y="95" type="curve" smooth="yes"/>
      <point x="460" y="50"/>
      <point x="430" y="44"/>
      <point x="376" y="45" type="curve"/>
      <point x="383" y="0" type="line"/>
      <point x="634" y="0" type="line"/>
      <point x="627" y="39" type="line"/>
      <point x="574" y="38"/>
      <point x="558" y="80"/>
      <point x="545" y="116" type="curve" smooth="yes"/>
      <point x="468" y="322"/>
      <point x="415" y="462"/>
      <point x="368" y="624" type="curve"/>
      <point x="338" y="614"/>
      <point x="301" y="604"/>
      <point x="271" y="600" type="curve"/>
      <point x="229" y="457"/>
      <point x="172" y="290"/>
      <point x="104" y="105" type="curve" smooth="yes"/>
      <point x="89" y="66"/>
      <point x="61" y="50"/>
      <point x="15" y="47" type="curve"/>
      <point x="23" y="0" type="line"/>
    </contour>
    <contour>
      <point x="446" y="216" type="line"/>
      <point x="446" y="275" type="line"/>
      <point x="197" y="269" type="line"/>
      <point x="197" y="214" type="line"/>
    </contour>
  </outline>
</glyph>
<glyph name="B" format="2">
	<unicode hex="0042"/>
	<advance width="567"/>
	<outline>
		<contour>
			<point x="288" y="0" type="line" smooth="yes"/>
			<point x="412" y="0"/>
			<point x="534" y="45"/>
			<point x="536" y="177" type="curve" smooth="yes"/>
			<point x="537" y="256"/>
			<point x="484" y="324"/>
			<point x="392" y="336" type="curve"/>
			<point x="367" y="317" type="line"/>
			<point x="450" y="321"/>
			<point x="501" y="403"/>
			<point x="500" y="476" type="curve" smooth="yes"/>
			<point x="499" y="568"/>
			<point x="421" y="618"/>
			<point x="317" y="618" type="curve" smooth="yes"/>
			<point x="202" y="618"/>
			<point x="164" y="607"/>
			<point x="42" y="614" type="curve"/>
			<point x="50" y="566" type="line"/>
			<point x="116" y="565"/>
			<point x="122" y="528"/>
			<point x="125" y="484" type="curve" smooth="yes"/>
			<point x="131" y="360"/>
			<point x="129" y="263"/>
			<point x="122" y="98" type="curve" smooth="yes"/>
			<point x="120" y="59"/>
			<point x="105" y="44"/>
			<point x="44" y="44" type="curve"/>
			<point x="52" y="0" type="line"/>
		</contour>
		<contour>
			<point x="237" y="52"/>
			<point x="213" y="58"/>
			<point x="207" y="102" type="curve" smooth="yes"/>
			<point x="199" y="159"/>
			<point x="197" y="212"/>
			<point x="198" y="289" type="curve"/>
			<point x="225" y="294"/>
			<point x="272" y="298"/>
			<point x="305" y="297" type="curve" smooth="yes"/>
			<point x="393" y="295"/>
			<point x="441" y="243"/>
			<point x="441" y="176" type="curve" smooth="yes"/>
			<point x="441" y="99"/>
			<point x="375" y="52"/>
			<point x="296" y="52" type="curve" smooth="yes"/>
		</contour>
		<contour>
			<point x="200" y="422"/>
			<point x="200" y="503"/>
			<point x="206" y="562" type="curve"/>
			<point x="224" y="569"/>
			<point x="258" y="574"/>
			<point x="293" y="573" type="curve" smooth="yes"/>
			<point x="353" y="571"/>
			<point x="406" y="533"/>
			<point x="405" y="461" type="curve" smooth="yes"/>
			<point x="404" y="413"/>
			<point x="376" y="351"/>
			<point x="301" y="347" type="curve" smooth="yes"/>
			<point x="273" y="346"/>
			<point x="240" y="345"/>
			<point x="199" y="347" type="curve"/>
		</contour>
	</outline>
</glyph>
<glyph name="C" format="1">
  <advance width="617"/>
  <unicode hex="0043"/>
  <outline>
    <contour>
      <point x="183" y="-18"/>
      <point x="77" y="84"/>
      <point x="77" y="246" type="curve" smooth="yes"/>
      <point x="77" y="477"/>
      <point x="229" y="615"/>
      <point x="452" y="615" type="curve" smooth="yes"/>
      <point x="537" y="615"/>
      <point x="583" y="595"/>
      <point x="583" y="595" type="curve"/>
      <point x="584" y="587"/>
      <point x="584" y="575"/>
      <point x="584" y="562" type="curve" smooth="yes"/>
      <point x="584" y="516"/>
      <point x="581" y="449"/>
      <point x="574" y="424" type="curve"/>
      <point x="529" y="426" type="line"/>
      <point x="504" y="494"/>
      <point x="450" y="571"/>
      <point x="414" y="577" type="curve"/>
      <point x="417" y="580"/>
      <point x="424" y="581"/>
      <point x="433" y="581" type="curve" smooth="yes"/>
      <point x="464" y="581"/>
      <point x="523" y="563"/>
      <point x="523" y="523" type="curve" smooth="yes"/>
      <point x="523" y="514"/>
      <point x="521" y="506"/>
      <point x="515" y="496" type="curve"/>
      <point x="502" y="499"/>
      <point x="470" y="552"/>
      <point x="376" y="552" type="curve" smooth="yes"/>
      <point x="253" y="552"/>
      <point x="179" y="448"/>
      <point x="179" y="280" type="curve" smooth="yes"/>
      <point x="179" y="148"/>
      <point x="238" y="48"/>
      <point x="390" y="48" type="curve" smooth="yes"/>
      <point x="456" y="48"/>
      <point x="517" y="80"/>
      <point x="557" y="118" type="curve"/>
      <point x="588" y="85" type="line"/>
      <point x="535" y="17"/>
      <point x="458" y="-18"/>
      <point x="360" y="-18" type="curve" smooth="yes"/>
    </contour>
  </outline>
</glyph>
<glyph name="D" format="1">
	<unicode hex="0044"/>
	<advance width="631"/>
	<outline>
		<contour>
			<point x="82" y="0"/>
			<point x="211" y="-1"/>
			<point x="263" y="0" type="curve" smooth="yes"/>
			<point x="477" y="3"/>
			<point x="591" y="158"/>
			<point x="591" y="363" type="curve" smooth="yes"/>
			<point x="590" y="531"/>
			<point x="500" y="619"/>
			<point x="328" y="619" type="curve" smooth="yes"/>
			<point x="259" y="619"/>
			<point x="162" y="607"/>
			<point x="22" y="615" type="curve"/>
			<point x="28" y="567" type="line"/>
			<point x="99" y="572"/>
			<point x="105" y="529"/>
			<point x="107" y="484" type="curve" smooth="yes"/>
			<point x="113" y="361"/>
			<point x="111" y="266"/>
			<point x="104" y="100" type="curve" smooth="yes"/>
			<point x="102" y="62"/>
			<point x="71" y="43"/>
			<point x="18" y="46" type="curve"/>
			<point x="25" y="0" type="line"/>
		</contour>
		<contour>
			<point x="229" y="59"/>
			<point x="193" y="75"/>
			<point x="189" y="111" type="curve" smooth="yes"/>
			<point x="182" y="172"/>
			<point x="186" y="249"/>
			<point x="186" y="343" type="curve" smooth="yes"/>
			<point x="187" y="408"/>
			<point x="192" y="479"/>
			<point x="197" y="554" type="curve"/>
			<point x="218" y="561"/>
			<point x="257" y="569"/>
			<point x="299" y="568" type="curve" smooth="yes"/>
			<point x="443" y="565"/>
			<point x="504" y="460"/>
			<point x="504" y="319" type="curve" smooth="yes"/>
			<point x="502" y="184"/>
			<point x="436" y="62"/>
			<point x="307" y="60" type="curve" smooth="yes"/>
		</contour>
	</outline>
</glyph>
<glyph name="E" format="1">
	<unicode hex="0045"/>
	<advance width="697"/>
	<outline>
		<contour>
			<point x="625" y="0" type="line"/>
			<point x="629" y="52"/>
			<point x="629" y="116"/>
			<point x="629" y="160" type="curve" smooth="yes"/>
			<point x="629" y="189"/>
			<point x="629" y="210"/>
			<point x="629" y="212" type="curve"/>
			<point x="557" y="204" type="line"/>
			<point x="542" y="138"/>
			<point x="519" y="78"/>
			<point x="476" y="29" type="curve"/>
			<point x="554" y="91" type="line"/>
			<point x="513" y="81"/>
			<point x="414" y="71"/>
			<point x="335" y="71" type="curve" smooth="yes"/>
			<point x="316" y="71"/>
			<point x="292" y="72"/>
			<point x="279" y="73" type="curve" smooth="yes"/>
			<point x="243" y="76"/>
			<point x="238" y="108"/>
			<point x="237" y="135" type="curve" smooth="yes"/>
			<point x="235" y="190"/>
			<point x="233" y="263"/>
			<point x="233" y="345" type="curve" smooth="yes"/>
			<point x="233" y="446"/>
			<point x="236" y="561"/>
			<point x="247" y="673" type="curve" smooth="yes"/>
			<point x="250" y="703"/>
			<point x="262" y="733"/>
			<point x="312" y="733" type="curve" smooth="yes"/>
			<point x="385" y="733"/>
			<point x="476" y="730"/>
			<point x="557" y="722" type="curve"/>
			<point x="462" y="771" type="line"/>
			<point x="505" y="732"/>
			<point x="530" y="663"/>
			<point x="537" y="604" type="curve"/>
			<point x="609" y="597" type="line"/>
			<point x="609" y="597"/>
			<point x="616" y="661"/>
			<point x="616" y="720" type="curve"/>
			<point x="615" y="801" type="line"/>
			<point x="518" y="796"/>
			<point x="406" y="795"/>
			<point x="346" y="795" type="curve" smooth="yes"/>
			<point x="325" y="795"/>
			<point x="300" y="795"/>
			<point x="273" y="795" type="curve" smooth="yes"/>
			<point x="192" y="795"/>
			<point x="93" y="796"/>
			<point x="36" y="800" type="curve"/>
			<point x="41" y="739" type="line"/>
			<point x="111" y="740"/>
			<point x="125" y="711"/>
			<point x="128" y="663" type="curve" smooth="yes"/>
			<point x="131" y="597"/>
			<point x="133" y="526"/>
			<point x="133" y="456" type="curve" smooth="yes"/>
			<point x="133" y="342"/>
			<point x="129" y="229"/>
			<point x="122" y="141" type="curve" smooth="yes"/>
			<point x="118" y="92"/>
			<point x="112" y="67"/>
			<point x="35" y="61" type="curve"/>
			<point x="41" y="0" type="line"/>
		</contour>
		<contour>
			<point x="260" y="368"/>
			<point x="338" y="373"/>
			<point x="420" y="373" type="curve" smooth="yes"/>
			<point x="454" y="373"/>
			<point x="489" y="372"/>
			<point x="526" y="370" type="curve"/>
			<point x="526" y="461" type="line"/>
			<point x="374" y="444" type="line"/>
			<point x="172" y="443" type="line"/>
			<point x="172" y="367" type="line"/>
		</contour>
		<contour>
			<point name="ogonek" x="627" y="10" type="move"/>
		</contour>
		<contour>
			<point name="bottom" x="349" y="0" type="move"/>
		</contour>
		<contour>
			<point name="top" x="366" y="849" type="move"/>
		</contour>
	</outline>
</glyph>
<glyph name="F" format="1">
	<unicode hex="0046"/>
	<advance width="514"/>
	<outline>
		<contour>
			<point x="408" y="363" type="line"/>
			<point x="305" y="350" type="line"/>
			<point x="123" y="349" type="line"/>
			<point x="123" y="292" type="line"/>
			<point x="219" y="293"/>
			<point x="312" y="292"/>
			<point x="408" y="286" type="curve"/>
		</contour>
		<contour>
			<point x="186" y="165"/>
			<point x="182" y="347"/>
			<point x="194" y="511" type="curve" smooth="yes"/>
			<point x="196" y="543"/>
			<point x="209" y="561"/>
			<point x="253" y="561" type="curve" smooth="yes"/>
			<point x="437" y="555" type="line"/>
			<point x="371" y="594" type="line"/>
			<point x="404" y="564"/>
			<point x="424" y="504"/>
			<point x="429" y="459" type="curve"/>
			<point x="484" y="453" type="line"/>
			<point x="484" y="453"/>
			<point x="490" y="509"/>
			<point x="490" y="554" type="curve"/>
			<point x="489" y="617" type="line"/>
			<point x="391" y="613"/>
			<point x="306" y="611"/>
			<point x="240" y="611" type="curve" smooth="yes"/>
			<point x="176" y="611"/>
			<point x="92" y="611"/>
			<point x="33" y="616" type="curve"/>
			<point x="38" y="569" type="line"/>
			<point x="96" y="568"/>
			<point x="103" y="547"/>
			<point x="105" y="511" type="curve" smooth="yes"/>
			<point x="112" y="374"/>
			<point x="109" y="209"/>
			<point x="102" y="109" type="curve" smooth="yes"/>
			<point x="99" y="68"/>
			<point x="102" y="52"/>
			<point x="35" y="47" type="curve"/>
			<point x="40" y="0" type="line"/>
			<point x="270" y="0" type="line"/>
			<point x="263" y="39" type="line"/>
			<point x="249" y="39"/>
			<point x="188" y="39"/>
			<point x="187" y="112" type="curve" smooth="yes"/>
		</contour>
	</outline>
</glyph>
<glyph name="G" format="1">
	<unicode hex="0047"/>
	<advance width="637"/>
	<outline>
		<contour>
			<point x="147" y="-21"/>
			<point x="28" y="89"/>
			<point x="26" y="248" type="curve" smooth="yes"/>
			<point x="24" y="439"/>
			<point x="142" y="616"/>
			<point x="395" y="618" type="curve" smooth="yes"/>
			<point x="488" y="618"/>
			<point x="549" y="598"/>
			<point x="549" y="598" type="curve"/>
			<point x="551" y="559"/>
			<point x="556" y="482"/>
			<point x="554" y="450" type="curve"/>
			<point x="503" y="452" type="line"/>
			<point x="478" y="520"/>
			<point x="430" y="576"/>
			<point x="394" y="581" type="curve"/>
			<point x="405" y="598"/>
			<point x="545" y="583"/>
			<point x="504" y="510" type="curve"/>
			<point x="491" y="513"/>
			<point x="432" y="567"/>
			<point x="337" y="565" type="curve" smooth="yes"/>
			<point x="222" y="564"/>
			<point x="127" y="448"/>
			<point x="125" y="297" type="curve" smooth="yes"/>
			<point x="122" y="163"/>
			<point x="193" y="44"/>
			<point x="336" y="42" type="curve" smooth="yes"/>
			<point x="420" y="40"/>
			<point x="459" y="66"/>
			<point x="494" y="106" type="curve"/>
			<point x="544" y="82" type="line"/>
			<point x="488" y="1"/>
			<point x="387" y="-21"/>
			<point x="312" y="-21" type="curve" smooth="yes"/>
		</contour>
		<contour>
			<point x="459" y="83"/>
			<point x="461" y="148"/>
			<point x="460" y="203" type="curve"/>
			<point x="457" y="234"/>
			<point x="436" y="254"/>
			<point x="383" y="251" type="curve"/>
			<point x="378" y="300" type="line"/>
			<point x="465" y="294"/>
			<point x="522" y="296"/>
			<point x="605" y="300" type="curve"/>
			<point x="613" y="254" type="line"/>
			<point x="600" y="255"/>
			<point x="547" y="260"/>
			<point x="547" y="201" type="curve" smooth="yes"/>
			<point x="547" y="160"/>
			<point x="547" y="109"/>
			<point x="544" y="82" type="curve"/>
			<point x="440" y="35" type="line"/>
		</contour>
	</outline>
</glyph>
<glyph name="H" format="2">
	<advance width="693"/>
	<unicode hex="0048"/>
	<outline>
		<contour>
			<point x="298" y="0" type="line"/>
			<point x="290" y="49" type="line"/>
			<point x="249" y="45"/>
			<point x="208" y="63"/>
			<point x="206" y="118" type="curve" smooth="yes"/>
			<point x="199" y="283"/>
			<point x="205" y="409"/>
			<point x="213" y="511" type="curve" smooth="yes"/>
			<point x="216" y="559"/>
			<point x="248" y="564"/>
			<point x="295" y="567" type="curve"/>
			<point x="293" y="581"/>
			<point x="289" y="617"/>
			<point x="289" y="617" type="curve"/>
			<point x="214" y="613"/>
			<point x="121" y="612"/>
			<point x="27" y="616" type="curve"/>
			<point x="28" y="609"/>
			<point x="32" y="579"/>
			<point x="34" y="567" type="curve"/>
			<point x="109" y="569"/>
			<point x="117" y="537"/>
			<point x="119" y="491" type="curve" smooth="yes"/>
			<point x="124" y="350"/>
			<point x="121" y="192"/>
			<point x="116" y="106" type="curve" smooth="yes"/>
			<point x="113" y="58"/>
			<point x="79" y="49"/>
			<point x="30" y="49" type="curve"/>
			<point x="36" y="-1" type="line"/>
		</contour>
		<contour>
			<point x="567" y="276" type="line"/>
			<point x="567" y="341" type="line"/>
			<point x="410" y="336" type="line"/>
			<point x="149" y="335" type="line"/>
			<point x="149" y="276" type="line"/>
		</contour>
		<contour>
			<point x="670" y="0" type="line"/>
			<point x="661" y="49" type="line"/>
			<point x="621" y="45"/>
			<point x="580" y="63"/>
			<point x="578" y="118" type="curve" smooth="yes"/>
			<point x="571" y="283"/>
			<point x="577" y="409"/>
			<point x="584" y="511" type="curve" smooth="yes"/>
			<point x="588" y="559"/>
			<point x="620" y="564"/>
			<point x="667" y="567" type="curve"/>
			<point x="665" y="581"/>
			<point x="661" y="617"/>
			<point x="661" y="617" type="curve"/>
			<point x="586" y="613"/>
			<point x="494" y="612"/>
			<point x="400" y="616" type="curve"/>
			<point x="402" y="609"/>
			<point x="405" y="579"/>
			<point x="407" y="567" type="curve"/>
			<point x="483" y="569"/>
			<point x="490" y="537"/>
			<point x="492" y="491" type="curve" smooth="yes"/>
			<point x="497" y="350"/>
			<point x="494" y="192"/>
			<point x="490" y="106" type="curve" smooth="yes"/>
			<point x="487" y="58"/>
			<point x="452" y="49"/>
			<point x="403" y="49" type="curve"/>
			<point x="410" y="-1" type="line"/>
		</contour>
	</outline>
</glyph>
<glyph name="I" format="1">
	<unicode hex="0049"/>
	<advance width="315"/>
	<outline>
		<contour>
			<point x="287" y="0" type="line"/>
			<point x="279" y="42" type="line"/>
			<point x="239" y="39"/>
			<point x="200" y="63"/>
			<point x="198" y="118" type="curve" smooth="yes"/>
			<point x="192" y="283"/>
			<point x="197" y="409"/>
			<point x="205" y="511" type="curve" smooth="yes"/>
			<point x="209" y="559"/>
			<point x="240" y="567"/>
			<point x="287" y="569" type="curve"/>
			<point x="285" y="584"/>
			<point x="281" y="617"/>
			<point x="281" y="617" type="curve"/>
			<point x="206" y="613"/>
			<point x="117" y="612"/>
			<point x="23" y="616" type="curve"/>
			<point x="25" y="609"/>
			<point x="28" y="579"/>
			<point x="30" y="567" type="curve"/>
			<point x="105" y="569"/>
			<point x="113" y="537"/>
			<point x="115" y="491" type="curve" smooth="yes"/>
			<point x="120" y="350"/>
			<point x="117" y="192"/>
			<point x="112" y="106" type="curve" smooth="yes"/>
			<point x="109" y="58"/>
			<point x="75" y="49"/>
			<point x="26" y="48" type="curve"/>
			<point x="32" y="-1" type="line"/>
		</contour>
	</outline>
</glyph>
<glyph name="J" format="1">
	<unicode hex="004A"/>
	<advance width="325"/>
	<outline>
		<contour>
			<point x="187" y="-174"/>
			<point x="213" y="-72"/>
			<point x="210" y="30" type="curve" smooth="yes"/>
			<point x="206" y="201"/>
			<point x="205" y="320"/>
			<point x="213" y="512" type="curve" smooth="yes"/>
			<point x="216" y="554"/>
			<point x="239" y="564"/>
			<point x="294" y="567" type="curve"/>
			<point x="292" y="581"/>
			<point x="288" y="617"/>
			<point x="288" y="617" type="curve"/>
			<point x="188" y="611"/>
			<point x="122" y="611"/>
			<point x="31" y="616" type="curve"/>
			<point x="32" y="609"/>
			<point x="34" y="579"/>
			<point x="36" y="567" type="curve"/>
			<point x="59" y="567"/>
			<point x="119" y="565"/>
			<point x="119" y="503" type="curve" smooth="yes"/>
			<point x="121" y="362"/>
			<point x="132" y="158"/>
			<point x="128" y="65" type="curve" smooth="yes"/>
			<point x="125" y="-14"/>
			<point x="133" y="-144"/>
			<point x="-5" y="-109" type="curve"/>
			<point x="-26" y="-149" type="line"/>
			<point x="-15" y="-155"/>
			<point x="16" y="-175"/>
			<point x="59" y="-175" type="curve" smooth="yes"/>
		</contour>
	</outline>
</glyph>
<glyph name="K" format="1">
	<unicode hex="004B"/>
	<advance width="656"/>
	<outline>
		<contour>
			<point x="483" y="0"/>
			<point x="533" y="1"/>
			<point x="621" y="0" type="curve"/>
			<point x="611" y="47" type="line"/>
			<point x="553" y="46"/>
			<point x="407" y="253"/>
			<point x="336" y="336" type="curve"/>
			<point x="320" y="315" type="line"/>
			<point x="361" y="359"/>
			<point x="472" y="480"/>
			<point x="514" y="527" type="curve" smooth="yes"/>
			<point x="537" y="552"/>
			<point x="557" y="571"/>
			<point x="588" y="571" type="curve"/>
			<point x="581" y="616" type="line"/>
			<point x="581" y="616"/>
			<point x="470" y="610"/>
			<point x="378" y="614" type="curve"/>
			<point x="385" y="567" type="line"/>
			<point x="441" y="569"/>
			<point x="444" y="547"/>
			<point x="432" y="531" type="curve" smooth="yes"/>
			<point x="370" y="450"/>
			<point x="278" y="353"/>
			<point x="249" y="326" type="curve"/>
			<point x="257" y="301" type="line"/>
			<point x="311" y="239"/>
			<point x="405" y="117"/>
			<point x="419" y="97" type="curve" smooth="yes"/>
			<point x="454" y="47"/>
			<point x="412" y="43"/>
			<point x="384" y="44" type="curve"/>
			<point x="395" y="0" type="line"/>
		</contour>
		<contour>
			<point x="301" y="0" type="line"/>
			<point x="293" y="44" type="line"/>
			<point x="253" y="41"/>
			<point x="214" y="55"/>
			<point x="212" y="110" type="curve" smooth="yes"/>
			<point x="206" y="276"/>
			<point x="211" y="410"/>
			<point x="219" y="511" type="curve" smooth="yes"/>
			<point x="223" y="560"/>
			<point x="266" y="570"/>
			<point x="306" y="569" type="curve"/>
			<point x="303" y="584"/>
			<point x="300" y="617"/>
			<point x="300" y="617" type="curve"/>
			<point x="217" y="612"/>
			<point x="139" y="611"/>
			<point x="45" y="616" type="curve"/>
			<point x="46" y="609"/>
			<point x="49" y="580"/>
			<point x="51" y="567" type="curve"/>
			<point x="111" y="569"/>
			<point x="129" y="544"/>
			<point x="129" y="495" type="curve" smooth="yes"/>
			<point x="129" y="354"/>
			<point x="129" y="193"/>
			<point x="125" y="108" type="curve" smooth="yes"/>
			<point x="122" y="59"/>
			<point x="101" y="50"/>
			<point x="50" y="49" type="curve"/>
			<point x="56" y="-1" type="line"/>
		</contour>
	</outline>
</glyph>
<glyph name="L" format="1">
	<unicode hex="004C"/>
	<advance width="528"/>
	<outline>
		<contour>
			<point x="494" y="0" type="line"/>
			<point x="499" y="21"/>
			<point x="498" y="129"/>
			<point x="494" y="163" type="curve"/>
			<point x="437" y="157" type="line"/>
			<point x="433" y="128"/>
			<point x="422" y="92"/>
			<point x="407" y="63" type="curve"/>
			<point x="369" y="58"/>
			<point x="284" y="52"/>
			<point x="238" y="56" type="curve" smooth="yes"/>
			<point x="210" y="59"/>
			<point x="204" y="85"/>
			<point x="203" y="112" type="curve" smooth="yes"/>
			<point x="202" y="152"/>
			<point x="203" y="363"/>
			<point x="216" y="518" type="curve" smooth="yes"/>
			<point x="219" y="564"/>
			<point x="245" y="568"/>
			<point x="299" y="568" type="curve"/>
			<point x="293" y="615" type="line"/>
			<point x="228" y="612"/>
			<point x="126" y="609"/>
			<point x="41" y="616" type="curve"/>
			<point x="45" y="569" type="line"/>
			<point x="99" y="570"/>
			<point x="121" y="547"/>
			<point x="123" y="511" type="curve" smooth="yes"/>
			<point x="130" y="377"/>
			<point x="130" y="213"/>
			<point x="119" y="113" type="curve" smooth="yes"/>
			<point x="114" y="63"/>
			<point x="89" y="49"/>
			<point x="41" y="49" type="curve"/>
			<point x="47" y="0" type="line"/>
		</contour>
	</outline>
</glyph>
<glyph name="M" format="1">
	<unicode hex="004D"/>
	<advance width="888"/>
	<outline>
		<contour>
			<point x="855" y="42" type="line"/>
			<point x="798" y="41"/>
			<point x="778" y="53"/>
			<point x="774" y="117" type="curve" smooth="yes"/>
			<point x="768" y="203"/>
			<point x="766" y="369"/>
			<point x="770" y="495" type="curve" smooth="yes"/>
			<point x="772" y="557"/>
			<point x="804" y="567"/>
			<point x="858" y="567" type="curve"/>
			<point x="851" y="616" type="line"/>
			<point x="775" y="611"/>
			<point x="695" y="611"/>
			<point x="646" y="614" type="curve"/>
			<point x="610" y="524"/>
			<point x="497" y="230"/>
			<point x="419" y="62" type="curve"/>
			<point x="475" y="31" type="line"/>
			<point x="536" y="187"/>
			<point x="598" y="340"/>
			<point x="655" y="466" type="curve"/>
			<point x="667" y="494"/>
			<point x="675" y="547"/>
			<point x="688" y="570" type="curve" smooth="yes"/>
			<point x="692" y="578"/>
			<point x="675" y="554"/>
			<point x="680" y="562" type="curve"/>
			<point x="689" y="422"/>
			<point x="686" y="143"/>
			<point x="681" y="107" type="curve" smooth="yes"/>
			<point x="673" y="53"/>
			<point x="644" y="45"/>
			<point x="597" y="47" type="curve"/>
			<point x="604" y="0" type="line"/>
			<point x="862" y="-1" type="line"/>
		</contour>
		<contour>
			<point x="289" y="0" type="line"/>
			<point x="280" y="42" type="line"/>
			<point x="233" y="42"/>
			<point x="215" y="53"/>
			<point x="206" y="107" type="curve" smooth="yes"/>
			<point x="202" y="141"/>
			<point x="195" y="401"/>
			<point x="204" y="541" type="curve"/>
			<point x="196" y="551" type="line"/>
			<point x="203" y="540"/>
			<point x="222" y="445"/>
			<point x="230" y="428" type="curve" smooth="yes"/>
			<point x="293" y="306"/>
			<point x="397" y="73"/>
			<point x="421" y="15" type="curve"/>
			<point x="474" y="31" type="line"/>
			<point x="453" y="69" type="line"/>
			<point x="451" y="115"/>
			<point x="446" y="166"/>
			<point x="435" y="204" type="curve"/>
			<point x="390" y="324"/>
			<point x="266" y="551"/>
			<point x="238" y="615" type="curve"/>
			<point x="166" y="613"/>
			<point x="112" y="612"/>
			<point x="36" y="616" type="curve"/>
			<point x="38" y="609"/>
			<point x="39" y="579"/>
			<point x="42" y="567" type="curve"/>
			<point x="88" y="567"/>
			<point x="134" y="559"/>
			<point x="135" y="497" type="curve" smooth="yes"/>
			<point x="136" y="370"/>
			<point x="136" y="203"/>
			<point x="129" y="117" type="curve" smooth="yes"/>
			<point x="126" y="61"/>
			<point x="94" y="45"/>
			<point x="38" y="47" type="curve"/>
			<point x="44" y="-1" type="line"/>
		</contour>
	</outline>
</glyph>
<glyph name="N" format="1">
	<unicode hex="004E"/>
	<advance width="713"/>
	<outline>
		<contour>
			<point x="532" y="-12" type="line"/>
			<point x="571" y="-4"/>
			<point x="593" y="-3"/>
			<point x="614" y="0" type="curve"/>
			<point x="608" y="166"/>
			<point x="606" y="374"/>
			<point x="618" y="512" type="curve" smooth="yes"/>
			<point x="621" y="554"/>
			<point x="643" y="569"/>
			<point x="690" y="568" type="curve"/>
			<point x="683" y="617" type="line"/>
			<point x="636" y="611"/>
			<point x="604" y="611"/>
			<point x="573" y="611" type="curve" smooth="yes"/>
			<point x="517" y="611"/>
			<point x="487" y="613"/>
			<point x="444" y="616" type="curve"/>
			<point x="446" y="609"/>
			<point x="449" y="579"/>
			<point x="451" y="567" type="curve"/>
			<point x="505" y="567"/>
			<point x="530" y="557"/>
			<point x="535" y="487" type="curve" smooth="yes"/>
			<point x="542" y="391"/>
			<point x="544" y="136"/>
			<point x="530" y="74" type="curve"/>
			<point x="549" y="54" type="line"/>
			<point x="536" y="73"/>
			<point x="526" y="172"/>
			<point x="504" y="205" type="curve" smooth="yes"/>
			<point x="410" y="338"/>
			<point x="273" y="542"/>
			<point x="226" y="614" type="curve"/>
			<point x="146" y="612"/>
			<point x="98" y="611"/>
			<point x="22" y="616" type="curve"/>
			<point x="23" y="609"/>
			<point x="25" y="579"/>
			<point x="28" y="567" type="curve"/>
			<point x="82" y="567"/>
			<point x="111" y="542"/>
			<point x="112" y="487" type="curve" smooth="yes"/>
			<point x="113" y="361"/>
			<point x="112" y="210"/>
			<point x="106" y="125" type="curve" smooth="yes"/>
			<point x="102" y="61"/>
			<point x="80" y="48"/>
			<point x="24" y="47" type="curve"/>
			<point x="30" y="-1" type="line"/>
			<point x="269" y="0" type="line"/>
			<point x="262" y="43" type="line"/>
			<point x="222" y="43"/>
			<point x="193" y="55"/>
			<point x="185" y="109" type="curve" smooth="yes"/>
			<point x="180" y="145"/>
			<point x="177" y="399"/>
			<point x="186" y="539" type="curve"/>
			<point x="186" y="539"/>
			<point x="173" y="559"/>
			<point x="177" y="554" type="curve"/>
			<point x="180" y="550"/>
			<point x="219" y="446"/>
			<point x="222" y="442" type="curve"/>
			<point x="329" y="295"/>
			<point x="400" y="184"/>
			<point x="531" y="-13" type="curve"/>
		</contour>
	</outline>
</glyph>
<glyph name="O" format="1">
	<unicode hex="004F"/>
	<advance width="630"/>
	<outline>
		<contour>
			<point x="480" y="-12"/>
			<point x="592" y="119"/>
			<point x="592" y="336" type="curve" smooth="yes"/>
			<point x="592" y="522"/>
			<point x="472" y="619"/>
			<point x="345" y="619" type="curve" smooth="yes"/>
			<point x="160" y="619"/>
			<point x="36" y="477"/>
			<point x="36" y="263" type="curve" smooth="yes"/>
			<point x="36" y="117"/>
			<point x="128" y="-12"/>
			<point x="303" y="-12" type="curve" smooth="yes"/>
		</contour>
		<contour>
			<point x="192" y="47"/>
			<point x="129" y="156"/>
			<point x="129" y="304" type="curve" smooth="yes"/>
			<point x="129" y="486"/>
			<point x="228" y="564"/>
			<point x="308" y="565" type="curve" smooth="yes"/>
			<point x="418" y="567"/>
			<point x="493" y="460"/>
			<point x="494" y="321" type="curve" smooth="yes"/>
			<point x="494" y="162"/>
			<point x="427" y="47"/>
			<point x="317" y="47" type="curve" smooth="yes"/>
		</contour>
	</outline>
</glyph>
<glyph name="P" format="1">
	<unicode hex="0050"/>
	<advance width="520"/>
	<outline>
		<contour>
			<point x="92" y="0"/>
			<point x="218" y="-1"/>
			<point x="270" y="0" type="curve"/>
			<point x="260" y="43" type="line"/>
			<point x="219" y="43"/>
			<point x="192" y="52"/>
			<point x="187" y="96" type="curve" smooth="yes"/>
			<point x="182" y="139"/>
			<point x="182" y="201"/>
			<point x="182" y="280" type="curve"/>
			<point x="182" y="280"/>
			<point x="154" y="264"/>
			<point x="162" y="263" type="curve"/>
			<point x="176" y="254"/>
			<point x="227" y="249"/>
			<point x="254" y="249" type="curve" smooth="yes"/>
			<point x="399" y="249"/>
			<point x="492" y="340"/>
			<point x="491" y="466" type="curve" smooth="yes"/>
			<point x="490" y="551"/>
			<point x="435" y="619"/>
			<point x="309" y="619" type="curve" smooth="yes"/>
			<point x="199" y="619"/>
			<point x="119" y="608"/>
			<point x="18" y="615" type="curve"/>
			<point x="22" y="567" type="line"/>
			<point x="88" y="564"/>
			<point x="99" y="529"/>
			<point x="101" y="484" type="curve" smooth="yes"/>
			<point x="105" y="400"/>
			<point x="112" y="266"/>
			<point x="98" y="101" type="curve" smooth="yes"/>
			<point x="95" y="62"/>
			<point x="80" y="47"/>
			<point x="27" y="47" type="curve"/>
			<point x="35" y="0" type="line"/>
		</contour>
		<contour>
			<point x="240" y="298"/>
			<point x="205" y="311"/>
			<point x="184" y="324" type="curve"/>
			<point x="185" y="400"/>
			<point x="182" y="503"/>
			<point x="188" y="563" type="curve"/>
			<point x="203" y="570"/>
			<point x="228" y="577"/>
			<point x="257" y="576" type="curve" smooth="yes"/>
			<point x="353" y="574"/>
			<point x="407" y="529"/>
			<point x="406" y="442" type="curve" smooth="yes"/>
			<point x="405" y="372"/>
			<point x="370" y="299"/>
			<point x="276" y="298" type="curve" smooth="yes"/>
		</contour>
	</outline>
</glyph>
<glyph name="Q" format="1">
	<unicode hex="0051"/>
	<advance width="842"/>
	<outline>
		<contour>
			<point x="768" y="-240"/>
			<point x="835" y="-234"/>
			<point x="898" y="-214" type="curve"/>
			<point x="908" y="-130" type="line"/>
			<point x="892" y="-96" type="line"/>
			<point x="892" y="-96"/>
			<point x="803" y="-130"/>
			<point x="680" y="-128" type="curve" smooth="yes"/>
			<point x="567" y="-126"/>
			<point x="361" y="-80"/>
			<point x="305" y="21" type="curve"/>
			<point x="234" y="12" type="line"/>
			<point x="263" y="-58"/>
			<point x="411" y="-235"/>
			<point x="655" y="-239" type="curve" smooth="yes"/>
		</contour>
		<component base="O"/>
	</outline>
</glyph>
<glyph name="R" format="1">
	<unicode hex="0052"/>
	<advance width="609"/>
	<outline>
		<contour>
			<point x="33" y="568" type="line"/>
			<point x="99" y="566"/>
			<point x="110" y="531"/>
			<point x="112" y="486" type="curve" smooth="yes"/>
			<point x="119" y="363"/>
			<point x="116" y="266"/>
			<point x="109" y="101" type="curve" smooth="yes"/>
			<point x="108" y="62"/>
			<point x="92" y="47"/>
			<point x="39" y="47" type="curve"/>
			<point x="46" y="0" type="line"/>
			<point x="282" y="0" type="line"/>
			<point x="272" y="43" type="line"/>
			<point x="231" y="43"/>
			<point x="203" y="52"/>
			<point x="199" y="96" type="curve" smooth="yes"/>
			<point x="194" y="139"/>
			<point x="193" y="236"/>
			<point x="194" y="314" type="curve"/>
			<point x="174" y="283" type="line"/>
			<point x="189" y="279"/>
			<point x="243" y="272"/>
			<point x="282" y="272" type="curve" smooth="yes"/>
			<point x="396" y="273"/>
			<point x="508" y="349"/>
			<point x="507" y="475" type="curve" smooth="yes"/>
			<point x="506" y="560"/>
			<point x="458" y="621"/>
			<point x="340" y="621" type="curve" smooth="yes"/>
			<point x="232" y="621"/>
			<point x="136" y="610"/>
			<point x="29" y="617" type="curve"/>
		</contour>
		<contour>
			<point x="352" y="139"/>
			<point x="427" y="32"/>
			<point x="464" y="0" type="curve"/>
			<point x="599" y="0" type="line"/>
			<point x="590" y="47" type="line"/>
			<point x="517" y="46"/>
			<point x="409" y="249"/>
			<point x="359" y="329" type="curve"/>
			<point x="280" y="308" type="line"/>
		</contour>
		<contour>
			<point x="217" y="571"/>
			<point x="243" y="576"/>
			<point x="279" y="575" type="curve" smooth="yes"/>
			<point x="379" y="574"/>
			<point x="421" y="533"/>
			<point x="420" y="454" type="curve" smooth="yes"/>
			<point x="420" y="388"/>
			<point x="381" y="326"/>
			<point x="290" y="323" type="curve" smooth="yes"/>
			<point x="259" y="323"/>
			<point x="219" y="330"/>
			<point x="196" y="336" type="curve"/>
			<point x="196" y="413"/>
			<point x="193" y="504"/>
			<point x="199" y="564" type="curve"/>
		</contour>
	</outline>
</glyph>
<glyph name="S" format="1">
	<unicode hex="0053"/>
	<advance width="469"/>
	<outline>
		<contour>
			<point x="366" y="-9"/>
			<point x="420" y="88"/>
			<point x="420" y="170" type="curve" smooth="yes"/>
			<point x="420" y="349"/>
			<point x="149" y="392"/>
			<point x="149" y="501" type="curve" smooth="yes"/>
			<point x="149" y="544"/>
			<point x="182" y="575"/>
			<point x="233" y="575" type="curve" smooth="yes"/>
			<point x="311" y="575"/>
			<point x="336" y="511"/>
			<point x="351" y="493" type="curve"/>
			<point x="297" y="609" type="line"/>
			<point x="318" y="561"/>
			<point x="332" y="505"/>
			<point x="333" y="468" type="curve"/>
			<point x="404" y="460" type="line"/>
			<point x="407" y="481"/>
			<point x="410" y="514"/>
			<point x="410" y="547" type="curve" smooth="yes"/>
			<point x="410" y="566"/>
			<point x="409" y="584"/>
			<point x="407" y="598" type="curve"/>
			<point x="407" y="598"/>
			<point x="344" y="623"/>
			<point x="259" y="623" type="curve" smooth="yes"/>
			<point x="125" y="623"/>
			<point x="63" y="546"/>
			<point x="63" y="466" type="curve" smooth="yes"/>
			<point x="63" y="318"/>
			<point x="326" y="291"/>
			<point x="326" y="145" type="curve" smooth="yes"/>
			<point x="326" y="98"/>
			<point x="293" y="46"/>
			<point x="224" y="45" type="curve" smooth="yes"/>
			<point x="152" y="45"/>
			<point x="135" y="78"/>
			<point x="104" y="114" type="curve"/>
			<point x="112" y="72"/>
			<point x="106" y="47"/>
			<point x="152" y="36" type="curve"/>
			<point x="122" y="70"/>
			<point x="120" y="106"/>
			<point x="117" y="152" type="curve"/>
			<point x="49" y="160" type="line"/>
			<point x="43" y="121"/>
			<point x="40" y="89"/>
			<point x="40" y="55" type="curve" smooth="yes"/>
			<point x="40" y="39"/>
			<point x="41" y="25"/>
			<point x="42" y="13" type="curve"/>
			<point x="42" y="13"/>
			<point x="102" y="-11"/>
			<point x="210" y="-10" type="curve" smooth="yes"/>
		</contour>
	</outline>
</glyph>
<glyph name="T" format="1">
	<unicode hex="0054"/>
	<advance width="691"/>
	<outline>
		<contour>
			<point x="488" y="0" type="line"/>
			<point x="477" y="65" type="line"/>
			<point x="450" y="63"/>
			<point x="396" y="67"/>
			<point x="391" y="129" type="curve" smooth="yes"/>
			<point x="377" y="302"/>
			<point x="387" y="572"/>
			<point x="414" y="780" type="curve"/>
			<point x="414" y="780"/>
			<point x="273" y="757"/>
			<point x="210" y="759" type="curve"/>
			<point x="217" y="746" type="line"/>
			<point x="247" y="746"/>
			<point x="270" y="743"/>
			<point x="274" y="699" type="curve" smooth="yes"/>
			<point x="284" y="572"/>
			<point x="286" y="326"/>
			<point x="268" y="146" type="curve" smooth="yes"/>
			<point x="263" y="99"/>
			<point x="229" y="63"/>
			<point x="159" y="61" type="curve"/>
			<point x="164" y="0" type="line"/>
		</contour>
		<contour>
			<point x="669" y="602"/>
			<point x="679" y="773"/>
			<point x="681" y="801" type="curve"/>
			<point x="579" y="793"/>
			<point x="403" y="792"/>
			<point x="334" y="792" type="curve" smooth="yes"/>
			<point x="216" y="792"/>
			<point x="129" y="794"/>
			<point x="21" y="800" type="curve"/>
			<point x="20" y="743"/>
			<point x="13" y="651"/>
			<point x="8" y="604" type="curve"/>
			<point x="91" y="615" type="line"/>
			<point x="105" y="651"/>
			<point x="113" y="725"/>
			<point x="151" y="761" type="curve"/>
			<point x="97" y="720" type="line"/>
			<point x="134" y="719"/>
			<point x="243" y="724"/>
			<point x="334" y="724" type="curve" smooth="yes"/>
			<point x="419" y="724"/>
			<point x="518" y="729"/>
			<point x="607" y="698" type="curve"/>
			<point x="522" y="771" type="line"/>
			<point x="565" y="732"/>
			<point x="590" y="665"/>
			<point x="597" y="606" type="curve"/>
			<point x="669" y="598" type="line"/>
		</contour>
		<contour>
			<point name="center" x="336" y="375" type="move"/>
		</contour>
		<contour>
			<point name="bottom" x="329" y="0" type="move"/>
		</contour>
		<contour>
			<point name="top" x="346" y="870" type="move"/>
		</contour>
	</outline>
</glyph>
<glyph name="U" format="1">
  <advance width="591"/>
  <unicode hex="0055"/>
  <outline>
    <contour>
      <point x="377" y="-13"/>
      <point x="493" y="35"/>
      <point x="505" y="182" type="curve" smooth="yes"/>
      <point x="512" y="265"/>
      <point x="506" y="384"/>
      <point x="513" y="511" type="curve" smooth="yes"/>
      <point x="515" y="551"/>
      <point x="536" y="564"/>
      <point x="590" y="566" type="curve"/>
      <point x="588" y="581"/>
      <point x="584" y="616"/>
      <point x="584" y="616" type="curve"/>
      <point x="551" y="614"/>
      <point x="504" y="613"/>
      <point x="457" y="613" type="curve" smooth="yes"/>
      <point x="420" y="613"/>
      <point x="381" y="614"/>
      <point x="347" y="615" type="curve"/>
      <point x="349" y="608"/>
      <point x="352" y="583"/>
      <point x="354" y="571" type="curve"/>
      <point x="408" y="571"/>
      <point x="444" y="564"/>
      <point x="444" y="494" type="curve" smooth="yes"/>
      <point x="444" y="494" type="line" smooth="yes"/>
      <point x="445" y="437"/>
      <point x="447" y="380"/>
      <point x="447" y="324" type="curve" smooth="yes"/>
      <point x="447" y="284"/>
      <point x="446" y="245"/>
      <point x="443" y="206" type="curve" smooth="yes"/>
      <point x="436" y="113"/>
      <point x="387" y="47"/>
      <point x="295" y="47" type="curve" smooth="yes"/>
      <point x="201" y="47"/>
      <point x="159" y="109"/>
      <point x="152" y="194" type="curve" smooth="yes"/>
      <point x="152" y="205"/>
      <point x="151" y="229"/>
      <point x="151" y="260" type="curve" smooth="yes"/>
      <point x="151" y="325"/>
      <point x="153" y="420"/>
      <point x="158" y="487" type="curve" smooth="yes"/>
      <point x="162" y="538"/>
      <point x="174" y="562"/>
      <point x="252" y="567" type="curve"/>
      <point x="249" y="581"/>
      <point x="246" y="617"/>
      <point x="246" y="617" type="curve"/>
      <point x="199" y="614"/>
      <point x="157" y="613"/>
      <point x="116" y="613" type="curve" smooth="yes"/>
      <point x="72" y="613"/>
      <point x="29" y="614"/>
      <point x="-17" y="616" type="curve"/>
      <point x="-15" y="609"/>
      <point x="-12" y="580"/>
      <point x="-10" y="567" type="curve"/>
      <point x="54" y="568"/>
      <point x="65" y="547"/>
      <point x="69" y="493" type="curve" smooth="yes"/>
      <point x="69" y="483"/>
      <point x="69" y="470"/>
      <point x="69" y="457" type="curve" smooth="yes"/>
      <point x="69" y="382"/>
      <point x="63" y="259"/>
      <point x="63" y="179" type="curve" smooth="yes"/>
      <point x="63" y="21"/>
      <point x="189" y="-13"/>
      <point x="278" y="-13" type="curve" smooth="yes"/>
    </contour>
  </outline>
</glyph>
<glyph name="V" format="2">
	<unicode hex="0056"/>
	<advance width="636"/>
	<outline>
		<contour>
			<point x="290" y="-8"/>
			<point x="329" y="2"/>
			<point x="359" y="6" type="curve"/>
			<point x="404" y="145"/>
			<point x="478" y="330"/>
			<point x="550" y="511" type="curve" smooth="yes"/>
			<point x="564" y="549"/>
			<point x="581" y="575"/>
			<point x="644" y="568" type="curve"/>
			<point x="636" y="615" type="line"/>
			<point x="557" y="608"/>
			<point x="472" y="612"/>
			<point x="387" y="615" type="curve"/>
			<point x="394" y="576" type="line"/>
			<point x="431" y="577"/>
			<point x="493" y="578"/>
			<point x="477" y="504" type="curve" smooth="yes"/>
			<point x="465" y="455"/>
			<point x="370" y="206"/>
			<point x="316" y="59" type="curve"/>
			<point x="313" y="90"/>
			<point x="304" y="153"/>
			<point x="298" y="183" type="curve"/>
			<point x="265" y="290"/>
			<point x="216" y="428"/>
			<point x="190" y="520" type="curve" smooth="yes"/>
			<point x="178" y="565"/>
			<point x="216" y="574"/>
			<point x="270" y="566" type="curve"/>
			<point x="263" y="615" type="line"/>
			<point x="199" y="611"/>
			<point x="90" y="611"/>
			<point x="4" y="615" type="curve"/>
			<point x="12" y="573" type="line"/>
			<point x="64" y="581"/>
			<point x="80" y="543"/>
			<point x="93" y="515" type="curve"/>
			<point x="170" y="309"/>
			<point x="213" y="144"/>
			<point x="260" y="-18" type="curve"/>
		</contour>
	</outline>
</glyph>
<glyph name="W" format="1">
	<unicode hex="0057"/>
	<advance width="971"/>
	<outline>
		<contour>
			<point x="633" y="-8"/>
			<point x="665" y="2"/>
			<point x="695" y="6" type="curve"/>
			<point x="738" y="145"/>
			<point x="810" y="331"/>
			<point x="866" y="511" type="curve" smooth="yes"/>
			<point x="879" y="551"/>
			<point x="897" y="568"/>
			<point x="952" y="569" type="curve"/>
			<point x="944" y="616" type="line"/>
			<point x="715" y="616" type="line"/>
			<point x="722" y="572" type="line"/>
			<point x="782" y="573"/>
			<point x="805" y="567"/>
			<point x="796" y="513" type="curve" smooth="yes"/>
			<point x="788" y="464"/>
			<point x="700" y="228"/>
			<point x="651" y="77" type="curve"/>
			<point x="649" y="104"/>
			<point x="651" y="148"/>
			<point x="644" y="173" type="curve"/>
			<point x="611" y="285"/>
			<point x="574" y="424"/>
			<point x="547" y="520" type="curve" smooth="yes"/>
			<point x="535" y="565"/>
			<point x="571" y="567"/>
			<point x="621" y="566" type="curve"/>
			<point x="614" y="615" type="line"/>
			<point x="361" y="615" type="line"/>
			<point x="367" y="573" type="line"/>
			<point x="420" y="574"/>
			<point x="437" y="547"/>
			<point x="452" y="500" type="curve" smooth="yes"/>
			<point x="517" y="298"/>
			<point x="556" y="139"/>
			<point x="603" y="-18" type="curve"/>
		</contour>
		<contour>
			<point x="270" y="-8"/>
			<point x="306" y="2"/>
			<point x="336" y="6" type="curve"/>
			<point x="394" y="145"/>
			<point x="472" y="315"/>
			<point x="536" y="487" type="curve"/>
			<point x="464" y="477" type="line"/>
			<point x="446" y="429"/>
			<point x="363" y="236"/>
			<point x="296" y="82" type="curve"/>
			<point x="290" y="109"/>
			<point x="289" y="159"/>
			<point x="283" y="184" type="curve"/>
			<point x="249" y="296"/>
			<point x="207" y="425"/>
			<point x="181" y="521" type="curve" smooth="yes"/>
			<point x="169" y="567"/>
			<point x="215" y="570"/>
			<point x="263" y="568" type="curve"/>
			<point x="255" y="617" type="line"/>
			<point x="187" y="614"/>
			<point x="62" y="614"/>
			<point x="-5" y="617" type="curve"/>
			<point x="3" y="567" type="line"/>
			<point x="55" y="569"/>
			<point x="69" y="544"/>
			<point x="85" y="501" type="curve" smooth="yes"/>
			<point x="155" y="300"/>
			<point x="193" y="139"/>
			<point x="239" y="-18" type="curve"/>
		</contour>
	</outline>
</glyph>
<glyph name="X" format="1">
	<unicode hex="0058"/>
	<advance width="620"/>
	<outline>
		<contour>
			<point x="245" y="1" type="line"/>
			<point x="238" y="47" type="line"/>
			<point x="167" y="47"/>
			<point x="179" y="90"/>
			<point x="200" y="126" type="curve" smooth="yes"/>
			<point x="232" y="181"/>
			<point x="278" y="249"/>
			<point x="320" y="294" type="curve"/>
			<point x="334" y="304" type="line"/>
			<point x="362" y="344"/>
			<point x="419" y="426"/>
			<point x="460" y="482" type="curve" smooth="yes"/>
			<point x="501" y="537"/>
			<point x="534" y="567"/>
			<point x="594" y="567" type="curve"/>
			<point x="588" y="617" type="line"/>
			<point x="521" y="611"/>
			<point x="425" y="611"/>
			<point x="350" y="617" type="curve"/>
			<point x="356" y="563" type="line"/>
			<point x="411" y="562"/>
			<point x="432" y="554"/>
			<point x="402" y="505" type="curve" smooth="yes"/>
			<point x="377" y="465"/>
			<point x="332" y="394"/>
			<point x="293" y="344" type="curve"/>
			<point x="263" y="323" type="line"/>
			<point x="223" y="258"/>
			<point x="149" y="153"/>
			<point x="117" y="113" type="curve" smooth="yes"/>
			<point x="91" y="81"/>
			<point x="72" y="51"/>
			<point x="5" y="51" type="curve"/>
			<point x="11" y="1" type="line"/>
		</contour>
		<contour>
			<point x="588" y="1" type="line"/>
			<point x="575" y="48" type="line"/>
			<point x="495" y="48"/>
			<point x="484" y="74"/>
			<point x="323" y="342" type="curve" smooth="yes"/>
			<point x="310" y="361"/>
			<point x="263" y="447"/>
			<point x="230" y="503" type="curve" smooth="yes"/>
			<point x="208" y="541"/>
			<point x="205" y="566"/>
			<point x="283" y="567" type="curve"/>
			<point x="275" y="616" type="line"/>
			<point x="199" y="615"/>
			<point x="97" y="610"/>
			<point x="15" y="617" type="curve"/>
			<point x="22" y="565" type="line"/>
			<point x="93" y="565"/>
			<point x="95" y="547"/>
			<point x="136" y="481" type="curve" smooth="yes"/>
			<point x="182" y="404"/>
			<point x="219" y="346"/>
			<point x="253" y="287" type="curve"/>
			<point x="266" y="272" type="line"/>
			<point x="292" y="227"/>
			<point x="331" y="156"/>
			<point x="357" y="110" type="curve" smooth="yes"/>
			<point x="387" y="56"/>
			<point x="350" y="49"/>
			<point x="306" y="48" type="curve"/>
			<point x="315" y="1" type="line"/>
		</contour>
	</outline>
</glyph>
<glyph name="Y" format="1">
  <advance width="558"/>
  <unicode hex="0059"/>
  <outline>
    <contour>
      <point x="260" y="239"/>
      <point x="290" y="246"/>
      <point x="313" y="248" type="curve"/>
      <point x="341" y="310"/>
      <point x="403" y="389"/>
      <point x="477" y="510" type="curve" smooth="yes"/>
      <point x="500" y="547"/>
      <point x="522" y="571"/>
      <point x="568" y="573" type="curve"/>
      <point x="560" y="618" type="line"/>
      <point x="485" y="614"/>
      <point x="411" y="613"/>
      <point x="336" y="618" type="curve"/>
      <point x="343" y="569" type="line"/>
      <point x="396" y="571"/>
      <point x="436" y="556"/>
      <point x="412" y="512" type="curve" smooth="yes"/>
      <point x="367" y="429"/>
      <point x="314" y="352"/>
      <point x="280" y="296" type="curve"/>
      <point x="255" y="376" type="line"/>
      <point x="227" y="426"/>
      <point x="204" y="478"/>
      <point x="186" y="516" type="curve" smooth="yes"/>
      <point x="165" y="557"/>
      <point x="180" y="571"/>
      <point x="239" y="576" type="curve"/>
      <point x="228" y="618" type="line"/>
      <point x="140" y="615"/>
      <point x="75" y="614"/>
      <point x="-12" y="618" type="curve"/>
      <point x="-6" y="573" type="line"/>
      <point x="30" y="574"/>
      <point x="59" y="562"/>
      <point x="85" y="514" type="curve" smooth="yes"/>
      <point x="164" y="370"/>
      <point x="193" y="310"/>
      <point x="234" y="231" type="curve"/>
    </contour>
    <contour>
      <point x="407" y="0" type="line"/>
      <point x="390" y="53" type="line"/>
      <point x="350" y="48"/>
      <point x="334" y="56"/>
      <point x="326" y="94" type="curve" smooth="yes"/>
      <point x="317" y="130"/>
      <point x="307" y="187"/>
      <point x="324" y="296" type="curve"/>
      <point x="223" y="287" type="line"/>
      <point x="234" y="192"/>
      <point x="233" y="151"/>
      <point x="228" y="112" type="curve" smooth="yes"/>
      <point x="223" y="72"/>
      <point x="206" y="42"/>
      <point x="150" y="53" type="curve"/>
      <point x="156" y="-1" type="line"/>
    </contour>
  </outline>
</glyph>
<glyph name="Z" format="1">
	<unicode hex="005A"/>
	<advance width="563"/>
	<outline>
		<contour>
			<point x="527" y="0" type="line"/>
			<point x="527" y="62" type="line" smooth="yes"/>
			<point x="527" y="107"/>
			<point x="525" y="163"/>
			<point x="525" y="163" type="curve"/>
			<point x="462" y="157" type="line"/>
			<point x="459" y="128"/>
			<point x="451" y="90"/>
			<point x="437" y="61" type="curve"/>
			<point x="400" y="55"/>
			<point x="309" y="55"/>
			<point x="246" y="56" type="curve" smooth="yes"/>
			<point x="199" y="57"/>
			<point x="136" y="59"/>
			<point x="112" y="82" type="curve"/>
			<point x="144" y="43" type="line"/>
			<point x="159" y="57"/>
			<point x="443" y="517"/>
			<point x="511" y="569" type="curve"/>
			<point x="505" y="616" type="line"/>
			<point x="447" y="613"/>
			<point x="318" y="614"/>
			<point x="254" y="614" type="curve" smooth="yes"/>
			<point x="188" y="614"/>
			<point x="97" y="614"/>
			<point x="61" y="616" type="curve"/>
			<point x="62" y="554" type="line" smooth="yes"/>
			<point x="62" y="508"/>
			<point x="65" y="452"/>
			<point x="65" y="452" type="curve"/>
			<point x="129" y="458" type="line"/>
			<point x="132" y="490"/>
			<point x="141" y="528"/>
			<point x="159" y="559" type="curve"/>
			<point x="203" y="562"/>
			<point x="288" y="564"/>
			<point x="344" y="564" type="curve" smooth="yes"/>
			<point x="383" y="564"/>
			<point x="379" y="554"/>
			<point x="370" y="541" type="curve" smooth="yes"/>
			<point x="293" y="417"/>
			<point x="95" y="106"/>
			<point x="22" y="55" type="curve"/>
			<point x="21" y="35"/>
			<point x="27" y="11"/>
			<point x="26" y="0" type="curve"/>
		</contour>
	</outline>
</glyph>
<glyph name="bracketleft" format="1">
	<unicode hex="005B"/>
	<advance width="338"/>
	<outline>
		<contour>
			<point x="132" y="47"/>
			<point x="134" y="457"/>
			<point x="142" y="584" type="curve"/>
			<point x="112" y="568" type="line"/>
			<point x="295" y="568" type="line"/>
			<point x="297" y="598"/>
			<point x="298" y="607"/>
			<point x="299" y="633" type="curve"/>
			<point x="237" y="631"/>
			<point x="116" y="633"/>
			<point x="62" y="633" type="curve"/>
			<point x="66" y="518"/>
			<point x="66" y="67"/>
			<point x="62" y="-124" type="curve"/>
			<point x="62" y="-124" type="line"/>
			<point x="62" y="-125" type="line"/>
			<point x="133" y="-123"/>
			<point x="220" y="-119"/>
			<point x="299" y="-125" type="curve"/>
			<point x="296" y="-96"/>
			<point x="295" y="-85"/>
			<point x="291" y="-52" type="curve"/>
			<point x="240" y="-54"/>
			<point x="165" y="-55"/>
			<point x="111" y="-52" type="curve"/>
			<point x="142" y="-83" type="line"/>
		</contour>
	</outline>
</glyph>
<glyph name="backslash" format="1">
	<unicode hex="005C"/>
	<advance width="462"/>
	<outline>
		<contour>
			<point x="286" y="175"/>
			<point x="182" y="412"/>
			<point x="85" y="648" type="curve"/>
			<point x="7" y="651" type="line"/>
			<point x="71" y="521"/>
			<point x="237" y="167"/>
			<point x="332" y="-62" type="curve"/>
			<point x="406" y="-62" type="line"/>
		</contour>
	</outline>
</glyph>
<glyph name="bracketright" format="1">
	<unicode hex="005D"/>
	<advance width="462"/>
	<outline>
		<contour>
			<point x="249" y="-52" type="line"/>
			<point x="196" y="-55"/>
			<point x="120" y="-54"/>
			<point x="69" y="-52" type="curve"/>
			<point x="65" y="-85"/>
			<point x="64" y="-96"/>
			<point x="62" y="-125" type="curve"/>
			<point x="140" y="-119"/>
			<point x="227" y="-123"/>
			<point x="298" y="-125" type="curve"/>
			<point x="298" y="-124" type="line"/>
			<point x="299" y="-124" type="line"/>
			<point x="294" y="67"/>
			<point x="294" y="518"/>
			<point x="298" y="633" type="curve"/>
			<point x="244" y="633"/>
			<point x="123" y="631"/>
			<point x="62" y="633" type="curve"/>
			<point x="62" y="607"/>
			<point x="63" y="598"/>
			<point x="65" y="568" type="curve"/>
			<point x="248" y="568" type="line"/>
			<point x="218" y="584" type="line"/>
			<point x="226" y="457"/>
			<point x="228" y="47"/>
			<point x="219" y="-83" type="curve"/>
		</contour>
	</outline>
</glyph>
<glyph name="asciicircum" format="1">
	<unicode hex="005E"/>
	<advance width="375"/>
	<outline>
		<contour>
			<point x="146" y="794"/>
			<point x="194" y="857"/>
			<point x="212" y="886" type="curve"/>
			<point x="191" y="885" type="line"/>
			<point x="211" y="860"/>
			<point x="273" y="776"/>
			<point x="314" y="726" type="curve"/>
			<point x="336" y="740"/>
			<point x="365" y="765"/>
			<point x="382" y="791" type="curve"/>
			<point x="351" y="815"/>
			<point x="241" y="921"/>
			<point x="202" y="965" type="curve"/>
			<point x="166" y="916"/>
			<point x="85" y="824"/>
			<point x="35" y="764" type="curve"/>
			<point x="53" y="750"/>
			<point x="73" y="736"/>
			<point x="97" y="722" type="curve"/>
		</contour>
	</outline>
</glyph>
<glyph name="underscore" format="1">
  <advance width="515"/>
  <unicode hex="005F"/>
  <outline>
    <contour>
      <point x="477" y="1" type="line"/>
      <point x="478" y="27"/>
      <point x="483" y="53"/>
      <point x="484" y="74" type="curve"/>
      <point x="352" y="69"/>
      <point x="186" y="66"/>
      <point x="41" y="74" type="curve"/>
      <point x="30" y="1" type="line"/>
    </contour>
  </outline>
</glyph>
<glyph name="grave" format="1">
	<unicode hex="0060"/>
	<outline>
		<contour>
			<point x="121" y="960" type="line"/>
			<point x="72" y="996"/>
			<point x="-42" y="1080"/>
			<point x="-96" y="1135" type="curve"/>
			<point x="-121" y="1118"/>
			<point x="-157" y="1078"/>
			<point x="-163" y="1043" type="curve"/>
			<point x="-110" y="1001"/>
			<point x="24" y="920"/>
			<point x="90" y="891" type="curve"/>
		</contour>
	</outline>
</glyph>
<glyph name="a" format="1">
	<unicode hex="0061"/>
	<advance width="622"/>
	<outline>
		<contour>
			<point x="40" y="32"/>
			<point x="118" y="-13"/>
			<point x="203" y="-13" type="curve" smooth="yes"/>
			<point x="378" y="-13"/>
			<point x="433" y="119"/>
			<point x="433" y="119" type="curve"/>
			<point x="405" y="161" type="line"/>
			<point x="399" y="121"/>
			<point x="341" y="63"/>
			<point x="260" y="63" type="curve" smooth="yes"/>
			<point x="202" y="63"/>
			<point x="167" y="98"/>
			<point x="167" y="155" type="curve" smooth="yes"/>
			<point x="167" y="231"/>
			<point x="229" y="291"/>
			<point x="329" y="291" type="curve" smooth="yes"/>
			<point x="387" y="291"/>
			<point x="431" y="273"/>
			<point x="431" y="273" type="curve"/>
			<point x="431" y="356" type="line"/>
			<point x="431" y="356"/>
			<point x="357" y="352"/>
			<point x="265" y="331" type="curve" smooth="yes"/>
			<point x="110" y="296"/>
			<point x="40" y="226"/>
			<point x="40" y="125" type="curve" smooth="yes"/>
		</contour>
		<contour>
			<point x="80" y="539"/>
			<point x="79" y="519"/>
			<point x="79" y="491" type="curve" smooth="yes"/>
			<point x="79" y="462"/>
			<point x="80" y="426"/>
			<point x="83" y="392" type="curve"/>
			<point x="171" y="401" type="line"/>
			<point x="177" y="466"/>
			<point x="194" y="512"/>
			<point x="215" y="557" type="curve"/>
			<point x="163" y="474" type="line"/>
			<point x="195" y="508"/>
			<point x="224" y="554"/>
			<point x="295" y="554" type="curve" smooth="yes"/>
			<point x="336" y="554"/>
			<point x="381" y="533"/>
			<point x="399" y="457" type="curve" smooth="yes"/>
			<point x="405" y="430"/>
			<point x="408" y="374"/>
			<point x="408" y="312" type="curve" smooth="yes"/>
			<point x="408" y="241"/>
			<point x="404" y="162"/>
			<point x="398" y="114" type="curve"/>
			<point x="408" y="114" type="line"/>
			<point x="412" y="38"/>
			<point x="431" y="-11"/>
			<point x="507" y="-11" type="curve" smooth="yes"/>
			<point x="551" y="-11"/>
			<point x="591" y="8"/>
			<point x="606" y="16" type="curve"/>
			<point x="595" y="55" type="line"/>
			<point x="582" y="54" type="line"/>
			<point x="511" y="54"/>
			<point x="511" y="130"/>
			<point x="511" y="210" type="curve" smooth="yes"/>
			<point x="511" y="293"/>
			<point x="518" y="380"/>
			<point x="517" y="443" type="curve" smooth="yes"/>
			<point x="514" y="571"/>
			<point x="465" y="611"/>
			<point x="336" y="611" type="curve" smooth="yes"/>
			<point x="227" y="611"/>
			<point x="129" y="566"/>
			<point x="80" y="539" type="curve"/>
		</contour>
		<contour>
			<point name="ogonek" x="510" y="10" type="move"/>
		</contour>
		<contour>
			<point name="top" x="311" y="690" type="move"/>
		</contour>
	</outline>
</glyph>
<glyph name="b" format="1">
	<unicode hex="0062"/>
	<advance width="530"/>
	<outline>
		<contour>
			<point x="419" y="-8"/>
			<point x="487" y="139"/>
			<point x="491" y="265" type="curve" smooth="yes"/>
			<point x="495" y="403"/>
			<point x="417" y="472"/>
			<point x="321" y="472" type="curve" smooth="yes"/>
			<point x="256" y="472"/>
			<point x="178" y="431"/>
			<point x="141" y="344" type="curve"/>
			<point x="164" y="311" type="line"/>
			<point x="192" y="376"/>
			<point x="243" y="410"/>
			<point x="286" y="411" type="curve" smooth="yes"/>
			<point x="337" y="412"/>
			<point x="396" y="372"/>
			<point x="395" y="266" type="curve" smooth="yes"/>
			<point x="394" y="126"/>
			<point x="341" y="37"/>
			<point x="256" y="39" type="curve" smooth="yes"/>
			<point x="173" y="39"/>
			<point x="130" y="109"/>
			<point x="130" y="109" type="curve"/>
			<point x="79" y="17" type="line"/>
			<point x="112" y="4"/>
			<point x="166" y="-10"/>
			<point x="242" y="-9" type="curve" smooth="yes"/>
		</contour>
		<contour>
			<point x="176" y="51" type="line"/>
			<point x="174" y="62"/>
			<point x="171" y="92"/>
			<point x="169" y="125" type="curve" smooth="yes"/>
			<point x="166" y="169"/>
			<point x="158" y="525"/>
			<point x="182" y="655" type="curve"/>
			<point x="182" y="655"/>
			<point x="51" y="638"/>
			<point x="-13" y="639" type="curve"/>
			<point x="-9" y="590" type="line"/>
			<point x="46" y="591"/>
			<point x="76" y="581"/>
			<point x="81" y="544" type="curve" smooth="yes"/>
			<point x="95" y="440"/>
			<point x="89" y="98"/>
			<point x="79" y="17" type="curve"/>
		</contour>
	</outline>
</glyph>
<glyph name="c" format="2">
	<unicode hex="0063"/>
	<advance width="447"/>
	<outline>
		<contour>
			<point x="34" y="320"/>
			<point x="115" y="470"/>
			<point x="294" y="470" type="curve" smooth="yes"/>
			<point x="364" y="470"/>
			<point x="408" y="447"/>
			<point x="408" y="447" type="curve"/>
			<point x="409" y="437"/>
			<point x="409" y="424"/>
			<point x="409" y="410" type="curve" smooth="yes"/>
			<point x="409" y="383"/>
			<point x="408" y="352"/>
			<point x="404" y="330" type="curve"/>
			<point x="358" y="334" type="line"/>
			<point x="342" y="367"/>
			<point x="327" y="397"/>
			<point x="290" y="424" type="curve"/>
			<point x="316" y="417"/>
			<point x="333" y="402"/>
			<point x="344" y="383" type="curve"/>
			<point x="327" y="397"/>
			<point x="293" y="418"/>
			<point x="253" y="418" type="curve" smooth="yes"/>
			<point x="175" y="418"/>
			<point x="128" y="333"/>
			<point x="128" y="216" type="curve" smooth="yes"/>
			<point x="128" y="108"/>
			<point x="185" y="41"/>
			<point x="280" y="41" type="curve" smooth="yes"/>
			<point x="331" y="41"/>
			<point x="374" y="62"/>
			<point x="403" y="86" type="curve"/>
			<point x="420" y="59" type="line"/>
			<point x="377" y="11"/>
			<point x="319" y="-16"/>
			<point x="246" y="-16" type="curve" smooth="yes"/>
			<point x="132" y="-16"/>
			<point x="34" y="40"/>
			<point x="34" y="198" type="curve" smooth="yes"/>
		</contour>
	</outline>
</glyph>
<glyph name="d" format="1">
	<unicode hex="0064"/>
	<advance width="574"/>
	<outline>
		<contour>
			<point x="493" y="-16"/>
			<point x="524" y="-6"/>
			<point x="551" y="10" type="curve"/>
			<point x="541" y="44" type="line"/>
			<point x="534" y="42"/>
			<point x="527" y="42"/>
			<point x="521" y="42" type="curve" smooth="yes"/>
			<point x="476" y="42"/>
			<point x="459" y="69"/>
			<point x="455" y="125" type="curve" smooth="yes"/>
			<point x="454" y="144"/>
			<point x="451" y="224"/>
			<point x="451" y="318" type="curve" smooth="yes"/>
			<point x="451" y="438"/>
			<point x="455" y="582"/>
			<point x="469" y="655" type="curve"/>
			<point x="469" y="655"/>
			<point x="349" y="639"/>
			<point x="282" y="639" type="curve" smooth="yes"/>
			<point x="273" y="639" type="line"/>
			<point x="277" y="590" type="line"/>
			<point x="283" y="590" type="line" smooth="yes"/>
			<point x="335" y="590"/>
			<point x="366" y="579"/>
			<point x="367" y="544" type="curve" smooth="yes"/>
			<point x="370" y="492"/>
			<point x="373" y="390"/>
			<point x="373" y="296" type="curve" smooth="yes"/>
			<point x="373" y="219"/>
			<point x="370" y="146"/>
			<point x="366" y="109" type="curve"/>
			<point x="373" y="76" type="line"/>
			<point x="373" y="34"/>
			<point x="391" y="-16"/>
			<point x="460" y="-16" type="curve" smooth="yes"/>
		</contour>
		<contour>
			<point x="310" y="-10"/>
			<point x="369" y="51"/>
			<point x="393" y="108" type="curve"/>
			<point x="370" y="139" type="line"/>
			<point x="354" y="100"/>
			<point x="313" y="52"/>
			<point x="253" y="52" type="curve" smooth="yes"/>
			<point x="176" y="52"/>
			<point x="139" y="120"/>
			<point x="139" y="201" type="curve" smooth="yes"/>
			<point x="139" y="328"/>
			<point x="197" y="420"/>
			<point x="288" y="420" type="curve" smooth="yes"/>
			<point x="344" y="420"/>
			<point x="383" y="385"/>
			<point x="383" y="385" type="curve"/>
			<point x="414" y="453" type="line"/>
			<point x="395" y="460"/>
			<point x="362" y="467"/>
			<point x="325" y="467" type="curve" smooth="yes"/>
			<point x="132" y="467"/>
			<point x="43" y="314"/>
			<point x="43" y="191" type="curve" smooth="yes"/>
			<point x="43" y="73"/>
			<point x="126" y="-10"/>
			<point x="236" y="-10" type="curve" smooth="yes"/>
		</contour>
	</outline>
</glyph>
<glyph name="e" format="1">
	<unicode hex="0065"/>
	<advance width="610"/>
	<outline>
		<contour>
			<point x="46" y="75"/>
			<point x="171" y="-21"/>
			<point x="330" y="-20" type="curve" smooth="yes"/>
			<point x="457" y="-19"/>
			<point x="525" y="55"/>
			<point x="541" y="76" type="curve"/>
			<point x="521" y="111" type="line"/>
			<point x="519" y="111"/>
			<point x="458" y="52"/>
			<point x="360" y="53" type="curve" smooth="yes"/>
			<point x="202" y="55"/>
			<point x="164" y="178"/>
			<point x="166" y="311" type="curve" smooth="yes"/>
			<point x="168" y="455"/>
			<point x="232" y="548"/>
			<point x="317" y="548" type="curve" smooth="yes"/>
			<point x="398" y="549"/>
			<point x="439" y="460"/>
			<point x="439" y="362" type="curve"/>
			<point x="375" y="361" type="line"/>
			<point x="137" y="338" type="line"/>
			<point x="153" y="290" type="line"/>
			<point x="562" y="292" type="line"/>
			<point x="584" y="498"/>
			<point x="477" y="603"/>
			<point x="335" y="601" type="curve" smooth="yes"/>
			<point x="185" y="599"/>
			<point x="46" y="484"/>
			<point x="46" y="256" type="curve" smooth="yes"/>
		</contour>
		<contour>
			<point name="ogonek" x="323" y="0" type="move"/>
		</contour>
		<contour>
			<point name="bottom" x="355" y="0" type="move"/>
		</contour>
		<contour>
			<point name="top" x="331" y="677" type="move"/>
		</contour>
	</outline>
</glyph>
<glyph name="f" format="1">
	<unicode hex="0066"/>
	<advance width="376"/>
	<outline>
		<contour>
			<point x="276" y="0" type="line"/>
			<point x="268" y="42" type="line"/>
			<point x="217" y="40"/>
			<point x="189" y="69"/>
			<point x="184" y="140" type="curve" smooth="yes"/>
			<point x="178" y="249"/>
			<point x="181" y="400"/>
			<point x="182" y="517" type="curve" smooth="yes"/>
			<point x="184" y="617"/>
			<point x="205" y="649"/>
			<point x="239" y="653" type="curve" smooth="yes"/>
			<point x="296" y="659"/>
			<point x="340" y="601"/>
			<point x="372" y="553" type="curve"/>
			<point x="388" y="584"/>
			<point x="405" y="640"/>
			<point x="405" y="682" type="curve"/>
			<point x="405" y="682"/>
			<point x="357" y="699"/>
			<point x="306" y="699" type="curve" smooth="yes"/>
			<point x="216" y="700"/>
			<point x="105" y="655"/>
			<point x="103" y="480" type="curve" smooth="yes"/>
			<point x="103" y="464"/>
			<point x="102" y="450"/>
			<point x="102" y="436" type="curve"/>
			<point x="103" y="424"/>
			<point x="101" y="412"/>
			<point x="101" y="400" type="curve" smooth="yes"/>
			<point x="103" y="314"/>
			<point x="105" y="242"/>
			<point x="105" y="169" type="curve" smooth="yes"/>
			<point x="105" y="87"/>
			<point x="109" y="42"/>
			<point x="19" y="47" type="curve"/>
			<point x="25" y="0" type="line"/>
		</contour>
		<contour>
			<point x="158" y="388" type="line"/>
			<point x="306" y="402" type="line"/>
			<point x="296" y="453" type="line"/>
			<point x="195" y="449"/>
			<point x="132" y="449"/>
			<point x="23" y="453" type="curve"/>
			<point x="31" y="400" type="line"/>
			<point x="68" y="400"/>
			<point x="125" y="390"/>
			<point x="126" y="339" type="curve"/>
		</contour>
	</outline>
</glyph>
<glyph name="g" format="1">
	<unicode hex="0067"/>
	<advance width="592"/>
	<outline>
		<contour>
			<point x="404" y="-206"/>
			<point x="523" y="-121"/>
			<point x="524" y="-18" type="curve" smooth="yes"/>
			<point x="525" y="91"/>
			<point x="389" y="100"/>
			<point x="206" y="100" type="curve" smooth="yes"/>
			<point x="159" y="100"/>
			<point x="169" y="143"/>
			<point x="210" y="176" type="curve"/>
			<point x="199" y="199" type="line"/>
			<point x="147" y="169"/>
			<point x="98" y="134"/>
			<point x="65" y="95" type="curve"/>
			<point x="72" y="53"/>
			<point x="94" y="46"/>
			<point x="149" y="44" type="curve" smooth="yes"/>
			<point x="271" y="38"/>
			<point x="427" y="44"/>
			<point x="427" y="-44" type="curve" smooth="yes"/>
			<point x="428" y="-92"/>
			<point x="371" y="-159"/>
			<point x="262" y="-159" type="curve" smooth="yes"/>
			<point x="175" y="-159"/>
			<point x="129" y="-132"/>
			<point x="129" y="-82" type="curve"/>
			<point x="129" y="-16"/>
			<point x="214" y="34"/>
			<point x="282" y="49" type="curve"/>
			<point x="205" y="54" type="line"/>
			<point x="124" y="23"/>
			<point x="38" y="-22"/>
			<point x="39" y="-103" type="curve" smooth="yes"/>
			<point x="39" y="-166"/>
			<point x="112" y="-206"/>
			<point x="233" y="-206" type="curve" smooth="yes"/>
		</contour>
		<contour>
			<point x="342" y="176"/>
			<point x="445" y="236"/>
			<point x="445" y="348" type="curve" smooth="yes"/>
			<point x="445" y="439"/>
			<point x="343" y="470"/>
			<point x="270" y="470" type="curve" smooth="yes"/>
			<point x="161" y="470"/>
			<point x="56" y="404"/>
			<point x="57" y="296" type="curve" smooth="yes"/>
			<point x="58" y="222"/>
			<point x="126" y="176"/>
			<point x="237" y="176" type="curve" smooth="yes"/>
		</contour>
		<contour>
			<point x="199" y="217"/>
			<point x="150" y="244"/>
			<point x="150" y="315" type="curve" smooth="yes"/>
			<point x="150" y="383"/>
			<point x="206" y="429"/>
			<point x="258" y="429" type="curve" smooth="yes"/>
			<point x="320" y="429"/>
			<point x="350" y="379"/>
			<point x="350" y="330" type="curve" smooth="yes"/>
			<point x="350" y="270"/>
			<point x="314" y="219"/>
			<point x="248" y="218" type="curve" smooth="yes"/>
		</contour>
		<contour>
			<point x="572" y="387"/>
			<point x="571" y="439"/>
			<point x="567" y="467" type="curve"/>
			<point x="488" y="421"/>
			<point x="427" y="399"/>
			<point x="403" y="397" type="curve"/>
			<point x="436" y="365" type="line"/>
			<point x="475" y="365"/>
			<point x="526" y="365"/>
			<point x="569" y="363" type="curve"/>
		</contour>
	</outline>
</glyph>
<glyph name="h" format="1">
	<unicode hex="0068"/>
	<advance width="598"/>
	<outline>
		<contour>
			<point x="571" y="0" type="line"/>
			<point x="564" y="39" type="line"/>
			<point x="540" y="39"/>
			<point x="496" y="43"/>
			<point x="495" y="101" type="curve"/>
			<point x="497" y="162"/>
			<point x="500" y="232"/>
			<point x="500" y="287" type="curve" smooth="yes"/>
			<point x="500" y="322"/>
			<point x="499" y="353"/>
			<point x="497" y="370" type="curve" smooth="yes"/>
			<point x="486" y="443"/>
			<point x="441" y="471"/>
			<point x="383" y="471" type="curve" smooth="yes"/>
			<point x="300" y="471"/>
			<point x="216" y="402"/>
			<point x="178" y="350" type="curve"/>
			<point x="197" y="321" type="line"/>
			<point x="197" y="321"/>
			<point x="249" y="395"/>
			<point x="327" y="395" type="curve" smooth="yes"/>
			<point x="373" y="395"/>
			<point x="405" y="370"/>
			<point x="412" y="321" type="curve" smooth="yes"/>
			<point x="415" y="298"/>
			<point x="417" y="267"/>
			<point x="417" y="233" type="curve" smooth="yes"/>
			<point x="417" y="193"/>
			<point x="416" y="147"/>
			<point x="411" y="105" type="curve" smooth="yes"/>
			<point x="403" y="43"/>
			<point x="368" y="43"/>
			<point x="322" y="48" type="curve"/>
			<point x="330" y="0" type="line"/>
		</contour>
		<contour>
			<point x="281" y="0" type="line"/>
			<point x="273" y="39" type="line"/>
			<point x="269" y="39" type="line" smooth="yes"/>
			<point x="225" y="39"/>
			<point x="202" y="59"/>
			<point x="202" y="132" type="curve" smooth="yes"/>
			<point x="202" y="250"/>
			<point x="206" y="528"/>
			<point x="221" y="655" type="curve"/>
			<point x="221" y="655"/>
			<point x="95" y="637"/>
			<point x="30" y="638" type="curve"/>
			<point x="35" y="590" type="line"/>
			<point x="95" y="590"/>
			<point x="119" y="588"/>
			<point x="122" y="554" type="curve"/>
			<point x="124" y="498"/>
			<point x="125" y="435"/>
			<point x="125" y="372" type="curve" smooth="yes"/>
			<point x="125" y="270"/>
			<point x="122" y="169"/>
			<point x="118" y="105" type="curve"/>
			<point x="113" y="68"/>
			<point x="89" y="47"/>
			<point x="39" y="47" type="curve" smooth="yes"/>
			<point x="29" y="47" type="line"/>
			<point x="37" y="0" type="line"/>
		</contour>
	</outline>
</glyph>
<glyph name="j" format="1">
	<unicode hex="006A"/>
	<advance width="366"/>
	<outline>
		<contour>
			<point x="260" y="99"/>
			<point x="261" y="475"/>
			<point x="271" y="605" type="curve"/>
			<point x="271" y="605"/>
			<point x="131" y="592"/>
			<point x="18" y="594" type="curve"/>
			<point x="24" y="533" type="line"/>
			<point x="116" y="533"/>
			<point x="146" y="503"/>
			<point x="150" y="458" type="curve" smooth="yes"/>
			<point x="156" y="397"/>
			<point x="169" y="195"/>
			<point x="155" y="-3" type="curve" smooth="yes"/>
			<point x="140" y="-151"/>
			<point x="68" y="-213"/>
			<point x="-28" y="-189" type="curve"/>
			<point x="-51" y="-240" type="line"/>
			<point x="-37" y="-248"/>
			<point x="14" y="-265"/>
			<point x="69" y="-264" type="curve" smooth="yes"/>
			<point x="196" y="-263"/>
			<point x="263" y="-184"/>
			<point x="261" y="-8" type="curve" smooth="yes"/>
		</contour>
		<component base="dotaccent" xOffset="182" yOffset="-9"/>
	</outline>
</glyph>
<glyph name="k" format="1">
	<unicode hex="006B"/>
	<advance width="732"/>
	<outline>
		<contour>
			<point x="365" y="0" type="line"/>
			<point x="355" y="51" type="line"/>
			<point x="349" y="51" type="line" smooth="yes"/>
			<point x="292" y="51"/>
			<point x="262" y="76"/>
			<point x="262" y="171" type="curve" smooth="yes"/>
			<point x="262" y="325"/>
			<point x="268" y="686"/>
			<point x="287" y="850" type="curve"/>
			<point x="287" y="850"/>
			<point x="123" y="827"/>
			<point x="39" y="829" type="curve"/>
			<point x="46" y="766" type="line"/>
			<point x="124" y="766"/>
			<point x="154" y="763"/>
			<point x="159" y="719" type="curve"/>
			<point x="161" y="647"/>
			<point x="162" y="565"/>
			<point x="162" y="483" type="curve" smooth="yes"/>
			<point x="162" y="350"/>
			<point x="159" y="220"/>
			<point x="153" y="136" type="curve"/>
			<point x="147" y="88"/>
			<point x="115" y="61"/>
			<point x="50" y="61" type="curve" smooth="yes"/>
			<point x="38" y="61" type="line"/>
			<point x="48" y="0" type="line"/>
		</contour>
		<contour>
			<point x="610" y="-10"/>
			<point x="658" y="-7"/>
			<point x="722" y="12" type="curve"/>
			<point x="710" y="63" type="line"/>
			<point x="540" y="66"/>
			<point x="411" y="344"/>
			<point x="417" y="357" type="curve"/>
			<point x="383" y="347"/>
			<point x="336" y="334"/>
			<point x="307" y="341" type="curve"/>
			<point x="343" y="267"/>
			<point x="475" y="8"/>
			<point x="566" y="-8" type="curve"/>
		</contour>
		<contour>
			<point x="295" y="307"/>
			<point x="383" y="307"/>
			<point x="414" y="314" type="curve"/>
			<point x="443" y="341"/>
			<point x="518" y="429"/>
			<point x="584" y="498" type="curve" smooth="yes"/>
			<point x="614" y="529"/>
			<point x="634" y="544"/>
			<point x="665" y="546" type="curve"/>
			<point x="652" y="594" type="line"/>
			<point x="556" y="590"/>
			<point x="470" y="588"/>
			<point x="394" y="594" type="curve"/>
			<point x="413" y="541" type="line"/>
			<point x="491" y="544"/>
			<point x="485" y="518"/>
			<point x="471" y="497" type="curve" smooth="yes"/>
			<point x="429" y="434"/>
			<point x="360" y="376"/>
			<point x="341" y="366" type="curve"/>
			<point x="314" y="366"/>
			<point x="291" y="372"/>
			<point x="263" y="376" type="curve"/>
			<point x="243" y="307" type="line"/>
		</contour>
		<contour>
			<point name="bottom" x="366" y="0" type="move"/>
		</contour>
	</outline>
</glyph>
<glyph name="l" format="1">
	<unicode hex="006C"/>
	<advance width="307"/>
	<outline>
		<contour>
			<point x="281" y="0" type="line"/>
			<point x="273" y="39" type="line"/>
			<point x="269" y="39" type="line" smooth="yes"/>
			<point x="225" y="39"/>
			<point x="203" y="56"/>
			<point x="202" y="132" type="curve" smooth="yes"/>
			<point x="199" y="250"/>
			<point x="206" y="528"/>
			<point x="221" y="655" type="curve"/>
			<point x="221" y="655"/>
			<point x="95" y="637"/>
			<point x="30" y="638" type="curve"/>
			<point x="35" y="590" type="line"/>
			<point x="95" y="590"/>
			<point x="119" y="588"/>
			<point x="122" y="554" type="curve"/>
			<point x="124" y="498"/>
			<point x="125" y="435"/>
			<point x="125" y="372" type="curve" smooth="yes"/>
			<point x="125" y="270"/>
			<point x="122" y="169"/>
			<point x="118" y="105" type="curve"/>
			<point x="113" y="68"/>
			<point x="89" y="47"/>
			<point x="39" y="47" type="curve" smooth="yes"/>
			<point x="29" y="47" type="line"/>
			<point x="37" y="0" type="line"/>
		</contour>
	</outline>
</glyph>
<glyph name="m" format="1">
	<unicode hex="006D"/>
	<advance width="890"/>
	<outline>
		<contour>
			<point x="869" y="0" type="line"/>
			<point x="862" y="39" type="line"/>
			<point x="838" y="39"/>
			<point x="794" y="43"/>
			<point x="793" y="101" type="curve"/>
			<point x="795" y="162"/>
			<point x="798" y="232"/>
			<point x="798" y="287" type="curve" smooth="yes"/>
			<point x="798" y="322"/>
			<point x="797" y="353"/>
			<point x="795" y="370" type="curve" smooth="yes"/>
			<point x="784" y="443"/>
			<point x="739" y="471"/>
			<point x="681" y="471" type="curve" smooth="yes"/>
			<point x="598" y="471"/>
			<point x="514" y="402"/>
			<point x="476" y="350" type="curve"/>
			<point x="495" y="321" type="line"/>
			<point x="495" y="321"/>
			<point x="547" y="395"/>
			<point x="625" y="395" type="curve" smooth="yes"/>
			<point x="671" y="395"/>
			<point x="703" y="370"/>
			<point x="710" y="321" type="curve" smooth="yes"/>
			<point x="713" y="298"/>
			<point x="715" y="267"/>
			<point x="715" y="233" type="curve" smooth="yes"/>
			<point x="715" y="193"/>
			<point x="714" y="147"/>
			<point x="709" y="105" type="curve" smooth="yes"/>
			<point x="701" y="43"/>
			<point x="662" y="42"/>
			<point x="629" y="45" type="curve"/>
			<point x="637" y="0" type="line"/>
		</contour>
		<contour>
			<point x="287" y="0" type="line"/>
			<point x="280" y="37" type="line"/>
			<point x="250" y="37"/>
			<point x="214" y="42"/>
			<point x="214" y="105" type="curve" smooth="yes"/>
			<point x="215" y="194"/>
			<point x="217" y="305"/>
			<point x="221" y="391" type="curve"/>
			<point x="204" y="381" type="line"/>
			<point x="209" y="401"/>
			<point x="218" y="468"/>
			<point x="218" y="468" type="curve" smooth="yes"/>
			<point x="218" y="468"/>
			<point x="91" y="457"/>
			<point x="30" y="458" type="curve"/>
			<point x="35" y="411" type="line"/>
			<point x="131" y="409"/>
			<point x="132" y="374"/>
			<point x="132" y="291" type="curve" smooth="yes"/>
			<point x="132" y="240"/>
			<point x="132" y="162"/>
			<point x="126" y="94" type="curve" smooth="yes"/>
			<point x="122" y="53"/>
			<point x="82" y="43"/>
			<point x="39" y="48" type="curve"/>
			<point x="45" y="0" type="line"/>
		</contour>
		<contour>
			<point x="571" y="0" type="line"/>
			<point x="564" y="39" type="line"/>
			<point x="540" y="39"/>
			<point x="502" y="43"/>
			<point x="501" y="101" type="curve"/>
			<point x="504" y="162"/>
			<point x="506" y="232"/>
			<point x="506" y="287" type="curve" smooth="yes"/>
			<point x="506" y="322"/>
			<point x="505" y="353"/>
			<point x="503" y="370" type="curve" smooth="yes"/>
			<point x="492" y="443"/>
			<point x="451" y="471"/>
			<point x="393" y="471" type="curve" smooth="yes"/>
			<point x="310" y="471"/>
			<point x="235" y="420"/>
			<point x="197" y="373" type="curve"/>
			<point x="216" y="344" type="line"/>
			<point x="216" y="344"/>
			<point x="256" y="397"/>
			<point x="333" y="397" type="curve" smooth="yes"/>
			<point x="379" y="397"/>
			<point x="408" y="370"/>
			<point x="415" y="321" type="curve" smooth="yes"/>
			<point x="418" y="298"/>
			<point x="420" y="267"/>
			<point x="420" y="233" type="curve" smooth="yes"/>
			<point x="420" y="193"/>
			<point x="419" y="147"/>
			<point x="414" y="105" type="curve" smooth="yes"/>
			<point x="407" y="43"/>
			<point x="373" y="43"/>
			<point x="340" y="46" type="curve"/>
			<point x="348" y="0" type="line"/>
		</contour>
	</outline>
</glyph>
<glyph name="n" format="1">
	<unicode hex="006E"/>
	<advance width="622"/>
	<outline>
		<contour>
			<point x="594" y="0" type="line"/>
			<point x="587" y="39" type="line"/>
			<point x="563" y="39"/>
			<point x="519" y="43"/>
			<point x="518" y="101" type="curve"/>
			<point x="521" y="162"/>
			<point x="523" y="232"/>
			<point x="523" y="287" type="curve" smooth="yes"/>
			<point x="523" y="322"/>
			<point x="522" y="353"/>
			<point x="520" y="370" type="curve" smooth="yes"/>
			<point x="509" y="443"/>
			<point x="464" y="471"/>
			<point x="406" y="471" type="curve" smooth="yes"/>
			<point x="323" y="471"/>
			<point x="239" y="402"/>
			<point x="201" y="350" type="curve"/>
			<point x="220" y="321" type="line"/>
			<point x="220" y="321"/>
			<point x="273" y="395"/>
			<point x="350" y="395" type="curve" smooth="yes"/>
			<point x="396" y="395"/>
			<point x="428" y="370"/>
			<point x="435" y="321" type="curve" smooth="yes"/>
			<point x="438" y="298"/>
			<point x="440" y="267"/>
			<point x="440" y="233" type="curve" smooth="yes"/>
			<point x="440" y="193"/>
			<point x="439" y="147"/>
			<point x="434" y="105" type="curve" smooth="yes"/>
			<point x="427" y="43"/>
			<point x="391" y="43"/>
			<point x="345" y="48" type="curve"/>
			<point x="353" y="0" type="line"/>
		</contour>
		<contour>
			<point x="295" y="0" type="line"/>
			<point x="287" y="37" type="line"/>
			<point x="258" y="37"/>
			<point x="222" y="42"/>
			<point x="222" y="105" type="curve" smooth="yes"/>
			<point x="223" y="194"/>
			<point x="221" y="282"/>
			<point x="225" y="368" type="curve"/>
			<point x="208" y="358" type="line"/>
			<point x="213" y="378"/>
			<point x="226" y="468"/>
			<point x="226" y="468" type="curve" smooth="yes"/>
			<point x="226" y="468"/>
			<point x="99" y="457"/>
			<point x="38" y="458" type="curve"/>
			<point x="43" y="411" type="line"/>
			<point x="139" y="409"/>
			<point x="140" y="374"/>
			<point x="140" y="291" type="curve" smooth="yes"/>
			<point x="140" y="240"/>
			<point x="140" y="162"/>
			<point x="133" y="94" type="curve" smooth="yes"/>
			<point x="129" y="53"/>
			<point x="97" y="46"/>
			<point x="47" y="48" type="curve"/>
			<point x="53" y="0" type="line"/>
		</contour>
	</outline>
</glyph>
<glyph name="o" format="1">
	<unicode hex="006F"/>
	<advance width="509"/>
	<outline>
		<contour>
			<point x="402" y="-17"/>
			<point x="470" y="114"/>
			<point x="474" y="249" type="curve" smooth="yes"/>
			<point x="479" y="409"/>
			<point x="397" y="473"/>
			<point x="279" y="474" type="curve" smooth="yes"/>
			<point x="138" y="474"/>
			<point x="32" y="359"/>
			<point x="34" y="189" type="curve" smooth="yes"/>
			<point x="35" y="69"/>
			<point x="101" y="-12"/>
			<point x="230" y="-14" type="curve" smooth="yes"/>
		</contour>
		<contour>
			<point x="177" y="24"/>
			<point x="128" y="120"/>
			<point x="132" y="245" type="curve" smooth="yes"/>
			<point x="136" y="389"/>
			<point x="209" y="425"/>
			<point x="245" y="428" type="curve" smooth="yes"/>
			<point x="330" y="436"/>
			<point x="387" y="350"/>
			<point x="383" y="229" type="curve" smooth="yes"/>
			<point x="380" y="129"/>
			<point x="340" y="42"/>
			<point x="265" y="34" type="curve" smooth="yes"/>
		</contour>
	</outline>
</glyph>
<glyph name="p" format="2">
	<advance width="592"/>
	<unicode hex="0070"/>
	<outline>
		<contour>
			<point x="36" y="409" type="line"/>
			<point x="100" y="410"/>
			<point x="127" y="386"/>
			<point x="131" y="351" type="curve" smooth="yes"/>
			<point x="132" y="338"/>
			<point x="133" y="316"/>
			<point x="133" y="289" type="curve" smooth="yes"/>
			<point x="133" y="252"/>
			<point x="132" y="137"/>
			<point x="129" y="40" type="curve" smooth="yes"/>
			<point x="127" y="-75"/>
			<point x="129" y="-118"/>
			<point x="69" y="-126" type="curve" smooth="yes"/>
			<point x="62" y="-127"/>
			<point x="55" y="-128"/>
			<point x="46" y="-128" type="curve"/>
			<point x="52" y="-176" type="line"/>
			<point x="313" y="-176" type="line"/>
			<point x="306" y="-139" type="line"/>
			<point x="302" y="-139"/>
			<point x="298" y="-139"/>
			<point x="294" y="-138" type="curve"/>
			<point x="220" y="-132"/>
			<point x="216" y="-74"/>
			<point x="214" y="23" type="curve" smooth="yes"/>
			<point x="213" y="63"/>
			<point x="213" y="102"/>
			<point x="213" y="136" type="curve" smooth="yes"/>
			<point x="213" y="215" type="line" smooth="yes"/>
			<point x="213" y="269"/>
			<point x="216" y="325"/>
			<point x="219" y="376" type="curve"/>
			<point x="201" y="370" type="line"/>
			<point x="206" y="390"/>
			<point x="219" y="468"/>
			<point x="219" y="468" type="curve" smooth="yes"/>
			<point x="219" y="468"/>
			<point x="140" y="457"/>
			<point x="68" y="457" type="curve" smooth="yes"/>
			<point x="55" y="457"/>
			<point x="42" y="457"/>
			<point x="31" y="458" type="curve"/>
		</contour>
		<contour>
			<point x="194" y="2"/>
			<point x="225" y="-3"/>
			<point x="260" y="-3" type="curve" smooth="yes"/>
			<point x="426" y="-3"/>
			<point x="548" y="120"/>
			<point x="548" y="283" type="curve" smooth="yes"/>
			<point x="548" y="405"/>
			<point x="476" y="473"/>
			<point x="378" y="473" type="curve" smooth="yes"/>
			<point x="291" y="473"/>
			<point x="217" y="412"/>
			<point x="193" y="355" type="curve"/>
			<point x="216" y="323" type="line"/>
			<point x="233" y="364"/>
			<point x="283" y="410"/>
			<point x="336" y="410" type="curve" smooth="yes"/>
			<point x="417" y="410"/>
			<point x="445" y="337"/>
			<point x="445" y="258" type="curve" smooth="yes"/>
			<point x="445" y="148"/>
			<point x="403" y="45"/>
			<point x="301" y="45" type="curve" smooth="yes"/>
			<point x="246" y="45"/>
			<point x="206" y="77"/>
			<point x="206" y="77" type="curve"/>
			<point x="175" y="9" type="line"/>
		</contour>
	</outline>
</glyph>
<glyph name="q" format="1">
  <advance width="525"/>
  <unicode hex="0071"/>
  <outline>
    <contour>
      <point x="281" y="-6"/>
      <point x="347" y="36"/>
      <point x="384" y="123" type="curve"/>
      <point x="358" y="155" type="line"/>
      <point x="330" y="90"/>
      <point x="276" y="56"/>
      <point x="233" y="55" type="curve" smooth="yes"/>
      <point x="185" y="55"/>
      <point x="127" y="92"/>
      <point x="128" y="197" type="curve" smooth="yes"/>
      <point x="129" y="334"/>
      <point x="184" y="414"/>
      <point x="247" y="426" type="curve" smooth="yes"/>
      <point x="337" y="442"/>
      <point x="387" y="349"/>
      <point x="387" y="349" type="curve"/>
      <point x="443" y="449" type="line"/>
      <point x="410" y="462"/>
      <point x="360" y="476"/>
      <point x="284" y="475" type="curve" smooth="yes"/>
      <point x="113" y="474"/>
      <point x="39" y="341"/>
      <point x="35" y="201" type="curve" smooth="yes"/>
      <point x="30" y="69"/>
      <point x="99" y="-6"/>
      <point x="210" y="-6" type="curve" smooth="yes"/>
    </contour>
    <contour>
      <point x="518" y="-176" type="line"/>
      <point x="514" y="-139" type="line"/>
      <point x="466" y="-139"/>
      <point x="443" y="-99"/>
      <point x="440" y="-50" type="curve" smooth="yes"/>
      <point x="433" y="126"/>
      <point x="430" y="350"/>
      <point x="443" y="449" type="curve"/>
      <point x="288" y="464" type="line"/>
      <point x="298" y="430" type="line"/>
      <point x="358" y="439"/>
      <point x="349" y="404"/>
      <point x="353" y="341" type="curve" smooth="yes"/>
      <point x="355" y="319"/>
      <point x="357" y="122"/>
      <point x="356" y="15" type="curve" smooth="yes"/>
      <point x="353" y="-96"/>
      <point x="344" y="-123"/>
      <point x="264" y="-128" type="curve"/>
      <point x="270" y="-176" type="line"/>
    </contour>
  </outline>
</glyph>
<glyph name="r" format="1">
	<unicode hex="0072"/>
	<advance width="578"/>
	<outline>
		<contour>
			<point x="56" y="534" type="line"/>
			<point x="146" y="532"/>
			<point x="172" y="508"/>
			<point x="179" y="453" type="curve" smooth="yes"/>
			<point x="182" y="433"/>
			<point x="182" y="408"/>
			<point x="182" y="378" type="curve" smooth="yes"/>
			<point x="182" y="312"/>
			<point x="182" y="211"/>
			<point x="173" y="122" type="curve" smooth="yes"/>
			<point x="169" y="80"/>
			<point x="143" y="64"/>
			<point x="106" y="62" type="curve"/>
			<point x="95" y="61"/>
			<point x="85" y="61"/>
			<point x="73" y="62" type="curve"/>
			<point x="81" y="0" type="line"/>
			<point x="422" y="0" type="line"/>
			<point x="412" y="48" type="line"/>
			<point x="398" y="48" type="line"/>
			<point x="356" y="50"/>
			<point x="289" y="64"/>
			<point x="288" y="147" type="curve" smooth="yes"/>
			<point x="286" y="262"/>
			<point x="287" y="366"/>
			<point x="292" y="478" type="curve"/>
			<point x="273" y="465" type="line"/>
			<point x="279" y="491"/>
			<point x="293" y="608"/>
			<point x="293" y="608" type="curve" smooth="yes"/>
			<point x="293" y="608"/>
			<point x="164" y="596"/>
			<point x="79" y="595" type="curve" smooth="yes"/>
			<point x="49" y="595" type="line"/>
		</contour>
		<contour>
			<point x="280" y="418"/>
			<point x="331" y="464"/>
			<point x="385" y="481" type="curve" smooth="yes"/>
			<point x="430" y="495"/>
			<point x="501" y="481"/>
			<point x="501" y="481" type="curve"/>
			<point x="418" y="495" type="line"/>
			<point x="457" y="480"/>
			<point x="473" y="454"/>
			<point x="479" y="431" type="curve"/>
			<point x="541" y="429" type="line"/>
			<point x="548" y="474"/>
			<point x="555" y="573"/>
			<point x="553" y="611" type="curve"/>
			<point x="430" y="611"/>
			<point x="256" y="497"/>
			<point x="223" y="380" type="curve"/>
			<point x="248" y="344" type="line"/>
		</contour>
		<contour>
			<point name="top" x="302" y="652" type="move"/>
		</contour>
		<contour>
			<point name="bottom" x="289" y="0" type="move"/>
		</contour>
	</outline>
</glyph>
<glyph name="s" format="1">
	<unicode hex="0073"/>
	<advance width="398"/>
	<outline>
		<contour>
			<point x="113" y="-19"/>
			<point x="49" y="5"/>
			<point x="49" y="5" type="curve"/>
			<point x="49" y="14"/>
			<point x="48" y="25"/>
			<point x="48" y="38" type="curve" smooth="yes"/>
			<point x="48" y="64"/>
			<point x="50" y="95"/>
			<point x="55" y="127" type="curve"/>
			<point x="119" y="120" type="line"/>
			<point x="121" y="84"/>
			<point x="121" y="50"/>
			<point x="139" y="23" type="curve"/>
			<point x="108" y="32"/>
			<point x="105" y="65"/>
			<point x="100" y="99" type="curve"/>
			<point x="109" y="80"/>
			<point x="134" y="28"/>
			<point x="197" y="28" type="curve" smooth="yes"/>
			<point x="248" y="28"/>
			<point x="282" y="57"/>
			<point x="282" y="105" type="curve" smooth="yes"/>
			<point x="282" y="203"/>
			<point x="60" y="206"/>
			<point x="60" y="334" type="curve" smooth="yes"/>
			<point x="60" y="406"/>
			<point x="119" y="467"/>
			<point x="227" y="467" type="curve" smooth="yes"/>
			<point x="299" y="467"/>
			<point x="353" y="447"/>
			<point x="353" y="447" type="curve"/>
			<point x="353" y="436"/>
			<point x="354" y="422"/>
			<point x="354" y="407" type="curve" smooth="yes"/>
			<point x="354" y="381"/>
			<point x="353" y="353"/>
			<point x="350" y="336" type="curve"/>
			<point x="289" y="343" type="line"/>
			<point x="288" y="371"/>
			<point x="276" y="418"/>
			<point x="260" y="455" type="curve"/>
			<point x="303" y="356" type="line"/>
			<point x="292" y="368"/>
			<point x="276" y="427"/>
			<point x="211" y="427" type="curve" smooth="yes"/>
			<point x="171" y="427"/>
			<point x="140" y="403"/>
			<point x="140" y="366" type="curve" smooth="yes"/>
			<point x="140" y="262"/>
			<point x="367" y="271"/>
			<point x="367" y="125" type="curve" smooth="yes"/>
			<point x="367" y="43"/>
			<point x="298" y="-19"/>
			<point x="189" y="-19" type="curve" smooth="yes"/>
		</contour>
	</outline>
</glyph>
<glyph name="t" format="1">
	<unicode hex="0074"/>
	<advance width="354"/>
	<outline>
		<contour>
			<point x="258" y="-13"/>
			<point x="313" y="25"/>
			<point x="330" y="43" type="curve"/>
			<point x="310" y="69" type="line"/>
			<point x="291" y="57"/>
			<point x="271" y="51"/>
			<point x="253" y="51" type="curve" smooth="yes"/>
			<point x="223" y="51"/>
			<point x="194" y="66"/>
			<point x="182" y="99" type="curve" smooth="yes"/>
			<point x="173" y="125"/>
			<point x="177" y="189"/>
			<point x="177" y="283" type="curve" smooth="yes"/>
			<point x="177" y="312"/>
			<point x="179" y="358"/>
			<point x="182" y="390" type="curve"/>
			<point x="311" y="400" type="line"/>
			<point x="302" y="450" type="line"/>
			<point x="184" y="450" type="line"/>
			<point x="186" y="506"/>
			<point x="189" y="562"/>
			<point x="193" y="610" type="curve"/>
			<point x="105" y="591" type="line"/>
			<point x="104" y="522"/>
			<point x="104" y="450"/>
			<point x="104" y="450" type="curve" smooth="yes"/>
			<point x="12" y="450" type="line"/>
			<point x="19" y="398" type="line"/>
			<point x="65" y="398"/>
			<point x="99" y="383"/>
			<point x="99" y="383" type="curve"/>
			<point x="102" y="297"/>
			<point x="91" y="149"/>
			<point x="91" y="99" type="curve" smooth="yes"/>
			<point x="91" y="28"/>
			<point x="122" y="-13"/>
			<point x="195" y="-13" type="curve" smooth="yes"/>
		</contour>
	</outline>
</glyph>
<glyph name="u" format="1">
	<unicode hex="0075"/>
	<advance width="728"/>
	<outline>
		<contour>
			<point x="369" y="-14"/>
			<point x="479" y="76"/>
			<point x="528" y="144" type="curve"/>
			<point x="503" y="181" type="line"/>
			<point x="503" y="181"/>
			<point x="435" y="85"/>
			<point x="334" y="85" type="curve" smooth="yes"/>
			<point x="275" y="85"/>
			<point x="230" y="118"/>
			<point x="221" y="181" type="curve" smooth="yes"/>
			<point x="217" y="211"/>
			<point x="215" y="251"/>
			<point x="215" y="295" type="curve" smooth="yes"/>
			<point x="215" y="401"/>
			<point x="222" y="514"/>
			<point x="239" y="601" type="curve"/>
			<point x="169" y="592"/>
			<point x="88" y="584"/>
			<point x="-4" y="589" type="curve"/>
			<point x="2" y="525" type="line"/>
			<point x="32" y="527"/>
			<point x="119" y="523"/>
			<point x="116" y="452" type="curve" smooth="yes"/>
			<point x="113" y="376"/>
			<point x="108" y="296"/>
			<point x="108" y="225" type="curve" smooth="yes"/>
			<point x="108" y="180"/>
			<point x="111" y="139"/>
			<point x="114" y="117" type="curve" smooth="yes"/>
			<point x="128" y="23"/>
			<point x="186" y="-14"/>
			<point x="262" y="-14" type="curve" smooth="yes"/>
		</contour>
		<contour>
			<point x="720" y="0" type="line"/>
			<point x="711" y="56" type="line"/>
			<point x="599" y="59"/>
			<point x="607" y="115"/>
			<point x="607" y="220" type="curve" smooth="yes"/>
			<point x="607" y="312"/>
			<point x="613" y="449"/>
			<point x="624" y="593" type="curve"/>
			<point x="509" y="581" type="line"/>
			<point x="499" y="481"/>
			<point x="498" y="405"/>
			<point x="498" y="319" type="curve" smooth="yes"/>
			<point x="498" y="247" type="line" smooth="yes"/>
			<point x="498" y="203"/>
			<point x="498" y="161"/>
			<point x="496" y="120" type="curve"/>
			<point x="496" y="120"/>
			<point x="507" y="141"/>
			<point x="514" y="141" type="curve" smooth="yes"/>
			<point x="517" y="141"/>
			<point x="515" y="137"/>
			<point x="515" y="128" type="curve"/>
			<point x="509" y="102"/>
			<point x="502" y="0"/>
			<point x="502" y="0" type="curve"/>
		</contour>
		<contour>
			<point x="615" y="461" type="line"/>
			<point x="625" y="603" type="line"/>
			<point x="568" y="593"/>
			<point x="449" y="586"/>
			<point x="376" y="591" type="curve"/>
			<point x="384" y="531" type="line"/>
			<point x="422" y="533"/>
			<point x="505" y="535"/>
			<point x="500" y="448" type="curve"/>
		</contour>
		<contour>
			<point name="ogonek" x="334" y="10" type="move"/>
		</contour>
		<contour>
			<point name="top" x="344" y="667" type="move"/>
		</contour>
	</outline>
</glyph>
<glyph name="v" format="1">
	<unicode hex="0076"/>
	<advance width="507"/>
	<outline>
		<contour>
			<point x="291" y="14" type="line"/>
			<point x="320" y="75"/>
			<point x="383" y="216"/>
			<point x="443" y="353" type="curve" smooth="yes"/>
			<point x="457" y="385"/>
			<point x="462" y="415"/>
			<point x="516" y="417" type="curve"/>
			<point x="507" y="461" type="line"/>
			<point x="433" y="458"/>
			<point x="374" y="457"/>
			<point x="300" y="461" type="curve"/>
			<point x="306" y="413" type="line"/>
			<point x="359" y="415"/>
			<point x="398" y="407"/>
			<point x="383" y="363" type="curve" smooth="yes"/>
			<point x="336" y="234"/>
			<point x="275" y="112"/>
			<point x="252" y="55" type="curve"/>
			<point x="252" y="55"/>
			<point x="250" y="105"/>
			<point x="246" y="122" type="curve"/>
			<point x="223" y="193"/>
			<point x="196" y="281"/>
			<point x="172" y="357" type="curve"/>
			<point x="160" y="407"/>
			<point x="179" y="415"/>
			<point x="238" y="420" type="curve"/>
			<point x="227" y="461" type="line"/>
			<point x="142" y="459"/>
			<point x="87" y="457"/>
			<point x="2" y="461" type="curve"/>
			<point x="13" y="412" type="line"/>
			<point x="49" y="413"/>
			<point x="67" y="408"/>
			<point x="82" y="358" type="curve" smooth="yes"/>
			<point x="141" y="176"/>
			<point x="172" y="74"/>
			<point x="202" y="-12" type="curve"/>
		</contour>
	</outline>
</glyph>
<glyph name="w" format="1">
  <advance width="751"/>
  <unicode hex="0077"/>
  <outline>
    <contour>
      <point x="554" y="1" type="line"/>
      <point x="578" y="62"/>
      <point x="631" y="215"/>
      <point x="684" y="351" type="curve" smooth="yes"/>
      <point x="699" y="391"/>
      <point x="705" y="413"/>
      <point x="752" y="414" type="curve"/>
      <point x="743" y="459" type="line"/>
      <point x="671" y="454"/>
      <point x="618" y="454"/>
      <point x="543" y="459" type="curve"/>
      <point x="550" y="410" type="line"/>
      <point x="602" y="413"/>
      <point x="639" y="399"/>
      <point x="624" y="353" type="curve" smooth="yes"/>
      <point x="580" y="226"/>
      <point x="547" y="122"/>
      <point x="523" y="67" type="curve"/>
      <point x="523" y="67"/>
      <point x="520" y="132"/>
      <point x="512" y="159" type="curve" smooth="yes"/>
      <point x="490" y="233"/>
      <point x="470" y="278"/>
      <point x="448" y="354" type="curve" smooth="yes"/>
      <point x="434" y="403"/>
      <point x="448" y="415"/>
      <point x="495" y="417" type="curve"/>
      <point x="487" y="459" type="line"/>
      <point x="415" y="457"/>
      <point x="365" y="456"/>
      <point x="280" y="459" type="curve"/>
      <point x="293" y="410" type="line"/>
      <point x="330" y="411"/>
      <point x="353" y="398"/>
      <point x="360" y="371" type="curve" smooth="yes"/>
      <point x="413" y="189"/>
      <point x="457" y="74"/>
      <point x="483" y="-12" type="curve"/>
    </contour>
    <contour>
      <point x="279" y="1" type="line"/>
      <point x="306" y="62"/>
      <point x="360" y="215"/>
      <point x="420" y="351" type="curve"/>
      <point x="369" y="353" type="line"/>
      <point x="316" y="226"/>
      <point x="273" y="120"/>
      <point x="250" y="65" type="curve"/>
      <point x="250" y="65"/>
      <point x="249" y="132"/>
      <point x="240" y="159" type="curve" smooth="yes"/>
      <point x="217" y="233"/>
      <point x="200" y="279"/>
      <point x="175" y="354" type="curve" smooth="yes"/>
      <point x="155" y="413"/>
      <point x="199" y="417"/>
      <point x="242" y="417" type="curve"/>
      <point x="231" y="459" type="line"/>
      <point x="149" y="454"/>
      <point x="97" y="452"/>
      <point x="5" y="459" type="curve"/>
      <point x="11" y="410" type="line"/>
      <point x="47" y="410"/>
      <point x="69" y="405"/>
      <point x="85" y="356" type="curve" smooth="yes"/>
      <point x="146" y="172"/>
      <point x="179" y="74"/>
      <point x="209" y="-12" type="curve"/>
    </contour>
  </outline>
</glyph>
<glyph name="x" format="1">
  <advance width="495"/>
  <unicode hex="0078"/>
  <outline>
    <contour>
      <point x="479" y="-2" type="line"/>
      <point x="467" y="45" type="line"/>
      <point x="442" y="45"/>
      <point x="422" y="55"/>
      <point x="393" y="90" type="curve" smooth="yes"/>
      <point x="349" y="143"/>
      <point x="305" y="213"/>
      <point x="279" y="248" type="curve" smooth="yes"/>
      <point x="268" y="262" type="line"/>
      <point x="244" y="296"/>
      <point x="216" y="341"/>
      <point x="200" y="368" type="curve" smooth="yes"/>
      <point x="182" y="400"/>
      <point x="192" y="417"/>
      <point x="236" y="417" type="curve"/>
      <point x="228" y="460" type="line"/>
      <point x="169" y="456"/>
      <point x="100" y="456"/>
      <point x="25" y="460" type="curve"/>
      <point x="29" y="416" type="line"/>
      <point x="59" y="417"/>
      <point x="83" y="409"/>
      <point x="112" y="363" type="curve" smooth="yes"/>
      <point x="145" y="310"/>
      <point x="181" y="259"/>
      <point x="205" y="219" type="curve"/>
      <point x="211" y="219" type="line"/>
      <point x="243" y="182"/>
      <point x="275" y="126"/>
      <point x="302" y="89" type="curve" smooth="yes"/>
      <point x="330" y="51"/>
      <point x="302" y="40"/>
      <point x="259" y="41" type="curve"/>
      <point x="266" y="-2" type="line"/>
    </contour>
    <contour>
      <point x="216" y="-2" type="line"/>
      <point x="206" y="39" type="line"/>
      <point x="152" y="36"/>
      <point x="158" y="61"/>
      <point x="176" y="88" type="curve" smooth="yes"/>
      <point x="201" y="127"/>
      <point x="236" y="182"/>
      <point x="266" y="216" type="curve"/>
      <point x="274" y="222" type="line"/>
      <point x="297" y="253"/>
      <point x="341" y="312"/>
      <point x="377" y="358" type="curve" smooth="yes"/>
      <point x="403" y="393"/>
      <point x="424" y="417"/>
      <point x="466" y="419" type="curve"/>
      <point x="460" y="460" type="line"/>
      <point x="407" y="457"/>
      <point x="336" y="457"/>
      <point x="276" y="461" type="curve"/>
      <point x="285" y="417" type="line"/>
      <point x="332" y="416"/>
      <point x="333" y="394"/>
      <point x="323" y="375" type="curve" smooth="yes"/>
      <point x="301" y="338"/>
      <point x="263" y="291"/>
      <point x="231" y="249" type="curve"/>
      <point x="220" y="243" type="line"/>
      <point x="188" y="196"/>
      <point x="133" y="115"/>
      <point x="112" y="88" type="curve" smooth="yes"/>
      <point x="92" y="64"/>
      <point x="65" y="41"/>
      <point x="24" y="42" type="curve"/>
      <point x="31" y="-2" type="line"/>
    </contour>
  </outline>
</glyph>
<glyph name="y" format="2">
	<unicode hex="0079"/>
	<advance width="512"/>
	<outline>
		<contour>
			<point x="228" y="-3"/>
			<point x="270" y="10"/>
			<point x="293" y="12" type="curve"/>
			<point x="321" y="74"/>
			<point x="379" y="215"/>
			<point x="437" y="351" type="curve" smooth="yes"/>
			<point x="454" y="390"/>
			<point x="459" y="413"/>
			<point x="513" y="414" type="curve"/>
			<point x="504" y="459" type="line"/>
			<point x="430" y="456"/>
			<point x="371" y="454"/>
			<point x="296" y="459" type="curve"/>
			<point x="303" y="410" type="line"/>
			<point x="356" y="413"/>
			<point x="387" y="399"/>
			<point x="373" y="353" type="curve" smooth="yes"/>
			<point x="347" y="272"/>
			<point x="281" y="109"/>
			<point x="255" y="54" type="curve"/>
			<point x="255" y="54"/>
			<point x="239" y="129"/>
			<point x="231" y="156" type="curve" smooth="yes"/>
			<point x="207" y="229"/>
			<point x="188" y="280"/>
			<point x="166" y="354" type="curve" smooth="yes"/>
			<point x="151" y="403"/>
			<point x="191" y="413"/>
			<point x="249" y="417" type="curve"/>
			<point x="239" y="459" type="line"/>
			<point x="151" y="457"/>
			<point x="85" y="455"/>
			<point x="-2" y="459" type="curve"/>
			<point x="4" y="414" type="line"/>
			<point x="40" y="415"/>
			<point x="64" y="405"/>
			<point x="80" y="356" type="curve" smooth="yes"/>
			<point x="140" y="172"/>
			<point x="172" y="80"/>
			<point x="202" y="-6" type="curve"/>
		</contour>
		<contour>
			<point x="114" y="-206"/>
			<point x="189" y="-185"/>
			<point x="230" y="-122" type="curve" smooth="yes"/>
			<point x="256" y="-82"/>
			<point x="284" y="-7"/>
			<point x="304" y="39" type="curve"/>
			<point x="252" y="43" type="line"/>
			<point x="218" y="-30"/>
			<point x="182" y="-129"/>
			<point x="33" y="-110" type="curve"/>
			<point x="25" y="-126"/>
			<point x="19" y="-178"/>
			<point x="49" y="-203" type="curve"/>
		</contour>
	</outline>
</glyph>
<glyph name="z" format="2">
	<unicode hex="007A"/>
	<advance width="438"/>
	<outline>
		<contour>
			<point x="403" y="0" type="line"/>
			<point x="413" y="42"/>
			<point x="414" y="91"/>
			<point x="413" y="139" type="curve"/>
			<point x="411" y="139"/>
			<point x="375" y="135"/>
			<point x="367" y="135" type="curve"/>
			<point x="367" y="96"/>
			<point x="361" y="62"/>
			<point x="350" y="60" type="curve" smooth="yes"/>
			<point x="293" y="51"/>
			<point x="237" y="52"/>
			<point x="230" y="52" type="curve" smooth="yes"/>
			<point x="146" y="52"/>
			<point x="156" y="68"/>
			<point x="186" y="116" type="curve" smooth="yes"/>
			<point x="201" y="139"/>
			<point x="373" y="378"/>
			<point x="416" y="420" type="curve"/>
			<point x="411" y="460" type="line"/>
			<point x="355" y="457"/>
			<point x="172" y="453"/>
			<point x="54" y="460" type="curve"/>
			<point x="50" y="417"/>
			<point x="49" y="363"/>
			<point x="52" y="322" type="curve"/>
			<point x="99" y="326" type="line"/>
			<point x="98" y="342"/>
			<point x="105" y="387"/>
			<point x="114" y="401" type="curve"/>
			<point x="151" y="407"/>
			<point x="252" y="411"/>
			<point x="295" y="404" type="curve"/>
			<point x="263" y="349"/>
			<point x="111" y="129"/>
			<point x="28" y="45" type="curve"/>
			<point x="33" y="0" type="line"/>
		</contour>
	</outline>
</glyph>
<glyph name="braceleft" format="2">
	<unicode hex="007B"/>
	<advance width="337"/>
	<outline>
		<contour>
			<point x="293" y="-39" type="line"/>
			<point x="241" y="-16"/>
			<point x="230" y="21"/>
			<point x="233" y="62" type="curve" smooth="yes"/>
			<point x="234" y="109"/>
			<point x="262" y="136"/>
			<point x="262" y="197" type="curve" smooth="yes"/>
			<point x="262" y="247"/>
			<point x="231" y="276"/>
			<point x="192" y="293" type="curve"/>
			<point x="192" y="313" type="line"/>
			<point x="166" y="320"/>
			<point x="87" y="313"/>
			<point x="58" y="315" type="curve"/>
			<point x="58" y="275" type="line"/>
			<point x="237" y="271"/>
			<point x="146" y="152"/>
			<point x="149" y="48" type="curve" smooth="yes"/>
			<point x="151" y="-24"/>
			<point x="226" y="-69"/>
			<point x="275" y="-76" type="curve"/>
		</contour>
		<contour>
			<point x="152" y="287"/>
			<point x="257" y="308"/>
			<point x="257" y="400" type="curve" smooth="yes"/>
			<point x="257" y="461"/>
			<point x="226" y="506"/>
			<point x="228" y="552" type="curve" smooth="yes"/>
			<point x="229" y="594"/>
			<point x="236" y="626"/>
			<point x="288" y="648" type="curve"/>
			<point x="264" y="678" type="line"/>
			<point x="223" y="665"/>
			<point x="147" y="618"/>
			<point x="145" y="547" type="curve" smooth="yes"/>
			<point x="142" y="443"/>
			<point x="237" y="326"/>
			<point x="58" y="323" type="curve"/>
			<point x="58" y="283" type="line"/>
		</contour>
	</outline>
</glyph>
<glyph name="bar" format="1">
	<unicode hex="007C"/>
	<advance width="183"/>
	<outline>
		<contour>
			<point x="128" y="-119" type="line"/>
			<point x="119" y="-24"/>
			<point x="126" y="458"/>
			<point x="128" y="571" type="curve"/>
			<point x="109" y="567"/>
			<point x="83" y="564"/>
			<point x="63" y="562" type="curve"/>
			<point x="67" y="450"/>
			<point x="65" y="42"/>
			<point x="62" y="-124" type="curve"/>
		</contour>
	</outline>
</glyph>
<glyph name="asciitilde" format="1">
	<unicode hex="007E"/>
	<advance width="462"/>
	<outline>
		<contour>
			<point x="34" y="290"/>
			<point x="72" y="327"/>
			<point x="142" y="327" type="curve" smooth="yes"/>
			<point x="228" y="327"/>
			<point x="234" y="283"/>
			<point x="313" y="283" type="curve" smooth="yes"/>
			<point x="360" y="283"/>
			<point x="384" y="277"/>
			<point x="408" y="319" type="curve"/>
			<point x="443" y="295" type="line"/>
			<point x="419" y="243"/>
			<point x="382" y="218"/>
			<point x="311" y="218" type="curve" smooth="yes"/>
			<point x="219" y="218"/>
			<point x="198" y="267"/>
			<point x="136" y="267" type="curve" smooth="yes"/>
			<point x="103" y="267"/>
			<point x="63" y="253"/>
			<point x="51" y="226" type="curve"/>
			<point x="17" y="249" type="line"/>
		</contour>
	</outline>
</glyph>
<glyph name="cent" format="1">
	<unicode hex="00A2"/>
	<advance width="580"/>
	<outline>
		<contour>
			<point x="56" y="470"/>
			<point x="156" y="655"/>
			<point x="378" y="655" type="curve" smooth="yes"/>
			<point x="464" y="655"/>
			<point x="519" y="627"/>
			<point x="519" y="627" type="curve"/>
			<point x="520" y="615"/>
			<point x="520" y="599"/>
			<point x="520" y="581" type="curve" smooth="yes"/>
			<point x="520" y="547"/>
			<point x="519" y="509"/>
			<point x="514" y="482" type="curve"/>
			<point x="457" y="487" type="line"/>
			<point x="437" y="528"/>
			<point x="419" y="565"/>
			<point x="372" y="598" type="curve"/>
			<point x="405" y="589"/>
			<point x="425" y="571"/>
			<point x="440" y="547" type="curve"/>
			<point x="419" y="564"/>
			<point x="376" y="591"/>
			<point x="326" y="591" type="curve" smooth="yes"/>
			<point x="236" y="591"/>
			<point x="172" y="485"/>
			<point x="172" y="342" type="curve" smooth="yes"/>
			<point x="172" y="207"/>
			<point x="249" y="125"/>
			<point x="361" y="125" type="curve" smooth="yes"/>
			<point x="424" y="125"/>
			<point x="477" y="150"/>
			<point x="512" y="181" type="curve"/>
			<point x="533" y="147" type="line"/>
			<point x="480" y="87"/>
			<point x="408" y="54"/>
			<point x="319" y="54" type="curve" smooth="yes"/>
			<point x="178" y="54"/>
			<point x="56" y="124"/>
			<point x="56" y="319" type="curve" smooth="yes"/>
		</contour>
		<contour>
			<point x="291" y="165"/>
			<point x="303" y="614"/>
			<point x="298" y="760" type="curve"/>
			<point x="324" y="763"/>
			<point x="352" y="767"/>
			<point x="376" y="771" type="curve"/>
			<point x="374" y="625"/>
			<point x="355" y="79"/>
			<point x="366" y="-44" type="curve"/>
			<point x="286" y="-51" type="line"/>
		</contour>
	</outline>
</glyph>
<glyph name="sterling" format="2">
	<advance width="462"/>
	<unicode hex="00A3"/>
	<outline>
		<contour>
			<point x="306" y="579"/>
			<point x="333" y="557"/>
			<point x="350" y="543" type="curve"/>
			<point x="338" y="562"/>
			<point x="321" y="577"/>
			<point x="295" y="577" type="curve"/>
			<point x="333" y="557"/>
			<point x="340" y="527"/>
			<point x="356" y="494" type="curve"/>
			<point x="410" y="490" type="line"/>
			<point x="415" y="524"/>
			<point x="415" y="578"/>
			<point x="413" y="608" type="curve"/>
			<point x="413" y="608"/>
			<point x="342" y="623"/>
			<point x="277" y="623" type="curve" smooth="yes"/>
			<point x="229" y="623"/>
			<point x="79" y="611"/>
			<point x="79" y="482" type="curve" smooth="yes"/>
			<point x="79" y="337"/>
			<point x="230" y="320"/>
			<point x="199" y="219" type="curve" smooth="yes"/>
			<point x="176" y="146"/>
			<point x="94" y="80"/>
			<point x="35" y="34" type="curve"/>
			<point x="52" y="0" type="line"/>
			<point x="430" y="1" type="line"/>
			<point x="438" y="59"/>
			<point x="442" y="94"/>
			<point x="439" y="125" type="curve"/>
			<point x="425" y="126"/>
			<point x="411" y="126"/>
			<point x="386" y="123" type="curve"/>
			<point x="382" y="95"/>
			<point x="370" y="69"/>
			<point x="356" y="46" type="curve"/>
			<point x="372" y="66" type="line"/>
			<point x="318" y="71"/>
			<point x="193" y="75"/>
			<point x="83" y="44" type="curve"/>
			<point x="112" y="19" type="line"/>
			<point x="149" y="43"/>
			<point x="277" y="111"/>
			<point x="277" y="219" type="curve" smooth="yes"/>
			<point x="277" y="316"/>
			<point x="172" y="384"/>
			<point x="169" y="487" type="curve" smooth="yes"/>
			<point x="168" y="552"/>
			<point x="214" y="579"/>
			<point x="266" y="579" type="curve" smooth="yes"/>
		</contour>
		<contour>
			<point x="399" y="271" type="line"/>
			<point x="395" y="290"/>
			<point x="391" y="319"/>
			<point x="387" y="340" type="curve"/>
			<point x="255" y="332"/>
			<point x="143" y="332"/>
			<point x="39" y="340" type="curve"/>
			<point x="43" y="271" type="line"/>
		</contour>
	</outline>
</glyph>
<glyph name="currency" format="1">
	<unicode hex="00A4"/>
	<advance width="600"/>
	<outline>
		<contour>
			<point x="443" y="149"/>
			<point x="508" y="255"/>
			<point x="508" y="363" type="curve" smooth="yes"/>
			<point x="508" y="471"/>
			<point x="428" y="548"/>
			<point x="317" y="548" type="curve" smooth="yes"/>
			<point x="199" y="548"/>
			<point x="100" y="463"/>
			<point x="100" y="340" type="curve" smooth="yes"/>
			<point x="100" y="238"/>
			<point x="174" y="149"/>
			<point x="295" y="149" type="curve" smooth="yes"/>
		</contour>
		<contour>
			<point x="227" y="205"/>
			<point x="185" y="265"/>
			<point x="185" y="342" type="curve" smooth="yes"/>
			<point x="185" y="460"/>
			<point x="251" y="493"/>
			<point x="306" y="493" type="curve" smooth="yes"/>
			<point x="367" y="493"/>
			<point x="427" y="439"/>
			<point x="427" y="355" type="curve" smooth="yes"/>
			<point x="427" y="273"/>
			<point x="385" y="205"/>
			<point x="304" y="205" type="curve" smooth="yes"/>
		</contour>
		<contour>
			<point x="42" y="483"/>
			<point x="104" y="450"/>
			<point x="151" y="423" type="curve"/>
			<point x="185" y="478" type="line"/>
			<point x="150" y="498"/>
			<point x="64" y="558"/>
			<point x="37" y="577" type="curve"/>
			<point x="24" y="562"/>
			<point x="10" y="540"/>
			<point x="-7" y="507" type="curve"/>
		</contour>
		<contour>
			<point x="601" y="540"/>
			<point x="586" y="561"/>
			<point x="573" y="576" type="curve"/>
			<point x="547" y="555"/>
			<point x="463" y="492"/>
			<point x="429" y="470" type="curve"/>
			<point x="466" y="417" type="line"/>
			<point x="511" y="446"/>
			<point x="572" y="481"/>
			<point x="620" y="508" type="curve"/>
		</contour>
		<contour>
			<point x="28" y="143"/>
			<point x="43" y="122"/>
			<point x="56" y="107" type="curve"/>
			<point x="82" y="128"/>
			<point x="166" y="191"/>
			<point x="200" y="213" type="curve"/>
			<point x="163" y="266" type="line"/>
			<point x="118" y="237"/>
			<point x="57" y="202"/>
			<point x="9" y="175" type="curve"/>
		</contour>
		<contour>
			<point x="562" y="199"/>
			<point x="501" y="234"/>
			<point x="456" y="263" type="curve"/>
			<point x="419" y="210" type="line"/>
			<point x="453" y="188"/>
			<point x="537" y="125"/>
			<point x="563" y="104" type="curve"/>
			<point x="576" y="119"/>
			<point x="591" y="140"/>
			<point x="610" y="172" type="curve"/>
		</contour>
	</outline>
</glyph>
<glyph name="yen" format="1">
	<unicode hex="00A5"/>
	<advance width="558"/>
	<outline>
		<contour>
			<point x="501" y="256" type="line"/>
			<point x="497" y="275"/>
			<point x="493" y="296"/>
			<point x="489" y="316" type="curve"/>
			<point x="357" y="309"/>
			<point x="218" y="309"/>
			<point x="69" y="316" type="curve"/>
			<point x="74" y="256" type="line"/>
		</contour>
		<contour>
			<point x="501" y="156" type="line"/>
			<point x="497" y="174"/>
			<point x="493" y="196"/>
			<point x="489" y="216" type="curve"/>
			<point x="357" y="209"/>
			<point x="218" y="209"/>
			<point x="69" y="216" type="curve"/>
			<point x="74" y="156" type="line"/>
		</contour>
		<component base="Y"/>
	</outline>
</glyph>
<glyph name="brokenbar" format="1">
	<unicode hex="00A6"/>
	<advance width="186"/>
	<outline>
		<contour>
			<point x="126" y="263" type="line"/>
			<point x="126" y="358"/>
			<point x="128" y="458"/>
			<point x="129" y="571" type="curve"/>
			<point x="109" y="567"/>
			<point x="82" y="564"/>
			<point x="62" y="563" type="curve"/>
			<point x="65" y="450"/>
			<point x="65" y="353"/>
			<point x="66" y="263" type="curve"/>
		</contour>
		<contour>
			<point x="66" y="178" type="line"/>
			<point x="66" y="83"/>
			<point x="65" y="-28"/>
			<point x="63" y="-122" type="curve"/>
			<point x="127" y="-122" type="line"/>
			<point x="124" y="-28"/>
			<point x="126" y="83"/>
			<point x="126" y="178" type="curve"/>
		</contour>
	</outline>
</glyph>
<glyph name="section" format="1">
	<unicode hex="00A7"/>
	<advance width="462"/>
	<outline>
		<contour>
			<point x="430" y="10"/>
			<point x="478" y="89"/>
			<point x="478" y="170" type="curve" smooth="yes"/>
			<point x="478" y="355"/>
			<point x="242" y="398"/>
			<point x="242" y="500" type="curve" smooth="yes"/>
			<point x="242" y="537"/>
			<point x="271" y="565"/>
			<point x="315" y="565" type="curve" smooth="yes"/>
			<point x="383" y="565"/>
			<point x="404" y="509"/>
			<point x="418" y="494" type="curve"/>
			<point x="371" y="571" type="line"/>
			<point x="389" y="530"/>
			<point x="401" y="504"/>
			<point x="403" y="472" type="curve"/>
			<point x="464" y="464" type="line"/>
			<point x="467" y="484"/>
			<point x="469" y="512"/>
			<point x="469" y="541" type="curve" smooth="yes"/>
			<point x="469" y="557"/>
			<point x="468" y="573"/>
			<point x="467" y="585" type="curve"/>
			<point x="467" y="585"/>
			<point x="412" y="607"/>
			<point x="338" y="607" type="curve" smooth="yes"/>
			<point x="221" y="607"/>
			<point x="170" y="542"/>
			<point x="170" y="472" type="curve" smooth="yes"/>
			<point x="170" y="343"/>
			<point x="404" y="306"/>
			<point x="404" y="158" type="curve" smooth="yes"/>
			<point x="404" y="91"/>
			<point x="375" y="51"/>
			<point x="315" y="50" type="curve"/>
			<point x="303" y="9" type="line"/>
		</contour>
		<contour>
			<point x="317" y="-123"/>
			<point x="365" y="-39"/>
			<point x="365" y="33" type="curve" smooth="yes"/>
			<point x="365" y="189"/>
			<point x="129" y="234"/>
			<point x="129" y="347" type="curve" smooth="yes"/>
			<point x="129" y="403"/>
			<point x="166" y="432"/>
			<point x="209" y="432" type="curve"/>
			<point x="233" y="474" type="line"/>
			<point x="116" y="474"/>
			<point x="54" y="406"/>
			<point x="54" y="316" type="curve" smooth="yes"/>
			<point x="54" y="169"/>
			<point x="283" y="139"/>
			<point x="283" y="11" type="curve" smooth="yes"/>
			<point x="283" y="-30"/>
			<point x="254" y="-75"/>
			<point x="194" y="-75" type="curve" smooth="yes"/>
			<point x="132" y="-76"/>
			<point x="116" y="-48"/>
			<point x="89" y="-16" type="curve"/>
			<point x="97" y="-53"/>
			<point x="92" y="-74"/>
			<point x="131" y="-84" type="curve"/>
			<point x="105" y="-54"/>
			<point x="104" y="-22"/>
			<point x="101" y="18" type="curve"/>
			<point x="42" y="25" type="line"/>
			<point x="36" y="-10"/>
			<point x="34" y="-38"/>
			<point x="34" y="-67" type="curve" smooth="yes"/>
			<point x="34" y="-81"/>
			<point x="35" y="-94"/>
			<point x="36" y="-104" type="curve"/>
			<point x="36" y="-104"/>
			<point x="88" y="-125"/>
			<point x="182" y="-124" type="curve" smooth="yes"/>
		</contour>
	</outline>
</glyph>
<glyph name="dieresis" format="1">
	<unicode hex="00A8"/>
	<outline>
		<contour>
			<point x="-73" y="953"/>
			<point x="-45" y="977"/>
			<point x="-45" y="1012" type="curve" smooth="yes"/>
			<point x="-45" y="1047"/>
			<point x="-73" y="1075"/>
			<point x="-108" y="1075" type="curve" smooth="yes"/>
			<point x="-143" y="1075"/>
			<point x="-171" y="1051"/>
			<point x="-171" y="1016" type="curve" smooth="yes"/>
			<point x="-171" y="981"/>
			<point x="-143" y="953"/>
			<point x="-108" y="953" type="curve" smooth="yes"/>
		</contour>
		<contour>
			<point x="140" y="952"/>
			<point x="163" y="980"/>
			<point x="163" y="1015" type="curve" smooth="yes"/>
			<point x="163" y="1050"/>
			<point x="140" y="1078"/>
			<point x="105" y="1078" type="curve" smooth="yes"/>
			<point x="70" y="1078"/>
			<point x="42" y="1050"/>
			<point x="42" y="1015" type="curve" smooth="yes"/>
			<point x="42" y="980"/>
			<point x="70" y="952"/>
			<point x="105" y="952" type="curve" smooth="yes"/>
		</contour>
		<contour>
			<point name="_top" x="-4" y="891" type="move"/>
		</contour>
	</outline>
</glyph>
<glyph name="copyright" format="1">
	<unicode hex="00A9"/>
	<advance width="795"/>
	<outline>
		<contour>
			<point x="223" y="-31"/>
			<point x="80" y="112"/>
			<point x="80" y="287" type="curve" smooth="yes"/>
			<point x="80" y="462"/>
			<point x="223" y="604"/>
			<point x="398" y="604" type="curve" smooth="yes"/>
			<point x="573" y="604"/>
			<point x="715" y="462"/>
			<point x="715" y="287" type="curve" smooth="yes"/>
			<point x="715" y="112"/>
			<point x="573" y="-31"/>
			<point x="398" y="-31" type="curve" smooth="yes"/>
		</contour>
		<contour>
			<point x="604" y="-88"/>
			<point x="772" y="80"/>
			<point x="772" y="287" type="curve" smooth="yes"/>
			<point x="772" y="494"/>
			<point x="604" y="661"/>
			<point x="398" y="661" type="curve" smooth="yes"/>
			<point x="191" y="661"/>
			<point x="23" y="494"/>
			<point x="23" y="287" type="curve" smooth="yes"/>
			<point x="23" y="80"/>
			<point x="191" y="-88"/>
			<point x="398" y="-88" type="curve" smooth="yes"/>
		</contour>
		<component base="c" xScale="0.924" yScale="0.924" xOffset="165" yOffset="73"/>
	</outline>
</glyph>
<glyph name="logicalnot" format="1">
  <advance width="485"/>
  <unicode hex="00AC"/>
  <outline>
    <contour>
      <point x="40" y="258" type="line"/>
      <point x="399" y="258" type="line"/>
      <point x="400" y="199"/>
      <point x="399" y="139"/>
      <point x="398" y="79" type="curve"/>
      <point x="454" y="80" type="line"/>
      <point x="454" y="319" type="line"/>
      <point x="330" y="315"/>
      <point x="174" y="316"/>
      <point x="42" y="316" type="curve"/>
    </contour>
  </outline>
</glyph>
<glyph name="registered" format="1">
	<unicode hex="00AE"/>
	<advance width="520"/>
	<outline>
		<contour>
			<point x="136" y="336"/>
			<point x="43" y="414"/>
			<point x="43" y="550" type="curve" smooth="yes"/>
			<point x="43" y="663"/>
			<point x="122" y="767"/>
			<point x="257" y="767" type="curve" smooth="yes"/>
			<point x="370" y="767"/>
			<point x="460" y="673"/>
			<point x="460" y="550" type="curve" smooth="yes"/>
			<point x="460" y="436"/>
			<point x="386" y="336"/>
			<point x="250" y="336" type="curve" smooth="yes"/>
		</contour>
		<contour>
			<point x="392" y="299"/>
			<point x="507" y="407"/>
			<point x="507" y="549" type="curve" smooth="yes"/>
			<point x="507" y="690"/>
			<point x="398" y="804"/>
			<point x="250" y="804" type="curve" smooth="yes"/>
			<point x="108" y="804"/>
			<point x="-5" y="691"/>
			<point x="-5" y="550" type="curve" smooth="yes"/>
			<point x="-5" y="408"/>
			<point x="108" y="299"/>
			<point x="250" y="299" type="curve" smooth="yes"/>
		</contour>
		<contour>
			<point x="141" y="664" type="line"/>
			<point x="169" y="663"/>
			<point x="174" y="648"/>
			<point x="175" y="629" type="curve" smooth="yes"/>
			<point x="176" y="610"/>
			<point x="177" y="592"/>
			<point x="177" y="573" type="curve" smooth="yes"/>
			<point x="177" y="544"/>
			<point x="175" y="511"/>
			<point x="173" y="470" type="curve" smooth="yes"/>
			<point x="172" y="453"/>
			<point x="165" y="445"/>
			<point x="143" y="445" type="curve"/>
			<point x="146" y="420" type="line"/>
			<point x="254" y="420" type="line"/>
			<point x="250" y="445" type="line"/>
			<point x="232" y="445"/>
			<point x="220" y="451"/>
			<point x="219" y="470" type="curve" smooth="yes"/>
			<point x="218" y="486"/>
			<point x="216" y="524"/>
			<point x="217" y="555" type="curve"/>
			<point x="208" y="541" type="line"/>
			<point x="215" y="540"/>
			<point x="233" y="537"/>
			<point x="249" y="537" type="curve" smooth="yes"/>
			<point x="307" y="537"/>
			<point x="352" y="569"/>
			<point x="352" y="622" type="curve" smooth="yes"/>
			<point x="352" y="659"/>
			<point x="328" y="690"/>
			<point x="277" y="690" type="curve" smooth="yes"/>
			<point x="241" y="690"/>
			<point x="205" y="687"/>
			<point x="170" y="687" type="curve" smooth="yes"/>
			<point x="160" y="687"/>
			<point x="149" y="687"/>
			<point x="139" y="688" type="curve"/>
		</contour>
		<contour>
			<point x="280" y="500"/>
			<point x="316" y="434"/>
			<point x="332" y="420" type="curve"/>
			<point x="390" y="420" type="line"/>
			<point x="386" y="448" type="line"/>
			<point x="355" y="447"/>
			<point x="319" y="523"/>
			<point x="298" y="558" type="curve"/>
			<point x="262" y="552" type="line"/>
		</contour>
		<contour>
			<point x="226" y="661"/>
			<point x="238" y="665"/>
			<point x="253" y="665" type="curve" smooth="yes"/>
			<point x="287" y="665"/>
			<point x="303" y="647"/>
			<point x="303" y="621" type="curve" smooth="yes"/>
			<point x="303" y="592"/>
			<point x="291" y="567"/>
			<point x="252" y="567" type="curve" smooth="yes"/>
			<point x="239" y="567"/>
			<point x="224" y="568"/>
			<point x="217" y="571" type="curve"/>
			<point x="217" y="599"/>
			<point x="217" y="637"/>
			<point x="219" y="658" type="curve"/>
		</contour>
	</outline>
</glyph>
<glyph name="macron" format="2">
	<advance width="0"/>
	<unicode hex="00AF"/>
	<outline>
		<contour>
			<point x="168" y="680" type="line"/>
			<point x="169" y="706"/>
			<point x="174" y="730"/>
			<point x="176" y="751" type="curve"/>
			<point x="43" y="743"/>
			<point x="-20" y="743"/>
			<point x="-169" y="751" type="curve"/>
			<point x="-179" y="680" type="line"/>
		</contour>
	</outline>
</glyph>
<glyph name="degree" format="1">
	<unicode hex="00B0"/>
	<advance width="601"/>
	<outline>
		<contour>
			<point x="213" y="489"/>
			<point x="271" y="547"/>
			<point x="271" y="620" type="curve" smooth="yes"/>
			<point x="271" y="692"/>
			<point x="213" y="750"/>
			<point x="141" y="750" type="curve" smooth="yes"/>
			<point x="68" y="750"/>
			<point x="10" y="692"/>
			<point x="10" y="620" type="curve" smooth="yes"/>
			<point x="10" y="547"/>
			<point x="68" y="489"/>
			<point x="141" y="489" type="curve" smooth="yes"/>
		</contour>
		<contour>
			<point x="110" y="559"/>
			<point x="83" y="586"/>
			<point x="83" y="619" type="curve" smooth="yes"/>
			<point x="83" y="651"/>
			<point x="110" y="678"/>
			<point x="143" y="678" type="curve" smooth="yes"/>
			<point x="175" y="678"/>
			<point x="202" y="651"/>
			<point x="202" y="619" type="curve" smooth="yes"/>
			<point x="202" y="586"/>
			<point x="175" y="559"/>
			<point x="143" y="559" type="curve" smooth="yes"/>
		</contour>
	</outline>
</glyph>
<glyph name="plusminus" format="1">
	<unicode hex="00B1"/>
	<advance width="462"/>
	<outline>
		<contour>
			<point x="211" y="470" type="line"/>
			<point x="216" y="349"/>
			<point x="214" y="229"/>
			<point x="211" y="109" type="curve"/>
			<point x="285" y="112" type="line"/>
			<point x="281" y="219"/>
			<point x="280" y="335"/>
			<point x="285" y="472" type="curve"/>
		</contour>
		<contour>
			<point x="59" y="252" type="line"/>
			<point x="161" y="256"/>
			<point x="296" y="256"/>
			<point x="434" y="252" type="curve"/>
			<point x="441" y="326" type="line"/>
			<point x="320" y="323"/>
			<point x="179" y="323"/>
			<point x="60" y="326" type="curve"/>
		</contour>
		<contour>
			<point x="72" y="-8" type="line"/>
			<point x="174" y="-4"/>
			<point x="286" y="-4"/>
			<point x="424" y="-8" type="curve"/>
			<point x="431" y="67" type="line"/>
			<point x="310" y="63"/>
			<point x="193" y="63"/>
			<point x="73" y="67" type="curve"/>
		</contour>
	</outline>
</glyph>
<glyph name="twosuperior" format="1">
	<unicode hex="00B2"/>
	<advance width="312"/>
	<outline>
		<contour>
			<point x="283" y="417" type="line"/>
			<point x="287" y="504" type="line"/>
			<point x="249" y="500" type="line"/>
			<point x="247" y="487"/>
			<point x="249" y="461"/>
			<point x="217" y="461" type="curve" smooth="yes"/>
			<point x="89" y="460" type="line"/>
			<point x="77" y="442" type="line"/>
			<point x="154" y="488"/>
			<point x="281" y="574"/>
			<point x="280" y="682" type="curve" smooth="yes"/>
			<point x="279" y="747"/>
			<point x="237" y="772"/>
			<point x="167" y="772" type="curve" smooth="yes"/>
			<point x="126" y="772"/>
			<point x="71" y="759"/>
			<point x="49" y="747" type="curve"/>
			<point x="49" y="747"/>
			<point x="48" y="714"/>
			<point x="51" y="685" type="curve"/>
			<point x="85" y="689" type="line"/>
			<point x="94" y="732"/>
			<point x="123" y="738"/>
			<point x="141" y="739" type="curve" smooth="yes"/>
			<point x="189" y="742"/>
			<point x="213" y="717"/>
			<point x="213" y="674" type="curve" smooth="yes"/>
			<point x="213" y="578"/>
			<point x="122" y="519"/>
			<point x="41" y="455" type="curve"/>
			<point x="47" y="417" type="line"/>
		</contour>
	</outline>
</glyph>
<glyph name="threesuperior" format="1">
  <advance width="348"/>
  <unicode hex="00B3"/>
  <outline>
    <contour>
      <point x="308" y="583"/>
      <point x="308" y="673" type="curve" smooth="yes"/>
      <point x="308" y="739"/>
      <point x="256" y="796"/>
      <point x="145" y="780" type="curve"/>
      <point x="152" y="772" type="line"/>
      <point x="254" y="796"/>
      <point x="291" y="848"/>
      <point x="291" y="911" type="curve" smooth="yes"/>
      <point x="291" y="968"/>
      <point x="255" y="1003"/>
      <point x="167" y="1005" type="curve" smooth="yes"/>
      <point x="118" y="1006"/>
      <point x="61" y="992"/>
      <point x="31" y="978" type="curve"/>
      <point x="31" y="978"/>
      <point x="30" y="967"/>
      <point x="30" y="950" type="curve" smooth="yes"/>
      <point x="30" y="936"/>
      <point x="31" y="917"/>
      <point x="33" y="900" type="curve"/>
      <point x="78" y="905" type="line"/>
      <point x="86" y="948"/>
      <point x="104" y="968"/>
      <point x="145" y="968" type="curve" smooth="yes"/>
      <point x="184" y="968"/>
      <point x="206" y="948"/>
      <point x="206" y="903" type="curve" smooth="yes"/>
      <point x="206" y="845"/>
      <point x="156" y="804"/>
      <point x="70" y="792" type="curve"/>
      <point x="75" y="752" type="line"/>
      <point x="198" y="754"/>
      <point x="234" y="718"/>
      <point x="234" y="654" type="curve" smooth="yes"/>
      <point x="234" y="617"/>
      <point x="212" y="582"/>
      <point x="155" y="582" type="curve" smooth="yes"/>
      <point x="102" y="582"/>
      <point x="63" y="610"/>
      <point x="48" y="640" type="curve"/>
      <point x="38" y="619"/>
      <point x="31" y="582"/>
      <point x="31" y="555" type="curve" smooth="yes"/>
      <point x="31" y="551"/>
      <point x="32" y="548"/>
      <point x="32" y="546" type="curve"/>
      <point x="54" y="540"/>
      <point x="90" y="534"/>
      <point x="132" y="534" type="curve" smooth="yes"/>
      <point x="231" y="534"/>
    </contour>
  </outline>
</glyph>
<glyph name="acute" format="1">
	<unicode hex="00B4"/>
	<outline>
		<contour>
			<point x="-35" y="662"/>
			<point x="75" y="740"/>
			<point x="116" y="772" type="curve"/>
			<point x="112" y="799"/>
			<point x="84" y="830"/>
			<point x="65" y="843" type="curve"/>
			<point x="23" y="801"/>
			<point x="-72" y="721"/>
			<point x="-110" y="693" type="curve"/>
			<point x="-86" y="640" type="line"/>
		</contour>
	</outline>
</glyph>
<glyph name="micro" format="1">
	<unicode hex="00B5"/>
	<advance width="728"/>
	<outline>
		<contour>
			<point x="713" y="0" type="line"/>
			<point x="704" y="56" type="line"/>
			<point x="592" y="59"/>
			<point x="591" y="115"/>
			<point x="591" y="220" type="curve" smooth="yes"/>
			<point x="591" y="312"/>
			<point x="597" y="459"/>
			<point x="608" y="603" type="curve"/>
			<point x="566" y="603"/>
			<point x="531" y="599"/>
			<point x="491" y="590" type="curve"/>
			<point x="500" y="490"/>
			<point x="498" y="405"/>
			<point x="498" y="319" type="curve" smooth="yes"/>
			<point x="498" y="247" type="line" smooth="yes"/>
			<point x="498" y="203"/>
			<point x="498" y="161"/>
			<point x="496" y="120" type="curve"/>
			<point x="496" y="120"/>
			<point x="507" y="141"/>
			<point x="514" y="141" type="curve" smooth="yes"/>
			<point x="517" y="141"/>
			<point x="511" y="137"/>
			<point x="511" y="128" type="curve"/>
			<point x="505" y="102"/>
			<point x="492" y="0"/>
			<point x="492" y="0" type="curve"/>
		</contour>
		<contour>
			<point x="503" y="181"/>
			<point x="435" y="90"/>
			<point x="334" y="90" type="curve" smooth="yes"/>
			<point x="275" y="90"/>
			<point x="229" y="123"/>
			<point x="221" y="186" type="curve" smooth="yes"/>
			<point x="217" y="216"/>
			<point x="215" y="251"/>
			<point x="215" y="295" type="curve" smooth="yes"/>
			<point x="215" y="401"/>
			<point x="216" y="464"/>
			<point x="224" y="601" type="curve"/>
			<point x="174" y="601"/>
			<point x="149" y="594"/>
			<point x="107" y="589" type="curve"/>
			<point x="118" y="494"/>
			<point x="122" y="291"/>
			<point x="118" y="166" type="curve" smooth="yes"/>
			<point x="106" y="-233" type="line"/>
			<point x="213" y="-233" type="line"/>
			<point x="202" y="-119"/>
			<point x="199" y="-8"/>
			<point x="201" y="82" type="curve"/>
			<point x="187" y="61" type="line"/>
			<point x="190" y="50"/>
			<point x="215" y="-4"/>
			<point x="307" y="-4" type="curve" smooth="yes"/>
			<point x="408" y="-4"/>
			<point x="479" y="76"/>
			<point x="528" y="144" type="curve"/>
			<point x="503" y="181" type="line"/>
		</contour>
		<contour>
			<point name="ogonek" x="334" y="10" type="move"/>
		</contour>
		<contour>
			<point name="top" x="344" y="667" type="move"/>
		</contour>
	</outline>
</glyph>
<glyph name="paragraph" format="2">
	<unicode hex="00B6"/>
	<advance width="642"/>
	<outline>
		<contour>
			<point x="534" y="-119" type="line"/>
			<point x="525" y="-24"/>
			<point x="529" y="497"/>
			<point x="534" y="609" type="curve"/>
			<point x="515" y="606"/>
			<point x="460" y="603"/>
			<point x="440" y="601" type="curve"/>
			<point x="448" y="395"/>
			<point x="434" y="42"/>
			<point x="426" y="-124" type="curve"/>
		</contour>
		<contour>
			<point x="353" y="255"/>
			<point x="348" y="387"/>
			<point x="359" y="534" type="curve"/>
			<point x="403" y="537"/>
			<point x="534" y="542"/>
			<point x="600" y="544" type="curve"/>
			<point x="604" y="616" type="line"/>
			<point x="497" y="609"/>
			<point x="375" y="618"/>
			<point x="259" y="611" type="curve" smooth="yes"/>
			<point x="133" y="604"/>
			<point x="70" y="535"/>
			<point x="69" y="418" type="curve" smooth="yes"/>
			<point x="69" y="293"/>
			<point x="162" y="203"/>
			<point x="277" y="203" type="curve" smooth="yes"/>
			<point x="315" y="203"/>
			<point x="331" y="204"/>
			<point x="360" y="212" type="curve"/>
		</contour>
	</outline>
</glyph>
<glyph name="periodcentered" format="1">
	<unicode hex="00B7"/>
	<advance width="307"/>
	<outline>
		<contour>
			<point x="203" y="159"/>
			<point x="245" y="196"/>
			<point x="245" y="253" type="curve" smooth="yes"/>
			<point x="245" y="306"/>
			<point x="203" y="341"/>
			<point x="153" y="341" type="curve" smooth="yes"/>
			<point x="99" y="341"/>
			<point x="61" y="303"/>
			<point x="62" y="249" type="curve" smooth="yes"/>
			<point x="62" y="202"/>
			<point x="95" y="159"/>
			<point x="156" y="159" type="curve" smooth="yes"/>
		</contour>
	</outline>
</glyph>
<glyph name="cedilla" format="1">
	<unicode hex="00B8"/>
	<outline>
		<contour>
			<point x="-32" y="-240"/>
			<point x="-65" y="-226"/>
			<point x="-82" y="-218" type="curve"/>
			<point x="-62" y="-180" type="line"/>
			<point x="-38" y="-192"/>
			<point x="-11" y="-196"/>
			<point x="15" y="-195" type="curve" smooth="yes"/>
			<point x="49" y="-194"/>
			<point x="84" y="-172"/>
			<point x="84" y="-142" type="curve" smooth="yes"/>
			<point x="84" y="-102"/>
			<point x="13" y="-105"/>
			<point x="-31" y="-110" type="curve"/>
			<point x="-23" y="0" type="line"/>
			<point x="-7" y="-1"/>
			<point x="9" y="0"/>
			<point x="25" y="1" type="curve"/>
			<point x="35" y="-72" type="line"/>
			<point x="38" y="-71"/>
			<point x="12" y="-66"/>
			<point x="14" y="-65" type="curve" smooth="yes"/>
			<point x="27" y="-61"/>
			<point x="51" y="-53"/>
			<point x="79" y="-54" type="curve" smooth="yes"/>
			<point x="136" y="-54"/>
			<point x="172" y="-80"/>
			<point x="172" y="-122" type="curve" smooth="yes"/>
			<point x="172" y="-193"/>
			<point x="109" y="-239"/>
			<point x="15" y="-239" type="curve" smooth="yes"/>
		</contour>
	</outline>
</glyph>
<glyph name="onesuperior" format="1">
	<unicode hex="00B9"/>
	<advance width="221"/>
	<outline>
		<contour>
			<point x="181" y="455"/>
			<point x="150" y="452"/>
			<point x="151" y="494" type="curve" smooth="yes"/>
			<point x="152" y="583"/>
			<point x="153" y="738"/>
			<point x="157" y="770" type="curve"/>
			<point x="157" y="770"/>
			<point x="70" y="747"/>
			<point x="26" y="748" type="curve"/>
			<point x="28" y="714" type="line"/>
			<point x="60" y="714"/>
			<point x="89" y="701"/>
			<point x="90" y="681" type="curve" smooth="yes"/>
			<point x="93" y="656"/>
			<point x="95" y="564"/>
			<point x="90" y="490" type="curve" smooth="yes"/>
			<point x="88" y="460"/>
			<point x="65" y="453"/>
			<point x="39" y="454" type="curve"/>
			<point x="42" y="414" type="line"/>
			<point x="198" y="414" type="line"/>
			<point x="193" y="455" type="line"/>
		</contour>
	</outline>
</glyph>
<glyph name="questiondown" format="1">
	<unicode hex="00BF"/>
	<advance width="600"/>
	<outline>
		<contour>
			<point x="244" y="593" type="line"/>
			<point x="248" y="572"/>
			<point x="257" y="493"/>
			<point x="257" y="428" type="curve" smooth="yes"/>
			<point x="257" y="414"/>
			<point x="310" y="482"/>
			<point x="305" y="474" type="curve"/>
			<point x="220" y="447"/>
			<point x="57" y="399"/>
			<point x="22" y="212" type="curve" smooth="yes"/>
			<point x="-6" y="58"/>
			<point x="92" y="-9"/>
			<point x="211" y="-9" type="curve" smooth="yes"/>
			<point x="298" y="-9"/>
			<point x="385" y="27"/>
			<point x="438" y="60" type="curve"/>
			<point x="413" y="99" type="line"/>
			<point x="383" y="82"/>
			<point x="340" y="56"/>
			<point x="286" y="60" type="curve" smooth="yes"/>
			<point x="162" y="70"/>
			<point x="114" y="156"/>
			<point x="131" y="260" type="curve" smooth="yes"/>
			<point x="152" y="392"/>
			<point x="298" y="423"/>
			<point x="350" y="428" type="curve"/>
			<point x="351" y="452"/>
			<point x="356" y="558"/>
			<point x="357" y="595" type="curve"/>
		</contour>
		<contour>
			<point x="346" y="200" type="line"/>
			<point x="343" y="165"/>
			<point x="336" y="95"/>
			<point x="326" y="60" type="curve"/>
			<point x="438" y="60" type="line"/>
			<point x="443" y="95"/>
			<point x="439" y="180"/>
			<point x="431" y="212" type="curve"/>
		</contour>
		<component base="period" xScale="-1" yScale="-1" xOffset="452" yOffset="802"/>
	</outline>
</glyph>
<glyph name="AE" format="1">
	<unicode hex="00C6"/>
	<advance width="1151"/>
	<outline>
		<contour>
			<point x="438" y="800"/>
			<point x="433" y="799" type="curve"/>
			<point x="375" y="644"/>
			<point x="257" y="375"/>
			<point x="135" y="136" type="curve" smooth="yes"/>
			<point x="111" y="89"/>
			<point x="79" y="65"/>
			<point x="20" y="61" type="curve"/>
			<point x="30" y="0" type="line"/>
			<point x="321" y="0" type="line"/>
			<point x="311" y="51" type="line"/>
			<point x="263" y="50"/>
			<point x="237" y="49"/>
			<point x="258" y="145" type="curve" smooth="yes"/>
			<point x="273" y="213"/>
			<point x="419" y="532"/>
			<point x="518" y="738" type="curve"/>
			<point x="485" y="712" type="line"/>
			<point x="536" y="726"/>
			<point x="578" y="724"/>
			<point x="582" y="663" type="curve" smooth="yes"/>
			<point x="585" y="597"/>
			<point x="587" y="526"/>
			<point x="587" y="456" type="curve" smooth="yes"/>
			<point x="587" y="342"/>
			<point x="583" y="229"/>
			<point x="576" y="141" type="curve" smooth="yes"/>
			<point x="572" y="92"/>
			<point x="566" y="67"/>
			<point x="489" y="61" type="curve"/>
			<point x="495" y="0" type="line"/>
			<point x="1079" y="0" type="line"/>
			<point x="1083" y="52"/>
			<point x="1083" y="116"/>
			<point x="1083" y="160" type="curve" smooth="yes"/>
			<point x="1083" y="189"/>
			<point x="1083" y="210"/>
			<point x="1083" y="212" type="curve"/>
			<point x="1011" y="204" type="line"/>
			<point x="996" y="138"/>
			<point x="973" y="78"/>
			<point x="930" y="29" type="curve"/>
			<point x="1008" y="91" type="line"/>
			<point x="967" y="81"/>
			<point x="868" y="71"/>
			<point x="789" y="71" type="curve" smooth="yes"/>
			<point x="770" y="71"/>
			<point x="746" y="72"/>
			<point x="733" y="73" type="curve" smooth="yes"/>
			<point x="697" y="76"/>
			<point x="692" y="108"/>
			<point x="691" y="135" type="curve" smooth="yes"/>
			<point x="689" y="190"/>
			<point x="687" y="263"/>
			<point x="687" y="345" type="curve" smooth="yes"/>
			<point x="687" y="446"/>
			<point x="690" y="561"/>
			<point x="701" y="673" type="curve" smooth="yes"/>
			<point x="704" y="703"/>
			<point x="716" y="733"/>
			<point x="766" y="733" type="curve" smooth="yes"/>
			<point x="839" y="733"/>
			<point x="930" y="730"/>
			<point x="1011" y="722" type="curve"/>
			<point x="916" y="771" type="line"/>
			<point x="959" y="732"/>
			<point x="984" y="663"/>
			<point x="991" y="604" type="curve"/>
			<point x="1063" y="597" type="line"/>
			<point x="1063" y="597"/>
			<point x="1070" y="661"/>
			<point x="1070" y="720" type="curve"/>
			<point x="1069" y="801" type="line"/>
			<point x="972" y="796"/>
			<point x="860" y="795"/>
			<point x="800" y="795" type="curve" smooth="yes"/>
			<point x="779" y="795"/>
			<point x="754" y="795"/>
			<point x="727" y="795" type="curve" smooth="yes"/>
			<point x="687" y="795"/>
		</contour>
		<contour>
			<point x="374" y="359"/>
			<point x="792" y="364"/>
			<point x="874" y="364" type="curve" smooth="yes"/>
			<point x="908" y="364"/>
			<point x="943" y="363"/>
			<point x="980" y="361" type="curve"/>
			<point x="980" y="452" type="line"/>
			<point x="798" y="435" type="line"/>
			<point x="631" y="435"/>
			<point x="433" y="430"/>
			<point x="296" y="434" type="curve"/>
			<point x="286" y="348" type="line"/>
		</contour>
		<contour>
			<point name="top" x="816" y="839" type="move"/>
		</contour>
		<contour>
			<point name="bottom" x="130" y="-1" type="move"/>
		</contour>
	</outline>
</glyph>
<glyph name="multiply" format="1">
	<unicode hex="00D7"/>
	<advance width="462"/>
	<outline>
		<contour>
			<point x="92" y="337" type="line"/>
			<point x="179" y="255"/>
			<point x="285" y="149"/>
			<point x="365" y="65" type="curve"/>
			<point x="421" y="121" type="line"/>
			<point x="349" y="188"/>
			<point x="242" y="295"/>
			<point x="147" y="392" type="curve"/>
		</contour>
		<contour>
			<point x="362" y="391" type="line"/>
			<point x="280" y="303"/>
			<point x="176" y="202"/>
			<point x="90" y="119" type="curve"/>
			<point x="146" y="63" type="line"/>
			<point x="219" y="141"/>
			<point x="318" y="241"/>
			<point x="418" y="335" type="curve"/>
		</contour>
	</outline>
</glyph>
<glyph name="Thorn" format="1">
	<unicode hex="00DE"/>
	<advance width="742"/>
	<outline>
		<contour>
			<point x="220" y="203"/>
			<point x="258" y="199"/>
			<point x="301" y="199" type="curve" smooth="yes"/>
			<point x="493" y="199"/>
			<point x="667" y="276"/>
			<point x="667" y="458" type="curve" smooth="yes"/>
			<point x="667" y="603"/>
			<point x="554" y="668"/>
			<point x="418" y="668" type="curve" smooth="yes"/>
			<point x="350" y="668"/>
			<point x="285" y="659"/>
			<point x="251" y="649" type="curve"/>
			<point x="251" y="593" type="line"/>
			<point x="269" y="604"/>
			<point x="348" y="607"/>
			<point x="379" y="606" type="curve" smooth="yes"/>
			<point x="490" y="604"/>
			<point x="538" y="539"/>
			<point x="538" y="463" type="curve" smooth="yes"/>
			<point x="538" y="346"/>
			<point x="476" y="259"/>
			<point x="365" y="259" type="curve" smooth="yes"/>
			<point x="290" y="259"/>
			<point x="237" y="300"/>
			<point x="237" y="300" type="curve"/>
			<point x="197" y="212" type="line"/>
		</contour>
		<component base="I"/>
	</outline>
</glyph>
<glyph name="germandbls" format="1">
	<unicode hex="00DF"/>
	<advance width="542"/>
	<outline>
		<contour>
			<point x="15" y="5" type="line"/>
			<point x="43" y="138"/>
			<point x="25" y="330"/>
			<point x="30" y="436" type="curve" smooth="yes"/>
			<point x="35" y="571"/>
			<point x="147" y="624"/>
			<point x="269" y="624" type="curve" smooth="yes"/>
			<point x="340" y="624"/>
			<point x="494" y="606"/>
			<point x="494" y="447" type="curve" smooth="yes"/>
			<point x="494" y="301"/>
			<point x="351" y="291"/>
			<point x="312" y="293" type="curve"/>
			<point x="360" y="316" type="line"/>
			<point x="477" y="343"/>
			<point x="519" y="233"/>
			<point x="519" y="195" type="curve" smooth="yes"/>
			<point x="519" y="77"/>
			<point x="415" y="8"/>
			<point x="266" y="8" type="curve"/>
			<point x="254" y="85" type="line"/>
			<point x="366" y="92"/>
			<point x="419" y="115"/>
			<point x="419" y="184" type="curve" smooth="yes"/>
			<point x="419" y="256"/>
			<point x="301" y="276"/>
			<point x="269" y="278" type="curve"/>
			<point x="253" y="342" type="line"/>
			<point x="359" y="350"/>
			<point x="400" y="386"/>
			<point x="400" y="454" type="curve" smooth="yes"/>
			<point x="400" y="494"/>
			<point x="374" y="551"/>
			<point x="266" y="552" type="curve" smooth="yes"/>
			<point x="221" y="553"/>
			<point x="126" y="553"/>
			<point x="118" y="450" type="curve" smooth="yes"/>
			<point x="113" y="385"/>
			<point x="117" y="161"/>
			<point x="132" y="5" type="curve"/>
		</contour>
	</outline>
</glyph>
<glyph name="ae" format="1">
	<unicode hex="00E6"/>
	<advance width="948"/>
	<outline>
		<contour>
			<point x="31" y="25"/>
			<point x="91" y="-10"/>
			<point x="156" y="-10" type="curve" smooth="yes"/>
			<point x="291" y="-10"/>
			<point x="333" y="92"/>
			<point x="333" y="92" type="curve"/>
			<point x="312" y="124" type="line"/>
			<point x="307" y="93"/>
			<point x="263" y="49"/>
			<point x="200" y="49" type="curve" smooth="yes"/>
			<point x="156" y="49"/>
			<point x="129" y="75"/>
			<point x="129" y="119" type="curve" smooth="yes"/>
			<point x="129" y="178"/>
			<point x="176" y="224"/>
			<point x="253" y="224" type="curve" smooth="yes"/>
			<point x="298" y="224"/>
			<point x="332" y="210"/>
			<point x="332" y="210" type="curve"/>
			<point x="332" y="274" type="line"/>
			<point x="332" y="274"/>
			<point x="275" y="271"/>
			<point x="204" y="255" type="curve" smooth="yes"/>
			<point x="85" y="228"/>
			<point x="31" y="174"/>
			<point x="31" y="96" type="curve" smooth="yes"/>
		</contour>
		<contour>
			<point x="62" y="415"/>
			<point x="61" y="400"/>
			<point x="61" y="378" type="curve" smooth="yes"/>
			<point x="61" y="356"/>
			<point x="62" y="328"/>
			<point x="64" y="302" type="curve"/>
			<point x="132" y="309" type="line"/>
			<point x="136" y="359"/>
			<point x="149" y="394"/>
			<point x="166" y="429" type="curve"/>
			<point x="126" y="365" type="line"/>
			<point x="150" y="391"/>
			<point x="172" y="427"/>
			<point x="227" y="427" type="curve" smooth="yes"/>
			<point x="259" y="427"/>
			<point x="293" y="410"/>
			<point x="307" y="352" type="curve" smooth="yes"/>
			<point x="312" y="331"/>
			<point x="314" y="288"/>
			<point x="314" y="240" type="curve" smooth="yes"/>
			<point x="314" y="186"/>
			<point x="311" y="125"/>
			<point x="306" y="88" type="curve"/>
			<point x="314" y="88" type="line"/>
			<point x="317" y="29"/>
			<point x="332" y="-8"/>
			<point x="390" y="-8" type="curve" smooth="yes"/>
			<point x="424" y="-8"/>
			<point x="455" y="6"/>
			<point x="467" y="12" type="curve"/>
			<point x="458" y="42" type="line"/>
			<point x="448" y="42" type="line"/>
			<point x="393" y="42"/>
			<point x="393" y="100"/>
			<point x="393" y="162" type="curve" smooth="yes"/>
			<point x="393" y="226"/>
			<point x="399" y="293"/>
			<point x="398" y="341" type="curve" smooth="yes"/>
			<point x="396" y="440"/>
			<point x="358" y="470"/>
			<point x="259" y="470" type="curve" smooth="yes"/>
			<point x="175" y="470"/>
			<point x="99" y="436"/>
			<point x="62" y="415" type="curve"/>
		</contour>
		<contour>
			<point x="322" y="58"/>
			<point x="418" y="-16"/>
			<point x="541" y="-15" type="curve" smooth="yes"/>
			<point x="638" y="-15"/>
			<point x="691" y="42"/>
			<point x="703" y="59" type="curve"/>
			<point x="688" y="85" type="line"/>
			<point x="686" y="85"/>
			<point x="639" y="40"/>
			<point x="564" y="41" type="curve" smooth="yes"/>
			<point x="442" y="42"/>
			<point x="413" y="137"/>
			<point x="414" y="239" type="curve" smooth="yes"/>
			<point x="416" y="350"/>
			<point x="465" y="422"/>
			<point x="531" y="422" type="curve" smooth="yes"/>
			<point x="593" y="422"/>
			<point x="624" y="354"/>
			<point x="624" y="279" type="curve"/>
			<point x="575" y="278" type="line"/>
			<point x="392" y="260" type="line"/>
			<point x="404" y="223" type="line"/>
			<point x="719" y="225" type="line"/>
			<point x="736" y="383"/>
			<point x="654" y="464"/>
			<point x="544" y="463" type="curve" smooth="yes"/>
			<point x="429" y="461"/>
			<point x="322" y="373"/>
			<point x="322" y="197" type="curve" smooth="yes"/>
		</contour>
	</outline>
</glyph>
<glyph name="eth" format="1">
	<unicode hex="00F0"/>
	<advance width="622"/>
	<outline>
		<contour>
			<point x="470" y="-2"/>
			<point x="586" y="113"/>
			<point x="586" y="349" type="curve" smooth="yes"/>
			<point x="586" y="598"/>
			<point x="400" y="816"/>
			<point x="213" y="888" type="curve"/>
			<point x="197" y="880"/>
			<point x="187" y="855"/>
			<point x="187" y="836" type="curve"/>
			<point x="377" y="719"/>
			<point x="473" y="599"/>
			<point x="473" y="360" type="curve" smooth="yes"/>
			<point x="473" y="240"/>
			<point x="466" y="66"/>
			<point x="320" y="66" type="curve" smooth="yes"/>
			<point x="194" y="66"/>
			<point x="155" y="171"/>
			<point x="155" y="282" type="curve" smooth="yes"/>
			<point x="155" y="404"/>
			<point x="233" y="491"/>
			<point x="334" y="491" type="curve" smooth="yes"/>
			<point x="408" y="491"/>
			<point x="456" y="473"/>
			<point x="486" y="443" type="curve"/>
			<point x="479" y="520" type="line"/>
			<point x="456" y="528"/>
			<point x="410" y="546"/>
			<point x="350" y="546" type="curve" smooth="yes"/>
			<point x="137" y="546"/>
			<point x="43" y="392"/>
			<point x="44" y="244" type="curve" smooth="yes"/>
			<point x="45" y="109"/>
			<point x="132" y="-2"/>
			<point x="306" y="-2" type="curve" smooth="yes"/>
		</contour>
		<contour>
			<point x="224" y="635" type="line"/>
			<point x="364" y="705"/>
			<point x="472" y="753"/>
			<point x="548" y="783" type="curve"/>
			<point x="519" y="846" type="line"/>
			<point x="436" y="804"/>
			<point x="321" y="749"/>
			<point x="197" y="695" type="curve"/>
		</contour>
	</outline>
</glyph>
<glyph name="divide" format="1">
	<unicode hex="00F7"/>
	<advance width="462"/>
	<outline>
		<contour>
			<point x="25" y="186" type="line"/>
			<point x="128" y="189"/>
			<point x="249" y="189"/>
			<point x="387" y="186" type="curve"/>
			<point x="387" y="260" type="line"/>
			<point x="266" y="256"/>
			<point x="145" y="256"/>
			<point x="25" y="260" type="curve"/>
		</contour>
		<contour>
			<point x="226" y="302"/>
			<point x="245" y="321"/>
			<point x="245" y="346" type="curve" smooth="yes"/>
			<point x="245" y="370"/>
			<point x="226" y="389"/>
			<point x="202" y="389" type="curve" smooth="yes"/>
			<point x="177" y="389"/>
			<point x="158" y="370"/>
			<point x="158" y="346" type="curve" smooth="yes"/>
			<point x="158" y="321"/>
			<point x="177" y="302"/>
			<point x="202" y="302" type="curve" smooth="yes"/>
		</contour>
		<contour>
			<point x="226" y="55"/>
			<point x="245" y="75"/>
			<point x="245" y="99" type="curve" smooth="yes"/>
			<point x="245" y="123"/>
			<point x="226" y="142"/>
			<point x="202" y="142" type="curve" smooth="yes"/>
			<point x="177" y="142"/>
			<point x="158" y="123"/>
			<point x="158" y="99" type="curve" smooth="yes"/>
			<point x="158" y="75"/>
			<point x="177" y="55"/>
			<point x="202" y="55" type="curve" smooth="yes"/>
		</contour>
	</outline>
</glyph>
<glyph name="thorn" format="2">
	<advance width="592"/>
	<unicode hex="00FE"/>
	<outline>
		<contour>
			<point x="36" y="563" type="line"/>
			<point x="100" y="564"/>
			<point x="127" y="540"/>
			<point x="131" y="505" type="curve" smooth="yes"/>
			<point x="132" y="492"/>
			<point x="133" y="470"/>
			<point x="133" y="443" type="curve" smooth="yes"/>
			<point x="133" y="406"/>
			<point x="132" y="137"/>
			<point x="129" y="40" type="curve" smooth="yes"/>
			<point x="127" y="-75"/>
			<point x="129" y="-118"/>
			<point x="69" y="-126" type="curve" smooth="yes"/>
			<point x="62" y="-127"/>
			<point x="55" y="-128"/>
			<point x="46" y="-128" type="curve"/>
			<point x="52" y="-176" type="line"/>
			<point x="313" y="-176" type="line"/>
			<point x="306" y="-139" type="line"/>
			<point x="302" y="-139"/>
			<point x="298" y="-139"/>
			<point x="294" y="-138" type="curve"/>
			<point x="220" y="-132"/>
			<point x="216" y="-74"/>
			<point x="214" y="23" type="curve" smooth="yes"/>
			<point x="213" y="103"/>
			<point x="213" y="332"/>
			<point x="213" y="369" type="curve" smooth="yes"/>
			<point x="213" y="470"/>
			<point x="212" y="523"/>
			<point x="219" y="622" type="curve" smooth="yes"/>
			<point x="219" y="622"/>
			<point x="140" y="611"/>
			<point x="68" y="611" type="curve" smooth="yes"/>
			<point x="55" y="611"/>
			<point x="42" y="611"/>
			<point x="31" y="612" type="curve"/>
		</contour>
		<contour>
			<point x="206" y="-2"/>
			<point x="269" y="-9"/>
			<point x="329" y="4" type="curve" smooth="yes"/>
			<point x="485" y="39"/>
			<point x="549" y="176"/>
			<point x="548" y="285" type="curve" smooth="yes"/>
			<point x="547" y="406"/>
			<point x="475" y="473"/>
			<point x="378" y="473" type="curve" smooth="yes"/>
			<point x="287" y="473"/>
			<point x="213" y="412"/>
			<point x="187" y="355" type="curve"/>
			<point x="211" y="323" type="line"/>
			<point x="228" y="365"/>
			<point x="281" y="411"/>
			<point x="339" y="410" type="curve" smooth="yes"/>
			<point x="418" y="407"/>
			<point x="446" y="334"/>
			<point x="445" y="255" type="curve" smooth="yes"/>
			<point x="444" y="139"/>
			<point x="398" y="62"/>
			<point x="330" y="48" type="curve" smooth="yes"/>
			<point x="260" y="33"/>
			<point x="206" y="77"/>
			<point x="206" y="77" type="curve"/>
			<point x="175" y="9" type="line"/>
		</contour>
	</outline>
</glyph>
<glyph name="Hbar" format="2">
	<unicode hex="0126"/>
	<advance width="693"/>
	<outline>
		<contour>
			<point x="651" y="418" type="line"/>
			<point x="651" y="480" type="line"/>
			<point x="402" y="474" type="line"/>
			<point x="56" y="474" type="line"/>
			<point x="56" y="418" type="line"/>
		</contour>
		<component base="H"/>
	</outline>
</glyph>
<glyph name="idotless" format="1">
	<unicode hex="0131"/>
	<advance width="305"/>
	<outline>
		<contour>
			<point x="277" y="0" type="line"/>
			<point x="269" y="39" type="line"/>
			<point x="265" y="39" type="line" smooth="yes"/>
			<point x="221" y="39"/>
			<point x="199" y="56"/>
			<point x="198" y="132" type="curve" smooth="yes"/>
			<point x="197" y="210"/>
			<point x="202" y="351"/>
			<point x="217" y="477" type="curve"/>
			<point x="217" y="477"/>
			<point x="95" y="460"/>
			<point x="30" y="461" type="curve"/>
			<point x="35" y="413" type="line"/>
			<point x="95" y="413"/>
			<point x="119" y="410"/>
			<point x="122" y="377" type="curve"/>
			<point x="124" y="321"/>
			<point x="125" y="258"/>
			<point x="125" y="195" type="curve" smooth="yes"/>
			<point x="125" y="160"/>
			<point x="122" y="126"/>
			<point x="118" y="105" type="curve"/>
			<point x="113" y="68"/>
			<point x="89" y="47"/>
			<point x="39" y="47" type="curve" smooth="yes"/>
			<point x="29" y="47" type="line"/>
			<point x="37" y="0" type="line"/>
		</contour>
	</outline>
</glyph>
<glyph name="kgreenlandic" format="1">
	<unicode hex="0138"/>
	<advance width="571"/>
	<outline>
		<contour>
			<point x="494" y="0"/>
			<point x="515" y="1"/>
			<point x="603" y="0" type="curve"/>
			<point x="594" y="47" type="line"/>
			<point x="553" y="46"/>
			<point x="536" y="62"/>
			<point x="356" y="263" type="curve"/>
			<point x="359" y="230" type="line"/>
			<point x="388" y="266"/>
			<point x="467" y="339"/>
			<point x="515" y="381" type="curve" smooth="yes"/>
			<point x="540" y="403"/>
			<point x="563" y="425"/>
			<point x="594" y="424" type="curve"/>
			<point x="587" y="470" type="line"/>
			<point x="587" y="470"/>
			<point x="490" y="464"/>
			<point x="397" y="467" type="curve"/>
			<point x="404" y="420" type="line"/>
			<point x="460" y="423"/>
			<point x="457" y="400"/>
			<point x="444" y="385" type="curve" smooth="yes"/>
			<point x="394" y="330"/>
			<point x="325" y="268"/>
			<point x="296" y="242" type="curve"/>
			<point x="303" y="213" type="line"/>
			<point x="368" y="143"/>
			<point x="402" y="96"/>
			<point x="414" y="79" type="curve" smooth="yes"/>
			<point x="436" y="49"/>
			<point x="424" y="43"/>
			<point x="396" y="44" type="curve"/>
			<point x="407" y="0" type="line"/>
		</contour>
		<contour>
			<point x="347" y="0" type="line"/>
			<point x="339" y="44" type="line"/>
			<point x="299" y="41"/>
			<point x="261" y="55"/>
			<point x="258" y="110" type="curve" smooth="yes"/>
			<point x="252" y="219"/>
			<point x="255" y="272"/>
			<point x="262" y="363" type="curve" smooth="yes"/>
			<point x="266" y="411"/>
			<point x="298" y="421"/>
			<point x="337" y="420" type="curve"/>
			<point x="335" y="435"/>
			<point x="331" y="468"/>
			<point x="331" y="468" type="curve"/>
			<point x="249" y="464"/>
			<point x="205" y="463"/>
			<point x="111" y="467" type="curve"/>
			<point x="112" y="460"/>
			<point x="115" y="431"/>
			<point x="117" y="419" type="curve"/>
			<point x="177" y="420"/>
			<point x="187" y="396"/>
			<point x="187" y="347" type="curve" smooth="yes"/>
			<point x="187" y="222"/>
			<point x="187" y="183"/>
			<point x="183" y="108" type="curve" smooth="yes"/>
			<point x="181" y="59"/>
			<point x="167" y="50"/>
			<point x="116" y="49" type="curve"/>
			<point x="122" y="-1" type="line"/>
		</contour>
	</outline>
</glyph>
<glyph name="Eng" format="1">
	<unicode hex="014A"/>
	<advance width="926"/>
	<outline>
		<contour>
			<point x="705" y="-52" type="line" smooth="yes"/>
			<point x="705" y="-211"/>
			<point x="626" y="-271"/>
			<point x="545" y="-250" type="curve"/>
			<point x="572" y="-294" type="line"/>
			<point x="557" y="-265"/>
			<point x="537" y="-235"/>
			<point x="532" y="-171" type="curve"/>
			<point x="474" y="-170" type="line"/>
			<point x="463" y="-200"/>
			<point x="458" y="-233"/>
			<point x="456" y="-263" type="curve"/>
			<point x="477" y="-294"/>
			<point x="542" y="-317"/>
			<point x="601" y="-317" type="curve" smooth="yes"/>
			<point x="720" y="-317"/>
			<point x="799" y="-223"/>
			<point x="798" y="-116" type="curve" smooth="yes"/>
			<point x="795" y="209"/>
			<point x="789" y="516"/>
			<point x="802" y="665" type="curve" smooth="yes"/>
			<point x="807" y="720"/>
			<point x="835" y="739"/>
			<point x="896" y="738" type="curve"/>
			<point x="887" y="801" type="line"/>
			<point x="826" y="794"/>
			<point x="785" y="794"/>
			<point x="744" y="794" type="curve" smooth="yes"/>
			<point x="672" y="793"/>
			<point x="633" y="796"/>
			<point x="577" y="800" type="curve"/>
			<point x="579" y="791"/>
			<point x="583" y="752"/>
			<point x="586" y="736" type="curve"/>
			<point x="656" y="736"/>
			<point x="688" y="724"/>
			<point x="695" y="633" type="curve" smooth="yes"/>
			<point x="704" y="508"/>
			<point x="715" y="187"/>
			<point x="707" y="106" type="curve"/>
			<point x="716" y="90" type="line"/>
			<point x="710" y="105"/>
			<point x="683" y="224"/>
			<point x="654" y="266" type="curve" smooth="yes"/>
			<point x="533" y="439"/>
			<point x="355" y="704"/>
			<point x="293" y="798" type="curve"/>
			<point x="189" y="795"/>
			<point x="127" y="794"/>
			<point x="28" y="800" type="curve"/>
			<point x="30" y="791"/>
			<point x="33" y="752"/>
			<point x="36" y="736" type="curve"/>
			<point x="106" y="736"/>
			<point x="144" y="704"/>
			<point x="145" y="633" type="curve" smooth="yes"/>
			<point x="147" y="469"/>
			<point x="146" y="273"/>
			<point x="138" y="162" type="curve" smooth="yes"/>
			<point x="133" y="79"/>
			<point x="104" y="62"/>
			<point x="31" y="61" type="curve"/>
			<point x="39" y="-1" type="line"/>
			<point x="349" y="0" type="line"/>
			<point x="340" y="56" type="line"/>
			<point x="288" y="56"/>
			<point x="251" y="71"/>
			<point x="240" y="141" type="curve" smooth="yes"/>
			<point x="234" y="188"/>
			<point x="230" y="518"/>
			<point x="242" y="700" type="curve"/>
			<point x="242" y="700"/>
			<point x="225" y="726"/>
			<point x="230" y="719" type="curve"/>
			<point x="234" y="714"/>
			<point x="284" y="579"/>
			<point x="288" y="574" type="curve"/>
			<point x="427" y="383"/>
			<point x="534" y="249"/>
			<point x="703" y="-7" type="curve"/>
			<point x="705" y="-9" type="line"/>
		</contour>
	</outline>
</glyph>
<glyph name="eng" format="1">
	<unicode hex="014B"/>
	<advance width="600"/>
	<outline>
		<contour>
			<point x="383" y="0" type="line"/>
			<point x="373" y="48" type="line"/>
			<point x="335" y="48"/>
			<point x="288" y="54"/>
			<point x="288" y="137" type="curve" smooth="yes"/>
			<point x="289" y="252"/>
			<point x="287" y="366"/>
			<point x="292" y="478" type="curve"/>
			<point x="270" y="465" type="line"/>
			<point x="276" y="491"/>
			<point x="293" y="608"/>
			<point x="293" y="608" type="curve" smooth="yes"/>
			<point x="293" y="608"/>
			<point x="128" y="593"/>
			<point x="49" y="595" type="curve"/>
			<point x="56" y="534" type="line"/>
			<point x="180" y="531"/>
			<point x="182" y="486"/>
			<point x="182" y="378" type="curve" smooth="yes"/>
			<point x="182" y="312"/>
			<point x="182" y="211"/>
			<point x="173" y="122" type="curve" smooth="yes"/>
			<point x="168" y="69"/>
			<point x="126" y="60"/>
			<point x="61" y="62" type="curve"/>
			<point x="69" y="0" type="line"/>
		</contour>
		<contour>
			<point x="670" y="-16"/>
			<point x="679" y="283"/>
			<point x="679" y="373" type="curve" smooth="yes"/>
			<point x="679" y="418"/>
			<point x="678" y="459"/>
			<point x="675" y="481" type="curve" smooth="yes"/>
			<point x="661" y="575"/>
			<point x="603" y="612"/>
			<point x="527" y="612" type="curve" smooth="yes"/>
			<point x="420" y="612"/>
			<point x="310" y="522"/>
			<point x="261" y="454" type="curve"/>
			<point x="286" y="417" type="line"/>
			<point x="286" y="417"/>
			<point x="354" y="513"/>
			<point x="455" y="513" type="curve" smooth="yes"/>
			<point x="514" y="513"/>
			<point x="555" y="480"/>
			<point x="564" y="417" type="curve" smooth="yes"/>
			<point x="568" y="387"/>
			<point x="571" y="347"/>
			<point x="571" y="303" type="curve" smooth="yes"/>
			<point x="572" y="163"/>
			<point x="572" y="26"/>
			<point x="572" y="-57" type="curve" smooth="yes"/>
			<point x="572" y="-210"/>
			<point x="496" y="-271"/>
			<point x="415" y="-250" type="curve"/>
			<point x="442" y="-294" type="line"/>
			<point x="427" y="-265"/>
			<point x="407" y="-235"/>
			<point x="402" y="-171" type="curve"/>
			<point x="334" y="-170" type="line"/>
			<point x="323" y="-200"/>
			<point x="318" y="-233"/>
			<point x="316" y="-263" type="curve"/>
			<point x="337" y="-294"/>
			<point x="412" y="-317"/>
			<point x="471" y="-317" type="curve" smooth="yes"/>
			<point x="590" y="-317"/>
			<point x="671" y="-223"/>
			<point x="670" y="-116" type="curve"/>
		</contour>
	</outline>
</glyph>
<glyph name="Tbar" format="1">
	<unicode hex="0166"/>
	<advance width="532"/>
	<outline>
		<contour>
			<point x="477" y="285" type="line"/>
			<point x="478" y="311"/>
			<point x="483" y="337"/>
			<point x="484" y="358" type="curve"/>
			<point x="352" y="353"/>
			<point x="186" y="350"/>
			<point x="41" y="358" type="curve"/>
			<point x="30" y="285" type="line"/>
		</contour>
		<component base="T"/>
	</outline>
</glyph>
<glyph name="tbar" format="1">
  <advance width="600"/>
  <unicode hex="0167"/>
  <outline>
    <contour>
      <point x="387" y="294" type="line"/>
      <point x="382" y="328"/>
      <point x="381" y="344"/>
      <point x="379" y="371" type="curve"/>
      <point x="267" y="368"/>
      <point x="121" y="364"/>
      <point x="13" y="371" type="curve"/>
      <point x="19" y="294" type="line"/>
    </contour>
    <component base="t"/>
  </outline>
</glyph>
<glyph name="Schwa" format="1">
	<unicode hex="018F"/>
	<advance width="725"/>
	<outline>
		<contour>
			<point x="675" y="658"/>
			<point x="529" y="777"/>
			<point x="349" y="776" type="curve" smooth="yes"/>
			<point x="184" y="775"/>
			<point x="89" y="683"/>
			<point x="69" y="657" type="curve"/>
			<point x="94" y="623" type="line"/>
			<point x="96" y="623"/>
			<point x="175" y="697"/>
			<point x="297" y="695" type="curve" smooth="yes"/>
			<point x="514" y="692"/>
			<point x="557" y="530"/>
			<point x="555" y="365" type="curve" smooth="yes"/>
			<point x="552" y="136"/>
			<point x="453" y="70"/>
			<point x="367" y="70" type="curve" smooth="yes"/>
			<point x="247" y="70"/>
			<point x="156" y="179"/>
			<point x="156" y="331" type="curve"/>
			<point x="275" y="332" type="line"/>
			<point x="591" y="361" type="line"/>
			<point x="572" y="421" type="line"/>
			<point x="43" y="418" type="line"/>
			<point x="16" y="162"/>
			<point x="139" y="2"/>
			<point x="348" y="4" type="curve" smooth="yes"/>
			<point x="512" y="6"/>
			<point x="675" y="150"/>
			<point x="675" y="433" type="curve" smooth="yes"/>
		</contour>
	</outline>
</glyph>
